STARTFONT 2.1
FONT "open_iconic_all_8x"
SIZE 16 75 75
FONTBOUNDINGBOX 16 16 0 0
STARTPROPERTIES 3
COPYRIGHT "https://github.com/iconic/open-iconic, SIL OPEN FONT LICENSE"
FONT_ASCENT 0
FONT_DESCENT 0
ENDPROPERTIES
STARTCHAR /home/kraus/git/open-iconic/png/account-login-8x.png
ENCODING 64
DWIDTH 64 0
BBX 64 64 0 0
BITMAP
000000ffffffffff
000000ffffffffff
000000ffffffffff
000000ffffffffff
000000ffffffffff
000000ffffffffff
000000ffffffffff
000000ffffffffff
00000000000000ff
00000000000000ff
00000000000000ff
00000000000000ff
00000000000000ff
00000000000000ff
00000000000000ff
00000000000000ff
00000000800000ff
00000000c00000ff
00000000e00000ff
00000000f80000ff
00000000fc0000ff
00000000fe0000ff
00000000ff8000ff
00000000ffc000ff
ffffffffffe000ff
fffffffffff800ff
fffffffffffc00ff
fffffffffffe00ff
fffffffffffe00ff
fffffffffffc00ff
fffffffffff800ff
ffffffffffe000ff
00000000ffc000ff
00000000ff8000ff
00000000fe0000ff
00000000fc0000ff
00000000f80000ff
00000000e00000ff
00000000c00000ff
00000000800000ff
00000000000000ff
00000000000000ff
00000000000000ff
00000000000000ff
00000000000000ff
00000000000000ff
00000000000000ff
00000000000000ff
000000ffffffffff
000000ffffffffff
000000ffffffffff
000000ffffffffff
000000ffffffffff
000000ffffffffff
000000ffffffffff
000000ffffffffff
0000000000000000
0000000000000000
0000000000000000
0000000000000000
0000000000000000
0000000000000000
0000000000000000
0000000000000000
ENDCHAR
STARTCHAR /home/kraus/git/open-iconic/png/account-logout-8x.png
ENCODING 65
DWIDTH 64 0
BBX 64 64 0 0
BITMAP
000000ffffffffff
000000ffffffffff
000000ffffffffff
000000ffffffffff
000000ffffffffff
000000ffffffffff
000000ffffffffff
000000ffffffffff
00000000000000ff
00000000000000ff
00000000000000ff
00000000000000ff
00000000000000ff
00000000000000ff
00000000000000ff
00000000000000ff
00010000000000ff
00030000000000ff
00070000000000ff
001f0000000000ff
003f0000000000ff
007f0000000000ff
01ff0000000000ff
03ff0000000000ff
07ffffffffff00ff
1fffffffffff00ff
3fffffffffff00ff
7fffffffffff00ff
7fffffffffff00ff
3fffffffffff00ff
1fffffffffff00ff
07ffffffffff00ff
03ff0000000000ff
01ff0000000000ff
007f0000000000ff
003f0000000000ff
001f0000000000ff
00070000000000ff
00030000000000ff
00010000000000ff
00000000000000ff
00000000000000ff
00000000000000ff
00000000000000ff
00000000000000ff
00000000000000ff
00000000000000ff
00000000000000ff
000000ffffffffff
000000ffffffffff
000000ffffffffff
000000ffffffffff
000000ffffffffff
000000ffffffffff
000000ffffffffff
000000ffffffffff
0000000000000000
0000000000000000
0000000000000000
0000000000000000
0000000000000000
0000000000000000
0000000000000000
0000000000000000
ENDCHAR
STARTCHAR /home/kraus/git/open-iconic/png/action-redo-8x.png
ENCODING 66
DWIDTH 64 0
BBX 64 64 0 0
BITMAP
0000000000000000
0000000000000000
0000000000000000
0000000000000000
0000000000000000
0000000000000000
0000000000000000
0000000000000000
000001ff80000000
00001ffff8000000
0000ffffff000000
0003ffffffc00000
0007ffffffe00000
001ffffffff80000
003ffffffffc0000
007ffffffffe0000
00ff00ffffff0000
01f0000fffff8000
03c00003ffffc000
07800001ffffe000
060000007fffe000
0c0000003ffff000
180000001ffff800
100000000ffff800
300000000ffff800
2000000007fffc00
0000000003fffc00
4000000003fffe00
0000000001fffe00
0000000001fffe00
0000000001fffe00
0000000001ffff00
0000000000ffff00
0000000000ffff00
0000000000ffff00
0000000000ffff00
0000000000ffff00
0000000000ffff00
0000000000ffff00
0000000000ffff00
000000007ffffffe
000000003ffffffc
000000001ffffff8
000000000ffffff0
0000000007ffffe0
0000000003ffffc0
0000000001ffff80
0000000000ffff00
00000000007ffe00
00000000003ffc00
00000000001ff800
00000000000ff000
000000000007e000
000000000003c000
0000000000018000
0000000000000000
0000000000000000
0000000000000000
0000000000000000
0000000000000000
0000000000000000
0000000000000000
0000000000000000
0000000000000000
ENDCHAR
STARTCHAR /home/kraus/git/open-iconic/png/action-undo-8x.png
ENCODING 67
DWIDTH 64 0
BBX 64 64 0 0
BITMAP
0000000000000000
0000000000000000
0000000000000000
0000000000000000
0000000000000000
0000000000000000
0000000000000000
0000000000000000
00000001ff800000
0000001ffff80000
000000ffffff0000
000003ffffffc000
000007ffffffe000
00001ffffffff800
00003ffffffffc00
00007ffffffffe00
0000ffffff00ff00
0001fffff0000f80
0003ffffc00003c0
0007ffff800001e0
0007fffe00000060
000ffffc00000030
001ffff800000018
001ffff000000008
003ffff000000008
003fffe000000004
003fffc000000000
007fffc000000002
007fff8000000000
007fff8000000000
007fff8000000000
00ffff8000000000
00ffff0000000000
00ffff0000000000
00ffff0000000000
00ffff0000000000
00ffff0000000000
00ffff0000000000
00ffff0000000000
00ffff0000000000
7ffffffe00000000
3ffffffc00000000
1ffffff800000000
0ffffff000000000
07ffffe000000000
03ffffc000000000
01ffff8000000000
00ffff0000000000
007ffe0000000000
003ffc0000000000
001ff80000000000
000ff00000000000
0007e00000000000
0003c00000000000
0001800000000000
0000000000000000
0000000000000000
0000000000000000
0000000000000000
0000000000000000
0000000000000000
0000000000000000
0000000000000000
0000000000000000
ENDCHAR
STARTCHAR /home/kraus/git/open-iconic/png/align-center-8x.png
ENCODING 68
DWIDTH 64 0
BBX 64 64 0 0
BITMAP
ffffffffffffffff
ffffffffffffffff
ffffffffffffffff
ffffffffffffffff
ffffffffffffffff
ffffffffffffffff
ffffffffffffffff
ffffffffffffffff
0000000000000000
0000000000000000
0000000000000000
0000000000000000
0000000000000000
0000000000000000
0000000000000000
0000000000000000
00ffffffffffff00
00ffffffffffff00
00ffffffffffff00
00ffffffffffff00
00ffffffffffff00
00ffffffffffff00
00ffffffffffff00
00ffffffffffff00
0000000000000000
0000000000000000
0000000000000000
0000000000000000
0000000000000000
0000000000000000
0000000000000000
0000000000000000
ffffffffffffffff
ffffffffffffffff
ffffffffffffffff
ffffffffffffffff
ffffffffffffffff
ffffffffffffffff
ffffffffffffffff
ffffffffffffffff
0000000000000000
0000000000000000
0000000000000000
0000000000000000
0000000000000000
0000000000000000
0000000000000000
0000000000000000
00ffffffffffff00
00ffffffffffff00
00ffffffffffff00
00ffffffffffff00
00ffffffffffff00
00ffffffffffff00
00ffffffffffff00
00ffffffffffff00
0000000000000000
0000000000000000
0000000000000000
0000000000000000
0000000000000000
0000000000000000
0000000000000000
0000000000000000
ENDCHAR
STARTCHAR /home/kraus/git/open-iconic/png/align-left-8x.png
ENCODING 69
DWIDTH 64 0
BBX 64 64 0 0
BITMAP
ffffffffffffffff
ffffffffffffffff
ffffffffffffffff
ffffffffffffffff
ffffffffffffffff
ffffffffffffffff
ffffffffffffffff
ffffffffffffffff
0000000000000000
0000000000000000
0000000000000000
0000000000000000
0000000000000000
0000000000000000
0000000000000000
0000000000000000
ffffffffffff0000
ffffffffffff0000
ffffffffffff0000
ffffffffffff0000
ffffffffffff0000
ffffffffffff0000
ffffffffffff0000
ffffffffffff0000
0000000000000000
0000000000000000
0000000000000000
0000000000000000
0000000000000000
0000000000000000
0000000000000000
0000000000000000
ffffffffffffffff
ffffffffffffffff
ffffffffffffffff
ffffffffffffffff
ffffffffffffffff
ffffffffffffffff
ffffffffffffffff
ffffffffffffffff
0000000000000000
0000000000000000
0000000000000000
0000000000000000
0000000000000000
0000000000000000
0000000000000000
0000000000000000
ffffffffffff0000
ffffffffffff0000
ffffffffffff0000
ffffffffffff0000
ffffffffffff0000
ffffffffffff0000
ffffffffffff0000
ffffffffffff0000
0000000000000000
0000000000000000
0000000000000000
0000000000000000
0000000000000000
0000000000000000
0000000000000000
0000000000000000
ENDCHAR
STARTCHAR /home/kraus/git/open-iconic/png/align-right-8x.png
ENCODING 70
DWIDTH 64 0
BBX 64 64 0 0
BITMAP
ffffffffffffffff
ffffffffffffffff
ffffffffffffffff
ffffffffffffffff
ffffffffffffffff
ffffffffffffffff
ffffffffffffffff
ffffffffffffffff
0000000000000000
0000000000000000
0000000000000000
0000000000000000
0000000000000000
0000000000000000
0000000000000000
0000000000000000
0000ffffffffffff
0000ffffffffffff
0000ffffffffffff
0000ffffffffffff
0000ffffffffffff
0000ffffffffffff
0000ffffffffffff
0000ffffffffffff
0000000000000000
0000000000000000
0000000000000000
0000000000000000
0000000000000000
0000000000000000
0000000000000000
0000000000000000
ffffffffffffffff
ffffffffffffffff
ffffffffffffffff
ffffffffffffffff
ffffffffffffffff
ffffffffffffffff
ffffffffffffffff
ffffffffffffffff
0000000000000000
0000000000000000
0000000000000000
0000000000000000
0000000000000000
0000000000000000
0000000000000000
0000000000000000
0000ffffffffffff
0000ffffffffffff
0000ffffffffffff
0000ffffffffffff
0000ffffffffffff
0000ffffffffffff
0000ffffffffffff
0000ffffffffffff
0000000000000000
0000000000000000
0000000000000000
0000000000000000
0000000000000000
0000000000000000
0000000000000000
0000000000000000
ENDCHAR
STARTCHAR /home/kraus/git/open-iconic/png/aperture-8x.png
ENCODING 71
DWIDTH 64 0
BBX 64 64 0 0
BITMAP
0000001ff8000000
000001ffff800000
00000ffffff00000
00003ffffffc0000
00007fffffff0000
00001fffffff0000
00000fffffff0000
000003ffffff0000
000001fffffe0000
002000fffffe0000
0070003ffffe0000
00f8001ffffc0100
01fe000ffffc0380
03ff0003fffc03c0
07ff8001fff803e0
07ffe0007ff807e0
0ffff0003ff807f0
0ffffc001ff007f0
1ffffe0007f00ff8
1fffff0003f00ff8
3fffff8001e00ffc
3ffffe0000601ffc
3ffffc0000001ffe
7ffff00000001ffe
7fffe00000003ffe
7fffc00000003ffe
7fff000000003fff
fffe000000007fff
fff8000000007fff
fff0000000007fff
ffe000000000ffff
ff8000000000ffff
ff0000000000ffff
fc0000000001ffff
f80000000001ffff
f00000000001ffff
c00080000003ffff
0001c0000003fffe
0003c0000003fffe
000fc0000007fffe
001fe00000000000
007fe00000000000
00ffe00000000000
01fff00000000000
07fff00000000000
0ffff00000000000
0ffff80000000000
0ffff80000000000
07fff803ffffffe0
07fffc03ffffffe0
03fffc01ffffffc0
01fffc01ffffff80
00fffe01ffffff00
00fffe01ffffff00
007ffe00fffffe00
003fff00fffffc00
000fff00fffff000
0007ff007fffe000
0003ff807fffc000
0000ff807fff0000
00007f803ffc0000
00001fc03ff00000
000003c03f800000
0000000018000000
ENDCHAR
STARTCHAR /home/kraus/git/open-iconic/png/arrow-bottom-8x.png
ENCODING 72
DWIDTH 64 0
BBX 64 64 0 0
BITMAP
000000ff00000000
000000ff00000000
000000ff00000000
000000ff00000000
000000ff00000000
000000ff00000000
000000ff00000000
000000ff00000000
000000ff00000000
000000ff00000000
000000ff00000000
000000ff00000000
000000ff00000000
000000ff00000000
000000ff00000000
000000ff00000000
000000ff00000000
000000ff00000000
000000ff00000000
000000ff00000000
000000ff00000000
000000ff00000000
000000ff00000000
000000ff00000000
000000ff00000000
000000ff00000000
000000ff00000000
000000ff00000000
000000ff00000000
000000ff00000000
000000ff00000000
000000ff00000000
000000ff00000000
000000ff00000000
000000ff00000000
000000ff00000000
000000ff00000000
000000ff00000000
000000ff00000000
000000ff00000000
00ffffffffff0000
007ffffffffe0000
003ffffffffc0000
001ffffffff80000
000ffffffff00000
0007ffffffe00000
0007ffffffe00000
0003ffffffc00000
0001ffffff800000
0000ffffff000000
00007ffffe000000
00003ffffe000000
00001ffffc000000
00001ffff8000000
00000ffff0000000
000007ffe0000000
000003ffc0000000
000001ffc0000000
000000ff80000000
000000ff00000000
0000007e00000000
0000003c00000000
0000001800000000
0000000800000000
ENDCHAR
STARTCHAR /home/kraus/git/open-iconic/png/arrow-circle-bottom-8x.png
ENCODING 73
DWIDTH 64 0
BBX 64 64 0 0
BITMAP
0000003ffc000000
000003ffffc00000
00000ffffff00000
00007ffffffe0000
0000ffffffff0000
0003ffffffffc000
0007ffffffffe000
001ffffffffff800
003fff0000fffc00
007fff0000fffe00
00ffff0000ffff00
01ffff0000ffff80
01ffff0000ffff80
03ffff0000ffffc0
07ffff0000ffffe0
07ffff0000ffffe0
0fffff0000fffff0
1fffff0000fffff8
1fffff0000fffff8
1fffff0000fffff8
3fffff0000fffffc
3fffff0000fffffc
7fffff0000fffffe
7fffff0000fffffe
7fffff0000fffffe
7fffff0000fffffe
ffffff0000ffffff
ffffff0000ffffff
ffffff0000ffffff
ffffff0000ffffff
ffffff0000ffffff
ffffff0000ffffff
ff000000000000ff
ff800000000001ff
ffc00000000003ff
ffe00000000007ff
fff0000000000fff
fff8000000001fff
7ffc000000003ffe
7ffe000000007ffe
7fff00000000fffe
7fff80000001fffe
3fffc0000003fffc
3fffe0000007fffc
1ffff000000ffff8
1ffff800001ffff8
1ffffc00003ffff8
0ffffe00007ffff0
07ffff0000ffffe0
07ffff8001ffffe0
03ffffc003ffffc0
01ffffe007ffff80
01fffff00fffff80
00fffff81fffff00
007ffffc3ffffe00
003ffffe7ffffc00
001ffffffffff800
0007ffffffffe000
0003ffffffffc000
0000ffffffff0000
00007ffffffe0000
00000ffffff00000
000003ffffc00000
0000003ffc000000
ENDCHAR
STARTCHAR /home/kraus/git/open-iconic/png/arrow-circle-left-8x.png
ENCODING 74
DWIDTH 64 0
BBX 64 64 0 0
BITMAP
0000003ffc000000
000003ffffc00000
00000ffffff00000
00007ffffffe0000
0000ffffffff0000
0003ffffffffc000
0007ffffffffe000
001ffffffffff800
003ffffefffffc00
007ffffcfffffe00
00fffff8ffffff00
01fffff0ffffff80
01ffffe0ffffff80
03ffffc0ffffffc0
07ffff80ffffffe0
07ffff00ffffffe0
0ffffe00fffffff0
1ffffc00fffffff8
1ffff800fffffff8
1ffff000fffffff8
3fffe000fffffffc
3fffc000fffffffc
7fff8000fffffffe
7fff0000fffffffe
7ffe0000000000fe
7ffc0000000000fe
fff80000000000ff
fff00000000000ff
ffe00000000000ff
ffc00000000000ff
ff800000000000ff
ff000000000000ff
ff000000000000ff
ff800000000000ff
ffc00000000000ff
ffe00000000000ff
fff00000000000ff
fff80000000000ff
7ffc0000000000fe
7ffe0000000000fe
7fff0000fffffffe
7fff8000fffffffe
3fffc000fffffffc
3fffe000fffffffc
1ffff000fffffff8
1ffff800fffffff8
1ffffc00fffffff8
0ffffe00fffffff0
07ffff00ffffffe0
07ffff80ffffffe0
03ffffc0ffffffc0
01ffffe0ffffff80
01fffff0ffffff80
00fffff8ffffff00
007ffffcfffffe00
003ffffefffffc00
001ffffffffff800
0007ffffffffe000
0003ffffffffc000
0000ffffffff0000
00007ffffffe0000
00000ffffff00000
000003ffffc00000
0000003ffc000000
ENDCHAR
STARTCHAR /home/kraus/git/open-iconic/png/arrow-circle-right-8x.png
ENCODING 75
DWIDTH 64 0
BBX 64 64 0 0
BITMAP
0000003ffc000000
000003ffffc00000
00000ffffff00000
00007ffffffe0000
0000ffffffff0000
0003ffffffffc000
0007ffffffffe000
001ffffffffff800
003fffff7ffffc00
007fffff3ffffe00
00ffffff1fffff00
01ffffff0fffff80
01ffffff07ffff80
03ffffff03ffffc0
07ffffff01ffffe0
07ffffff00ffffe0
0fffffff007ffff0
1fffffff003ffff8
1fffffff001ffff8
1fffffff000ffff8
3fffffff0007fffc
3fffffff0003fffc
7fffffff0001fffe
7fffffff0000fffe
7f00000000007ffe
7f00000000003ffe
ff00000000001fff
ff00000000000fff
ff000000000007ff
ff000000000003ff
ff000000000001ff
ff000000000000ff
ff000000000000ff
ff000000000001ff
ff000000000003ff
ff000000000007ff
ff00000000000fff
ff00000000001fff
7f00000000003ffe
7f00000000007ffe
7fffffff0000fffe
7fffffff0001fffe
3fffffff0003fffc
3fffffff0007fffc
1fffffff000ffff8
1fffffff001ffff8
1fffffff003ffff8
0fffffff007ffff0
07ffffff00ffffe0
07ffffff01ffffe0
03ffffff03ffffc0
01ffffff07ffff80
01ffffff0fffff80
00ffffff1fffff00
007fffff3ffffe00
003fffff7ffffc00
001ffffffffff800
0007ffffffffe000
0003ffffffffc000
0000ffffffff0000
00007ffffffe0000
00000ffffff00000
000003ffffc00000
0000003ffc000000
ENDCHAR
STARTCHAR /home/kraus/git/open-iconic/png/arrow-circle-top-8x.png
ENCODING 76
DWIDTH 64 0
BBX 64 64 0 0
BITMAP
0000003ffc000000
000003ffffc00000
00000ffffff00000
00007ffffffe0000
0000ffffffff0000
0003ffffffffc000
0007ffffffffe000
001ffffffffff800
003ffffe7ffffc00
007ffffc3ffffe00
00fffff81fffff00
01fffff00fffff80
01ffffe007ffff80
03ffffc003ffffc0
07ffff8001ffffe0
07ffff0000ffffe0
0ffffe00007ffff0
1ffffc00003ffff8
1ffff800001ffff8
1ffff000000ffff8
3fffe0000007fffc
3fffc0000003fffc
7fff80000001fffe
7fff00000000fffe
7ffe000000007ffe
7ffc000000003ffe
fff8000000001fff
fff0000000000fff
ffe00000000007ff
ffc00000000003ff
ff800000000001ff
ff000000000000ff
ffffff0000ffffff
ffffff0000ffffff
ffffff0000ffffff
ffffff0000ffffff
ffffff0000ffffff
ffffff0000ffffff
7fffff0000fffffe
7fffff0000fffffe
7fffff0000fffffe
7fffff0000fffffe
3fffff0000fffffc
3fffff0000fffffc
1fffff0000fffff8
1fffff0000fffff8
1fffff0000fffff8
0fffff0000fffff0
07ffff0000ffffe0
07ffff0000ffffe0
03ffff0000ffffc0
01ffff0000ffff80
01ffff0000ffff80
00ffff0000ffff00
007fff0000fffe00
003fff0000fffc00
001ffffffffff800
0007ffffffffe000
0003ffffffffc000
0000ffffffff0000
00007ffffffe0000
00000ffffff00000
000003ffffc00000
0000003ffc000000
ENDCHAR
STARTCHAR /home/kraus/git/open-iconic/png/arrow-left-8x.png
ENCODING 77
DWIDTH 64 0
BBX 64 64 0 0
BITMAP
0000000000000000
0000000000000000
0000000000000000
0000000000000000
0000000000000000
0000000000000000
0000000000000000
0000000000000000
0000010000000000
0000030000000000
0000070000000000
00000f0000000000
00001f0000000000
00007f0000000000
0000ff0000000000
0001ff0000000000
0003ff0000000000
0007ff0000000000
000fff0000000000
003fff0000000000
007fff0000000000
00ffff0000000000
01ffff0000000000
03ffff0000000000
0fffffffffffffff
1fffffffffffffff
3fffffffffffffff
7fffffffffffffff
ffffffffffffffff
3fffffffffffffff
1fffffffffffffff
0fffffffffffffff
07ffff0000000000
03ffff0000000000
00ffff0000000000
007fff0000000000
003fff0000000000
001fff0000000000
000fff0000000000
0003ff0000000000
0001ff0000000000
0000ff0000000000
00007f0000000000
00001f0000000000
00000f0000000000
0000070000000000
0000030000000000
0000010000000000
0000000000000000
0000000000000000
0000000000000000
0000000000000000
0000000000000000
0000000000000000
0000000000000000
0000000000000000
0000000000000000
0000000000000000
0000000000000000
0000000000000000
0000000000000000
0000000000000000
0000000000000000
0000000000000000
ENDCHAR
STARTCHAR /home/kraus/git/open-iconic/png/arrow-right-8x.png
ENCODING 78
DWIDTH 64 0
BBX 64 64 0 0
BITMAP
0000000000000000
0000000000000000
0000000000000000
0000000000000000
0000000000000000
0000000000000000
0000000000000000
0000000000000000
0000000000800000
0000000000c00000
0000000000e00000
0000000000f00000
0000000000f80000
0000000000fe0000
0000000000ff0000
0000000000ff8000
0000000000ffc000
0000000000fff000
0000000000fff800
0000000000fffc00
0000000000fffe00
0000000000ffff00
0000000000ffffc0
0000000000ffffe0
fffffffffffffff0
fffffffffffffff8
fffffffffffffffc
ffffffffffffffff
fffffffffffffffe
fffffffffffffffc
fffffffffffffff8
fffffffffffffff0
0000000000ffffc0
0000000000ffff80
0000000000ffff00
0000000000fffe00
0000000000fffc00
0000000000fff000
0000000000ffe000
0000000000ffc000
0000000000ff8000
0000000000ff0000
0000000000fe0000
0000000000f80000
0000000000f00000
0000000000e00000
0000000000c00000
0000000000800000
0000000000000000
0000000000000000
0000000000000000
0000000000000000
0000000000000000
0000000000000000
0000000000000000
0000000000000000
0000000000000000
0000000000000000
0000000000000000
0000000000000000
0000000000000000
0000000000000000
0000000000000000
0000000000000000
ENDCHAR
STARTCHAR /home/kraus/git/open-iconic/png/arrow-thick-bottom-8x.png
ENCODING 79
DWIDTH 64 0
BBX 64 64 0 0
BITMAP
000000ffff000000
000000ffff000000
000000ffff000000
000000ffff000000
000000ffff000000
000000ffff000000
000000ffff000000
000000ffff000000
000000ffff000000
000000ffff000000
000000ffff000000
000000ffff000000
000000ffff000000
000000ffff000000
000000ffff000000
000000ffff000000
000000ffff000000
000000ffff000000
000000ffff000000
000000ffff000000
000000ffff000000
000000ffff000000
000000ffff000000
000000ffff000000
000000ffff000000
000000ffff000000
000000ffff000000
000000ffff000000
000000ffff000000
000000ffff000000
000000ffff000000
000000ffff000000
000000ffff000000
000000ffff000000
000000ffff000000
000000ffff000000
000000ffff000000
000000ffff000000
000000ffff000000
000000ffff000000
007ffffffffffe00
003ffffffffffe00
001ffffffffffc00
000ffffffffff800
0007fffffffff000
0003ffffffffe000
0001ffffffffc000
0000ffffffff8000
00007fffffff0000
00003ffffffe0000
00001ffffffc0000
00000ffffff80000
000007fffff00000
000003ffffe00000
000001ffffc00000
000000ffff800000
0000007fff000000
0000003ffe000000
0000001ffc000000
0000000ff8000000
00000007f0000000
00000003e0000000
00000001c0000000
0000000080000000
ENDCHAR
STARTCHAR /home/kraus/git/open-iconic/png/arrow-thick-left-8x.png
ENCODING 80
DWIDTH 64 0
BBX 64 64 0 0
BITMAP
0000000000000000
0000000000000000
0000000000000000
0000000000000000
0000000000000000
0000000000000000
0000000000000000
0000000000000000
0000000000000000
0000010000000000
0000030000000000
0000070000000000
00000f0000000000
00001f0000000000
00003f0000000000
00007f0000000000
0000ff0000000000
0001ff0000000000
0003ff0000000000
0007ff0000000000
000fff0000000000
001fff0000000000
003fff0000000000
007fff0000000000
00ffffffffffffff
01ffffffffffffff
03ffffffffffffff
07ffffffffffffff
0fffffffffffffff
1fffffffffffffff
3fffffffffffffff
7fffffffffffffff
ffffffffffffffff
7fffffffffffffff
3fffffffffffffff
1fffffffffffffff
0fffffffffffffff
07ffffffffffffff
03ffffffffffffff
01ffffffffffffff
00ffff0000000000
007fff0000000000
003fff0000000000
001fff0000000000
000fff0000000000
0007ff0000000000
0003ff0000000000
0001ff0000000000
0000ff0000000000
00007f0000000000
00003f0000000000
00001f0000000000
00000f0000000000
0000070000000000
0000030000000000
0000000000000000
0000000000000000
0000000000000000
0000000000000000
0000000000000000
0000000000000000
0000000000000000
0000000000000000
0000000000000000
ENDCHAR
STARTCHAR /home/kraus/git/open-iconic/png/arrow-thick-right-8x.png
ENCODING 81
DWIDTH 64 0
BBX 64 64 0 0
BITMAP
0000000000000000
0000000000000000
0000000000000000
0000000000000000
0000000000000000
0000000000000000
0000000000000000
0000000000000000
0000000000000000
0000000000c00000
0000000000e00000
0000000000f00000
0000000000f80000
0000000000fc0000
0000000000fe0000
0000000000ff0000
0000000000ff8000
0000000000ffc000
0000000000ffe000
0000000000fff000
0000000000fff800
0000000000fffc00
0000000000fffe00
0000000000ffff00
ffffffffffffff80
ffffffffffffffc0
ffffffffffffffe0
fffffffffffffff0
fffffffffffffff8
fffffffffffffffc
fffffffffffffffe
ffffffffffffffff
fffffffffffffffe
fffffffffffffffc
fffffffffffffff8
fffffffffffffff0
ffffffffffffffe0
ffffffffffffffc0
ffffffffffffff80
ffffffffffffff00
0000000000fffe00
0000000000fffc00
0000000000fff800
0000000000fff000
0000000000ffe000
0000000000ffc000
0000000000ff8000
0000000000ff0000
0000000000fe0000
0000000000fc0000
0000000000f80000
0000000000f00000
0000000000e00000
0000000000c00000
0000000000800000
0000000000000000
0000000000000000
0000000000000000
0000000000000000
0000000000000000
0000000000000000
0000000000000000
0000000000000000
0000000000000000
ENDCHAR
STARTCHAR /home/kraus/git/open-iconic/png/arrow-thick-top-8x.png
ENCODING 82
DWIDTH 64 0
BBX 64 64 0 0
BITMAP
0000000100000000
0000000380000000
00000007c0000000
0000000fe0000000
0000001ff0000000
0000003ff8000000
0000007ffc000000
000000fffe000000
000001ffff000000
000003ffff800000
000007ffffc00000
00000fffffe00000
00001ffffff00000
00003ffffff80000
00007ffffffc0000
0000fffffffe0000
0001ffffffff0000
0003ffffffff8000
0007ffffffffc000
000fffffffffe000
001ffffffffff000
003ffffffffff800
007ffffffffffc00
007ffffffffffe00
000000ffff000000
000000ffff000000
000000ffff000000
000000ffff000000
000000ffff000000
000000ffff000000
000000ffff000000
000000ffff000000
000000ffff000000
000000ffff000000
000000ffff000000
000000ffff000000
000000ffff000000
000000ffff000000
000000ffff000000
000000ffff000000
000000ffff000000
000000ffff000000
000000ffff000000
000000ffff000000
000000ffff000000
000000ffff000000
000000ffff000000
000000ffff000000
000000ffff000000
000000ffff000000
000000ffff000000
000000ffff000000
000000ffff000000
000000ffff000000
000000ffff000000
000000ffff000000
000000ffff000000
000000ffff000000
000000ffff000000
000000ffff000000
000000ffff000000
000000ffff000000
000000ffff000000
000000ffff000000
ENDCHAR
STARTCHAR /home/kraus/git/open-iconic/png/arrow-top-8x.png
ENCODING 83
DWIDTH 64 0
BBX 64 64 0 0
BITMAP
0000001000000000
0000001800000000
0000003c00000000
0000007e00000000
000000ff00000000
000001ff00000000
000003ff80000000
000003ffc0000000
000007ffe0000000
00000ffff0000000
00001ffff8000000
00003ffff8000000
00007ffffc000000
00007ffffe000000
0000ffffff000000
0001ffffff800000
0003ffffffc00000
0007ffffffe00000
0007ffffffe00000
000ffffffff00000
001ffffffff80000
003ffffffffc0000
007ffffffffe0000
00ffffffffff0000
000000ff00000000
000000ff00000000
000000ff00000000
000000ff00000000
000000ff00000000
000000ff00000000
000000ff00000000
000000ff00000000
000000ff00000000
000000ff00000000
000000ff00000000
000000ff00000000
000000ff00000000
000000ff00000000
000000ff00000000
000000ff00000000
000000ff00000000
000000ff00000000
000000ff00000000
000000ff00000000
000000ff00000000
000000ff00000000
000000ff00000000
000000ff00000000
000000ff00000000
000000ff00000000
000000ff00000000
000000ff00000000
000000ff00000000
000000ff00000000
000000ff00000000
000000ff00000000
000000ff00000000
000000ff00000000
000000ff00000000
000000ff00000000
000000ff00000000
000000ff00000000
000000ff00000000
000000ff00000000
ENDCHAR
STARTCHAR /home/kraus/git/open-iconic/png/audio-8x.png
ENCODING 84
DWIDTH 64 0
BBX 64 64 0 0
BITMAP
0000000000000000
0000000000000000
0000000000000000
0000000000000000
0000000000000000
0000000000000000
0000000000000000
0000000000000000
0040000000000200
00e0000000000700
01f0000000000f80
03f8000000001fc0
03fc000000003fc0
07fe000000007fe0
0ffc000000003ff0
0ff8000000001ff0
1ff8000000001ff8
1ff0000000000ff8
3fe00000000007fc
3fe00000000007fc
3fc00c00003003fc
7fc01e00007803fe
7f803f0000fc01fe
7f803f8001fc01fe
7f807fc003fe01fe
ff007fc003fe00ff
ff007f8001fe00ff
ff00ff8001ff00ff
ff00ff0000ff00ff
ff00ff0000ff00ff
ff00ff0000ff00ff
ff00ff0000ff00ff
ff00ff0000ff00ff
ff00ff8001ff00ff
ff007f8001fe00ff
ff807fc003fe00ff
7f807fc003fe01ff
7f803f8001fc01fe
7f803f0000fc01fe
7fc01e00007803fe
3fc01c00003803fe
3fe00800001007fc
3fe00000000007fc
1ff0000000000ff8
1ff8000000000ff8
0ff8000000001ff0
0ffc000000003ff0
07fe000000007fe0
07fc000000003fe0
03f8000000001fc0
01f0000000000f80
00e0000000000700
0040000000000300
0000000000000000
0000000000000000
0000000000000000
0000000000000000
0000000000000000
0000000000000000
0000000000000000
0000000000000000
0000000000000000
0000000000000000
0000000000000000
ENDCHAR
STARTCHAR /home/kraus/git/open-iconic/png/audio-spectrum-8x.png
ENCODING 85
DWIDTH 64 0
BBX 64 64 0 0
BITMAP
00000000ff000000
00000000ff000000
00000000ff000000
00000000ff000000
00000000ff000000
00000000ff000000
00000000ff000000
00000000ff000000
0000ff00ff000000
0000ff00ff000000
0000ff00ff000000
0000ff00ff000000
0000ff00ff000000
0000ff00ff000000
0000ff00ff000000
0000ff00ff000000
0000ff00ff00ff00
0000ff00ff00ff00
0000ff00ff00ff00
0000ff00ff00ff00
0000ff00ff00ff00
0000ff00ff00ff00
0000ff00ff00ff00
0000ff00ff00ff00
ff00ff00ff00ff00
ff00ff00ff00ff00
ff00ff00ff00ff00
ff00ff00ff00ff00
ff00ff00ff00ff00
ff00ff00ff00ff00
ff00ff00ff00ff00
ff00ff00ff00ff00
ff00ff00ff00ff00
ff00ff00ff00ff00
ff00ff00ff00ff00
ff00ff00ff00ff00
ff00ff00ff00ff00
ff00ff00ff00ff00
ff00ff00ff00ff00
ff00ff00ff00ff00
0000ff00ff00ff00
0000ff00ff00ff00
0000ff00ff00ff00
0000ff00ff00ff00
0000ff00ff00ff00
0000ff00ff00ff00
0000ff00ff00ff00
0000ff00ff00ff00
0000ff00ff000000
0000ff00ff000000
0000ff00ff000000
0000ff00ff000000
0000ff00ff000000
0000ff00ff000000
0000ff00ff000000
0000ff00ff000000
00000000ff000000
00000000ff000000
00000000ff000000
00000000ff000000
00000000ff000000
00000000ff000000
00000000ff000000
00000000ff000000
ENDCHAR
STARTCHAR /home/kraus/git/open-iconic/png/badge-8x.png
ENCODING 86
DWIDTH 64 0
BBX 64 64 0 0
BITMAP
0000000ff0000000
0000007ffe000000
000001ffff800000
000003ffffc00000
000007ffffe00000
00000ffffff00000
00001ffffff80000
00003ffffffc0000
00003ffffffc0000
00007ffffffe0000
00007ffffffe0000
00007ffffffe0000
0000ffffffff0000
0000ffffffff0000
0000ffffffff0000
0000ffffffff0000
0000ffffffff0000
0000ffffffff0000
0000ffffffff0000
0000ffffffff0000
00007ffffffe0000
00007ffffffe0000
00007ffffffe0000
00003ffffffc0000
00003ffffffc0000
00001ffffff80000
00000ffffff00000
000007ffffe00000
000003ffffc00000
000001ffff800000
0000007ffe000000
0000000ff0000000
0000000000000000
0000000000000000
0000000000000000
0000000000000000
0000000000000000
0000000000000000
0000000000000000
000000f00f000000
000000ffff000000
000000ffff000000
000000ffff000000
000000ffff000000
000000ffff000000
000000ffff000000
000000ffff000000
000000ffff000000
000000ffff000000
000000ffff000000
000000ffff000000
000000ffff000000
000000ffff000000
000000ffff000000
000000ffff000000
000000ffff000000
000000fe7f000000
000000fc3f000000
000000f81f000000
000000f00f000000
000000e007000000
000000c003000000
0000008001000000
0000000000000000
ENDCHAR
STARTCHAR /home/kraus/git/open-iconic/png/ban-8x.png
ENCODING 87
DWIDTH 64 0
BBX 64 64 0 0
BITMAP
0000003ffc000000
000003ffffc00000
00000ffffff00000
00007ffffffc0000
0000ffffffff0000
0003ffffffffc000
0007ffffffffe000
001ffffffffff800
003fffe007fffc00
007fff0000fffe00
00fff800001fff00
01fff0000007ff80
01ffc0000003ff80
03ff80000007ffc0
07ff0000000fffe0
07fe0000001fffe0
0ffc0000003ffff0
1ff80000007ffff0
1ff0000000ffeff8
1ff0000001ffc7f8
3fe0000003ff87fc
3fc0000007ff03fc
7fc000000ffe03fe
7fc000001ffc03fe
7f8000003ff801fe
7f8000007ff001fe
ff800000ffe001ff
ff000001ffc000ff
ff000003ff8000ff
ff000007ff0000ff
ff00000ffe0000ff
ff00001ffc0000ff
ff00003ff80000ff
ff00007ff00000ff
ff0000ffe00000ff
ff0001ffc00000ff
ff0003ff800000ff
ff8007ff000001ff
7f800ffe000001fe
7f801ffc000001fe
7fc03ff8000003fe
7fc07ff0000003fe
3fc0ffe0000003fc
3fe1ffc0000007fc
1fe3ff8000000ff8
1ff7ff0000000ff8
0ffffe0000001ff0
0ffffc0000003ff0
07fff80000007fe0
07fff0000000ffe0
03ffe0000001ffc0
01ffc0000003ff80
01ffe000000fff00
00fff800001fff00
007fff0000fffe00
003fffe007fffc00
001ffffffffff000
0007ffffffffe000
0003ffffffffc000
0000ffffffff0000
00003ffffffc0000
00000ffffff00000
000003ffffc00000
0000003ffc000000
ENDCHAR
STARTCHAR /home/kraus/git/open-iconic/png/bar-chart-8x.png
ENCODING 88
DWIDTH 64 0
BBX 64 64 0 0
BITMAP
ff00000000ffff00
ff00000000ffff00
ff00000000ffff00
ff00000000ffff00
ff00000000ffff00
ff00000000ffff00
ff00000000ffff00
ff00000000ffff00
ff00000000ffff00
ff00000000ffff00
ff00000000ffff00
ff00000000ffff00
ff00000000ffff00
ff00000000ffff00
ff00000000ffff00
ff00000000ffff00
ff00ffff00ffff00
ff00ffff00ffff00
ff00ffff00ffff00
ff00ffff00ffff00
ff00ffff00ffff00
ff00ffff00ffff00
ff00ffff00ffff00
ff00ffff00ffff00
ff00ffff00ffff00
ff00ffff00ffff00
ff00ffff00ffff00
ff00ffff00ffff00
ff00ffff00ffff00
ff00ffff00ffff00
ff00ffff00ffff00
ff00ffff00ffff00
ff00ffff00ffff00
ff00ffff00ffff00
ff00ffff00ffff00
ff00ffff00ffff00
ff00ffff00ffff00
ff00ffff00ffff00
ff00ffff00ffff00
ff00ffff00ffff00
ff00000000000000
ff00000000000000
ff00000000000000
ff00000000000000
ff00000000000000
ff00000000000000
ff00000000000000
ff00000000000000
ffffffffffffffff
ffffffffffffffff
ffffffffffffffff
ffffffffffffffff
ffffffffffffffff
ffffffffffffffff
ffffffffffffffff
ffffffffffffffff
0000000000000000
0000000000000000
0000000000000000
0000000000000000
0000000000000000
0000000000000000
0000000000000000
0000000000000000
ENDCHAR
STARTCHAR /home/kraus/git/open-iconic/png/basket-8x.png
ENCODING 89
DWIDTH 64 0
BBX 64 64 0 0
BITMAP
00000003c0000000
00000007e0000000
0000000ff0000000
0000001ff8000000
0000001ff8000000
0000003ffc000000
0000007ffe000000
000000ffff000000
000001ffff800000
000003ffffc00000
000003ffffc00000
000007fe7fe00000
00000ffc3ff00000
00001ff81ff80000
00003ff00ffc0000
00007ff00ffe0000
00007fe007ff0000
0000ffc003ff0000
0001ff8001ff8000
0003ff0000ffc000
0007fe00007fe000
000ffe00007ff000
000ffc00003ff800
001ff800001ff800
ffffffffffffffff
ffffffffffffffff
ffffffffffffffff
ffffffffffffffff
ffffffffffffffff
ffffffffffffffff
ffffffffffffffff
ffffffffffffffff
00ffffffffffff00
00ffffffffffff00
00ffffffffffff00
00ffffffffffff00
00ffffffffffff00
00ffffffffffff00
00ffffffffffff00
00ffffffffffff00
00ffc3ffffc3ff00
00ff81ffff81ff00
00ff00ffff00ff00
00ff00ffff00ff00
00ff00ffff00ff00
00ff00ffff00ff00
00ff00ffff00ff00
00ff00ffff00ff00
00ff00ffff00ff00
00ff00ffff00ff00
00ff00ffff00ff00
00ff00ffff00ff00
00ff00ffff00ff00
00ff00ffff00ff00
00ff81ffff81ff00
00ffc3ffffc3ff00
00ffffffffffff00
00ffffffffffff00
00ffffffffffff00
00ffffffffffff00
00ffffffffffff00
00ffffffffffff00
00ffffffffffff00
007ffffffffffe00
ENDCHAR
STARTCHAR /home/kraus/git/open-iconic/png/battery-empty-8x.png
ENCODING 90
DWIDTH 64 0
BBX 64 64 0 0
BITMAP
0000000000000000
0000000000000000
0000000000000000
0000000000000000
0000000000000000
0000000000000000
0000000000000000
0000000000000000
ffffffffffffff00
ffffffffffffff00
ffffffffffffff00
ffffffffffffff00
ffffffffffffff00
ffffffffffffff00
ffffffffffffff00
ffffffffffffff00
ff0000000000ff00
ff0000000000ff00
ff0000000000ff00
ff0000000000ff00
ff0000000000ff00
ff0000000000ff00
ff0000000000ff00
ff0000000000ff00
ff0000000000ffff
ff0000000000ffff
ff0000000000ffff
ff0000000000ffff
ff0000000000ffff
ff0000000000ffff
ff0000000000ffff
ff0000000000ffff
ff0000000000ffff
ff0000000000ffff
ff0000000000ffff
ff0000000000ffff
ff0000000000ffff
ff0000000000ffff
ff0000000000ffff
ff0000000000ffff
ff0000000000ff00
ff0000000000ff00
ff0000000000ff00
ff0000000000ff00
ff0000000000ff00
ff0000000000ff00
ff0000000000ff00
ff0000000000ff00
ffffffffffffff00
ffffffffffffff00
ffffffffffffff00
ffffffffffffff00
ffffffffffffff00
ffffffffffffff00
ffffffffffffff00
ffffffffffffff00
0000000000000000
0000000000000000
0000000000000000
0000000000000000
0000000000000000
0000000000000000
0000000000000000
0000000000000000
ENDCHAR
STARTCHAR /home/kraus/git/open-iconic/png/battery-full-8x.png
ENCODING 91
DWIDTH 64 0
BBX 64 64 0 0
BITMAP
0000000000000000
0000000000000000
0000000000000000
0000000000000000
0000000000000000
0000000000000000
0000000000000000
0000000000000000
ffffffffffffff00
ffffffffffffff00
ffffffffffffff00
ffffffffffffff00
ffffffffffffff00
ffffffffffffff00
ffffffffffffff00
ffffffffffffff00
ffffffffffffff00
ffffffffffffff00
ffffffffffffff00
ffffffffffffff00
ffffffffffffff00
ffffffffffffff00
ffffffffffffff00
ffffffffffffff00
ffffffffffffffff
ffffffffffffffff
ffffffffffffffff
ffffffffffffffff
ffffffffffffffff
ffffffffffffffff
ffffffffffffffff
ffffffffffffffff
ffffffffffffffff
ffffffffffffffff
ffffffffffffffff
ffffffffffffffff
ffffffffffffffff
ffffffffffffffff
ffffffffffffffff
ffffffffffffffff
ffffffffffffff00
ffffffffffffff00
ffffffffffffff00
ffffffffffffff00
ffffffffffffff00
ffffffffffffff00
ffffffffffffff00
ffffffffffffff00
ffffffffffffff00
ffffffffffffff00
ffffffffffffff00
ffffffffffffff00
ffffffffffffff00
ffffffffffffff00
ffffffffffffff00
ffffffffffffff00
0000000000000000
0000000000000000
0000000000000000
0000000000000000
0000000000000000
0000000000000000
0000000000000000
0000000000000000
ENDCHAR
STARTCHAR /home/kraus/git/open-iconic/png/beaker-8x.png
ENCODING 92
DWIDTH 64 0
BBX 64 64 0 0
BITMAP
007ffffffffffc00
00fffffffffffe00
00ffffffffffff00
01ffffffffffff00
01ffffffffffff00
00ffffffffffff00
00fffffffffffe00
007ffffffffffc00
0000ff0000ff0000
0000ff0000ff0000
0000ff0000ff0000
0000ff0000ff0000
0000ff0000ff0000
0000ff0000ff0000
0000ff0000ff0000
0000ff0000ff0000
0000ff0000ff0000
0000ff0000ff0000
0000ff0000ff0000
0000ff0000ff0000
0001ff0000ff8000
0001ff0000ff8000
0003fe00007fc000
0003fe00007fc000
0007fc00003fe000
0007fc00003fe000
000ff800001ff000
000ff800001ff000
001ff000000ff800
001fe000000ff800
003fe0000007fc00
003fc0000003fe00
007fc0000003fe00
00ff80000001ff00
00ff80000001ff00
01ff00000000ff80
01ff00000000ff80
03fe000000007fc0
03fe000000007fc0
07fc000000003fe0
07ffffffffffffe0
0ffffffffffffff0
0ffffffffffffff0
1ffffffffffffff8
3ffffffffffffffc
3ffffffffffffffc
7ffffffffffffffe
7ffffffffffffffe
7ffffffffffffffe
ffffffffffffffff
ffffffffffffffff
ffffffffffffffff
ffffffffffffffff
ffffffffffffffff
ffffffffffffffff
ffffffffffffffff
7ffffffffffffffe
7ffffffffffffffe
3ffffffffffffffc
3ffffffffffffffc
1ffffffffffffff8
0ffffffffffffff0
03ffffffffffffc0
00ffffffffffff00
ENDCHAR
STARTCHAR /home/kraus/git/open-iconic/png/bell-8x.png
ENCODING 93
DWIDTH 64 0
BBX 64 64 0 0
BITMAP
0000000ff0000000
0000007ffe000000
000001ffff800000
000003ffffc00000
000007ffffe00000
00000ffffff00000
00001ffffff80000
00003ffffffc0000
00003ffffffc0000
00007ffffffe0000
00007ffffffe0000
00007ffffffe0000
0000ffffffff0000
0000ffffffff0000
0000ffffffff0000
0000ffffffff0000
0000ffffffff0000
0000ffffffff0000
0000ffffffff0000
0000ffffffff0000
0000ffffffff0000
0001ffffffff8000
0001ffffffff8000
0001ffffffff8000
0003ffffffff8000
0003ffffffffc000
0003ffffffffc000
0007ffffffffe000
0007ffffffffe000
000ffffffffff000
001ffffffffff800
001ffffffffff800
003ffffffffffc00
007ffffffffffe00
00ffffffffffff00
01ffffffffffff80
03ffffffffffffc0
07ffffffffffffe0
0ffffffffffffff0
1ffffffffffffff8
3ffffffffffffffc
3ffffffffffffffc
7ffffffffffffffe
7ffffffffffffffe
ffffffffffffffff
ffffffffffffffff
ffffffffffffffff
ffffffffffffffff
0000000000000000
0000000000000000
0000000000000000
0000000000000000
0000000000000000
0000000000000000
0000000000000000
0000000000000000
000000ffff000000
000000ffff000000
000000ffff000000
0000007ffe000000
0000007ffe000000
0000003ffc000000
0000001ff8000000
00000007e0000000
ENDCHAR
STARTCHAR /home/kraus/git/open-iconic/png/bluetooth-8x.png
ENCODING 94
DWIDTH 64 0
BBX 64 64 0 0
BITMAP
00000f8000000000
00000fc000000000
00000fe000000000
00000ff800000000
00000ffc00000000
00000fff00000000
00000fff80000000
00000fffc0000000
00000ffff0000000
00000ffff8000000
00000ffffe000000
00000fffff000000
00000ff7ff800000
00000ff3ffe00000
00000ff0fff00000
00060ff07ffc0000
000f0ff01ffe0000
001f8ff00fff0000
003fcff003ffc000
007feff001ffe000
007ffff001ffe000
003ffff003ffc000
001ffff00fff0000
000ffff01ffe0000
0007fff07ff80000
0003fff0fff00000
0001fff3ffc00000
0000fff7ff000000
00007ffffe000000
00003ffff8000000
00001ffff0000000
00000fffc0000000
00000fffe0000000
00001ffff8000000
00003ffffc000000
00007fffff000000
0000fff7ff800000
0001fff3ffc00000
0003fff0fff00000
0007fff07ff80000
000ffff01ffe0000
001ffff00fff0000
003ffff003ffc000
007ffff001ffe000
007feff001ffe000
003fcff003ffc000
001f8ff00fff0000
000f0ff01ffe0000
00060ff07ffc0000
00000ff0fff00000
00000ff3ffe00000
00000ff7ff800000
00000fffff000000
00000ffffe000000
00000ffff8000000
00000ffff0000000
00000fffc0000000
00000fff80000000
00000fff00000000
00000ffc00000000
00000ff800000000
00000fe000000000
00000fc000000000
00000f8000000000
ENDCHAR
STARTCHAR /home/kraus/git/open-iconic/png/bold-8x.png
ENCODING 95
DWIDTH 64 0
BBX 64 64 0 0
BITMAP
fffffffffff00000
fffffffffffe0000
ffffffffffff8000
ffffffffffffc000
ffffffffffffe000
fffffffffffff000
fffffffffffff800
fffffffffffffc00
1fffff001ffffc00
07ffff0007fffe00
03ffff0003fffe00
01ffff0001fffe00
01ffff0001ffff00
00ffff0000ffff00
00ffff0000ffff00
00ffff0000ffff00
00ffff0000ffff00
00ffff0000ffff00
00ffff0000ffff00
00ffff0001ffff00
00ffff0001fffe00
00ffff0003fffe00
00ffff0007fffe00
00ffff001ffffc00
00fffffffffffc00
00fffffffffff800
00fffffffffff800
00fffffffffffe00
00ffffffffffff00
00ffffffffffffc0
00ffffffffffffe0
00fffffffffffff0
00ffff0001fffff0
00ffff00003ffff8
00ffff00001ffffc
00ffff00000ffffc
00ffff000007fffc
00ffff000003fffe
00ffff000001fffe
00ffff000001fffe
00ffff000001ffff
00ffff000000ffff
00ffff000000ffff
00ffff000000ffff
00ffff000000ffff
00ffff000000ffff
00ffff000000ffff
00ffff000001ffff
00ffff000001fffe
00ffff000001fffe
00ffff000003fffe
01ffff000007fffe
01ffff00000ffffc
03ffff00001ffffc
07ffff00003ffff8
1fffff0001fffff0
fffffffffffffff0
ffffffffffffffe0
ffffffffffffffc0
ffffffffffffff80
fffffffffffffe00
fffffffffffffc00
fffffffffffff000
ffffffffffff0000
ENDCHAR
STARTCHAR /home/kraus/git/open-iconic/png/bolt-8x.png
ENCODING 96
DWIDTH 64 0
BBX 64 64 0 0
BITMAP
0000000000000000
0000000100000000
0000000100000000
0000000300000000
0000000700000000
0000000700000000
0000000f00000000
0000000f00000000
0000001f00000000
0000003f00000000
0000003f00000000
0000007f00000000
0000007f00000000
000000ff00000000
000001ff00000000
000001ff00000000
000003ff00000000
000003ff00000000
000007ff00000000
00000fff00000000
00000fff00000000
00001fff00000000
00001fff00000000
00003fff00000000
00007fffffff0000
00007ffffffe0000
0000fffffffc0000
0000fffffffc0000
0001fffffff80000
0003fffffff80000
0003fffffff00000
0007ffffffe00000
0007ffffffe00000
000fffffffc00000
001fffffffc00000
001fffffff800000
003fffffff000000
003fffffff000000
007ffffffe000000
00fffffffe000000
000000fffc000000
000000fff8000000
000000fff8000000
000000fff0000000
000000fff0000000
000000ffe0000000
000000ffc0000000
000000ffc0000000
000000ff80000000
000000ff80000000
000000ff00000000
000000fe00000000
000000fe00000000
000000fc00000000
000000fc00000000
000000f800000000
000000f000000000
000000f000000000
000000e000000000
000000e000000000
000000c000000000
0000008000000000
0000008000000000
0000000000000000
ENDCHAR
STARTCHAR /home/kraus/git/open-iconic/png/book-8x.png
ENCODING 97
DWIDTH 64 0
BBX 64 64 0 0
BITMAP
03ffffff0000fc00
0fffffff0000fe00
3fffffff0000ff00
3fffffff0000ff00
7fffffff0000ff00
7fffffff0000ff00
ffffffff0000ff00
ffffffff0000ff00
ffffffff0000ff00
ffffffff0000ff00
ffffffff0000ff00
ffffffff0000ff00
ffffffff0000ff00
ffffffff0000ff00
ffffffff0000ff00
ffffffff0000ff00
ffffffff0000ff00
ffffffff0180ff00
ffffffff03c0ff00
ffffffff07e0ff00
ffffffff0ff0ff00
ffffffff1ff8ff00
ffffffff3ffcff00
ffffffff7ffeff00
ffffffffffffff00
ffffffffffffff00
ffffffffffffff00
ffffffffffffff00
ffffffffffffff00
ffffffffffffff00
ffffffffffffff00
ffffffffffffff00
ffffffffffffff00
ffffffffffffff00
ffffffffffffff00
ffffffffffffff00
ffffffffffffff00
ffffffffffffff00
ffffffffffffff00
ffffffffffffff00
ffffffffffffff00
ffffffffffffff00
ffffffffffffff00
ffffffffffffff00
ffffffffffffff00
ffffffffffffff00
ffffffffffffff00
ffffffffffffff00
ffc0000000000000
ff80000000000000
ff00000000000000
ff00000000000000
ff00000000000000
ff00000000000000
ff80000000000000
7fc0000000000000
7fffffffffffff00
7fffffffffffff00
3fffffffffffff00
1fffffffffffff00
0fffffffffffff00
07ffffffffffff00
03ffffffffffff00
007fffffffffff00
ENDCHAR
STARTCHAR /home/kraus/git/open-iconic/png/bookmark-8x.png
ENCODING 98
DWIDTH 64 0
BBX 64 64 0 0
BITMAP
0000ffffffff0000
0000ffffffff0000
0000ffffffff0000
0000ffffffff0000
0000ffffffff0000
0000ffffffff0000
0000ffffffff0000
0000ffffffff0000
0000ffffffff0000
0000ffffffff0000
0000ffffffff0000
0000ffffffff0000
0000ffffffff0000
0000ffffffff0000
0000ffffffff0000
0000ffffffff0000
0000ffffffff0000
0000ffffffff0000
0000ffffffff0000
0000ffffffff0000
0000ffffffff0000
0000ffffffff0000
0000ffffffff0000
0000ffffffff0000
0000ffffffff0000
0000ffffffff0000
0000ffffffff0000
0000ffffffff0000
0000ffffffff0000
0000ffffffff0000
0000ffffffff0000
0000ffffffff0000
0000ffffffff0000
0000ffffffff0000
0000ffffffff0000
0000ffffffff0000
0000ffffffff0000
0000ffffffff0000
0000ffffffff0000
0000ffffffff0000
0000ffffffff0000
0000ffffffff0000
0000ffffffff0000
0000ffffffff0000
0000ffffffff0000
0000ffffffff0000
0000ffffffff0000
0000ffffffff0000
0000fffe7fff0000
0000fffc3fff0000
0000fff81fff0000
0000fff00fff0000
0000ffe007ff0000
0000ffc003ff0000
0000ff8001ff0000
0000ff0000ff0000
0000fe00007f0000
0000fc00003f0000
0000f800001f0000
0000f000000f0000
0000e00000070000
0000c00000030000
0000800000010000
0000000000000000
ENDCHAR
STARTCHAR /home/kraus/git/open-iconic/png/box-8x.png
ENCODING 99
DWIDTH 64 0
BBX 64 64 0 0
BITMAP
ffffffffffffffff
ffffffffffffffff
ffffffffffffffff
ffffffffffffffff
ffffffffffffffff
ffffffffffffffff
ffffffffffffffff
ffffffffffffffff
0000000000000000
0000000000000000
0000000000000000
0000000000000000
0000000000000000
0000000000000000
0000000000000000
0000000000000000
ffffff0000ffffff
ffffff0000ffffff
ffffff0000ffffff
ffffff0000ffffff
ffffff0000ffffff
ffffff0000ffffff
ffffff0000ffffff
ffffff0000ffffff
ffffffffffffffff
ffffffffffffffff
ffffffffffffffff
ffffffffffffffff
ffffffffffffffff
ffffffffffffffff
ffffffffffffffff
ffffffffffffffff
ffffffffffffffff
ffffffffffffffff
ffffffffffffffff
ffffffffffffffff
ffffffffffffffff
ffffffffffffffff
ffffffffffffffff
ffffffffffffffff
ffffffffffffffff
ffffffffffffffff
ffffffffffffffff
ffffffffffffffff
ffffffffffffffff
ffffffffffffffff
ffffffffffffffff
ffffffffffffffff
ffffffffffffffff
ffffffffffffffff
ffffffffffffffff
ffffffffffffffff
ffffffffffffffff
ffffffffffffffff
ffffffffffffffff
ffffffffffffffff
ffffffffffffffff
ffffffffffffffff
ffffffffffffffff
ffffffffffffffff
ffffffffffffffff
ffffffffffffffff
ffffffffffffffff
ffffffffffffffff
ENDCHAR
STARTCHAR /home/kraus/git/open-iconic/png/briefcase-8x.png
ENCODING 100
DWIDTH 64 0
BBX 64 64 0 0
BITMAP
000007ffffe00000
00001ffffff80000
00003ffffffc0000
00007ffffffe0000
00007ffffffe0000
0000ffffffff0000
0000ffffffff0000
0000ffffffff0000
0000ff0000ff0000
0000ff0000ff0000
0000ff0000ff0000
0000ff0000ff0000
0000ff0000ff0000
0000ff0000ff0000
0000ff0000ff0000
0000ff0000ff0000
ffffffffffffffff
ffffffffffffffff
ffffffffffffffff
ffffffffffffffff
ffffffffffffffff
ffffffffffffffff
ffffffffffffffff
ffffffffffffffff
ffffffffffffffff
ffffffffffffffff
ffffffffffffffff
ffffffffffffffff
ffffffffffffffff
ffffffffffffffff
ffffffffffffffff
ffffffffffffffff
ffffffffffffffff
ffffffffffffffff
ffffffffffffffff
ffffffffffffffff
ffffffffffffffff
ffffffffffffffff
7ffffffffffffffe
3ffffffffffffffc
0000000000000000
0000000000000000
0000000000000000
0000000000000000
0000000000000000
0000000000000000
0000000000000000
8000000000000001
ffffffffffffffff
ffffffffffffffff
ffffffffffffffff
ffffffffffffffff
ffffffffffffffff
ffffffffffffffff
ffffffffffffffff
ffffffffffffffff
ffffffffffffffff
ffffffffffffffff
ffffffffffffffff
ffffffffffffffff
ffffffffffffffff
ffffffffffffffff
ffffffffffffffff
ffffffffffffffff
ENDCHAR
STARTCHAR /home/kraus/git/open-iconic/png/british-pound-8x.png
ENCODING 101
DWIDTH 64 0
BBX 64 64 0 0
BITMAP
0000000ff0000000
0000007fff000000
000001ffff800000
000003ffffe00000
000007fffff00000
00000ffffff80000
00001ffffff80000
00001ffffffc0000
00003ff81ffe0000
00003fe007fe0000
00007fc003fe0000
00007fc001fe0000
00007f8001ff0000
0000ff8000ff0000
0000ff0000ff0000
0000ff0000ff0000
0000ff0000000000
0000ff0000000000
0000ff0000000000
0000ff0000000000
0000ff0000000000
0000ff0000000000
0000ff0000000000
0000ff8000000000
00007f8000000000
00007f8000000000
00007f8000000000
00007f8000000000
00007fc000000000
00003fc000000000
00003fc000000000
00003fc000000000
00ffffffff000000
00ffffffff000000
00ffffffff000000
00ffffffff000000
00ffffffff000000
00ffffffff000000
00ffffffff000000
00ffffffff000000
00003fc000000000
00007f8000000000
00007f8000000000
00007f8000000000
0000ff0000000000
0001ff0000000000
0001fe0000000000
0003fe0000000000
0007fc0000000000
0007fc0000000000
000ff80000000000
001ff00000000000
003ff00000000000
007fe00000000000
00ffc00000000000
00ff800000000000
00ffffffffffff00
00ffffffffffff00
00ffffffffffff00
00ffffffffffff00
00ffffffffffff00
00ffffffffffff00
00ffffffffffff00
00ffffffffffff00
ENDCHAR
STARTCHAR /home/kraus/git/open-iconic/png/browser-8x.png
ENCODING 102
DWIDTH 64 0
BBX 64 64 0 0
BITMAP
3ffffffffffffffc
7ffffffffffffffe
ffffffffffffffff
ffffffffffffffff
ffffffffffffffff
ffffffffffffffff
ffffffffffffffff
ffffffffffffffff
ffc3ffc0000003ff
ff81ff80000001ff
ff00ff00000000ff
ff00ff00000000ff
ff00ff00000000ff
ff00ff00000000ff
ff81ff80000001ff
ffc3ffc0000003ff
ffffffffffffffff
ffffffffffffffff
ffffffffffffffff
ffffffffffffffff
ffffffffffffffff
ffffffffffffffff
ffffffffffffffff
ffffffffffffffff
ff000000000000ff
ff000000000000ff
ff000000000000ff
ff000000000000ff
ff000000000000ff
ff000000000000ff
ff000000000000ff
ff000000000000ff
ff000000000000ff
ff000000000000ff
ff000000000000ff
ff000000000000ff
ff000000000000ff
ff000000000000ff
ff000000000000ff
ff000000000000ff
ff000000000000ff
ff000000000000ff
ff000000000000ff
ff000000000000ff
ff000000000000ff
ff000000000000ff
ff000000000000ff
ff000000000000ff
ff000000000000ff
ff000000000000ff
ff000000000000ff
ff000000000000ff
ff000000000000ff
ff000000000000ff
ff000000000000ff
ff000000000000ff
ffffffffffffffff
ffffffffffffffff
ffffffffffffffff
ffffffffffffffff
ffffffffffffffff
ffffffffffffffff
7ffffffffffffffe
3ffffffffffffffc
ENDCHAR
STARTCHAR /home/kraus/git/open-iconic/png/brush-8x.png
ENCODING 103
DWIDTH 64 0
BBX 64 64 0 0
BITMAP
0000000000000010
0000000000000038
00000000000000fc
00000000000001fe
00000000000007ff
0000000000000ffe
0000000000001ffc
0000000000007ffc
000000000000fff8
000000000003fff0
000000000007fff0
00000000001fffe0
00000000003fffc0
00000000007fff80
0000000001ffff80
0000000003ffff00
000000000ffffe00
000000001ffffe00
000000003ffffc00
00000000fffff800
00000001fffff000
00000007fffff000
0000000fffffe000
0000000fffffc000
0000001fffffc000
0000000fffff8000
00000003ffff0000
00000000ffff0000
000000007ffe0000
000000003ffc0000
000000001ff80000
000000000ff80000
00003f8007f00000
0000ffe007e00000
0001fff003e00000
0003fff803c00000
0007fffc01000000
000ffffe00000000
000ffffe00000000
001fffff00000000
001fffff00000000
001fffff00000000
001fffff00000000
001fffff00000000
001fffff00000000
001fffff00000000
003fffff00000000
003ffffe00000000
003ffffe00000000
003ffffe00000000
007ffffe00000000
007ffffc00000000
00fffffc00000000
00fffff800000000
01fffff000000000
03fffff000000000
03ffffe000000000
07ffffc000000000
0fffff8000000000
1fffff0000000000
7ffffc0000000000
7ffff80000000000
1fffc00000000000
01fe000000000000
ENDCHAR
STARTCHAR /home/kraus/git/open-iconic/png/bug-8x.png
ENCODING 104
DWIDTH 64 0
BBX 64 64 0 0
BITMAP
0000007e00000000
000001ff80000000
000007ffe0000000
00000ffff0000000
00001ffff8000000
00001ffffc000000
00003ffffc000000
00007ffffe000000
00007ffffe000000
00007fffff000000
0000ffffff000000
0000ffffff000000
0000ffffff000000
0000ffffff000000
0000ffffff000000
0000ffffff000000
3c00ffffff003c00
7f007ffffe00fe00
ffc07ffffe03ff00
fff03ffffc0fff00
fffc3ffffc3fff00
ffffffffffffff00
7ffffffffffffe00
3ffffffffffffc00
0ffffffffffff000
03ffffffffffc000
007ffffffffe0000
001ffffffff80000
001ffffffff80000
001ffffffff80000
003ffffffffc0000
003ffffffffc0000
3fffffc3fffffc00
7fffff81fffffe00
ffffff00ffffff00
ffffff00ffffff00
ffffff00ffffff00
ffffff00ffffff00
7fffff00fffffe00
3fffff00fffffc00
00ffff00ffff0000
00ffff00ffff0000
00ffff00ffff0000
00ffff00ffff0000
00ffff00ffff0000
00ffff00ffff0000
03ffff00ffffc000
0fffff00fffff000
3fffff00fffffc00
7fffff00ffffff00
ffffff00ffffff00
ffffff00ffffff80
ffffff00ffffff80
ffdfff00fffbff80
ff0fff00fff0ff00
7c07ff00ffe03e00
0003ff00ffe00000
0003ff007fc00000
0001fe007f800000
0000fc003f000000
000038001c000000
0000000000000000
0000000000000000
0000000000000000
ENDCHAR
STARTCHAR /home/kraus/git/open-iconic/png/bullhorn-8x.png
ENCODING 105
DWIDTH 64 0
BBX 64 64 0 0
BITMAP
000000000000ff00
000000000000ff00
000000000000ff00
000000000000ff00
000000000100ff00
000000000700ff00
000000001f00ff00
000000007f00ff00
00000001ff00ff00
00000007ff00ff00
0000001fff00ff00
0000007fff00ff00
000001ffff00ff00
000007ffff00ff00
00001fffff00ff00
00007fffff00ff00
ffffffffff00ff00
ffffffffff00ff00
ffffffffff00ff00
ffffffffff00ff00
ffffffffff00ff00
ffffffffff00ff00
ffffffffff00ff00
ffffffffff00ff00
ffffffffff00ff00
ffffffffff00ff00
ffffffffff00ff00
ffffffffff00ff00
ffffffffff00ff00
ffffffffff00ff00
ffffffffff00ff00
ffffffffff00ff00
00ffffffff00ff00
007fffffff00ff00
007fe7ffff00ff00
007fc1ffff00ff00
003fc07fff00ff00
003fc01fff00ff00
003fe007ff00ff00
001fe001ff00ff00
001ff0007f00ff00
000ff0001f00ff00
000ff8000700ff00
000ff8000100ff00
0007f8000000ff00
0007fc000000ff00
0003fc000000ff00
0003fe000000ff00
0003fe0000000000
0001fe0000000000
0001ff0000000000
0001ff0000000000
0000ff0000000000
0000ff0000000000
00007e0000000000
00003c0000000000
0000000000000000
0000000000000000
0000000000000000
0000000000000000
0000000000000000
0000000000000000
0000000000000000
0000000000000000
ENDCHAR
STARTCHAR /home/kraus/git/open-iconic/png/calculator-8x.png
ENCODING 106
DWIDTH 64 0
BBX 64 64 0 0
BITMAP
ffffffffffffff00
ffffffffffffff00
ffffffffffffff00
ffffffffffffff00
ffffffffffffff00
ffffffffffffff00
ffffffffffffff00
ffffffffffffff00
ff0000000000ff00
ff0000000000ff00
ff0000000000ff00
ff0000000000ff00
ff0000000000ff00
ff0000000000ff00
ff0000000000ff00
ff0000000000ff00
ff0000000000ff00
ff0000000000ff00
ff0000000000ff00
ff0000000000ff00
ff0000000000ff00
ff0000000000ff00
ff0000000000ff00
ff0000000000ff00
ffffffffffffff00
ffffffffffffff00
ffffffffffffff00
ffffffffffffff00
ffffffffffffff00
ffffffffffffff00
ffffffffffffff00
ffffffffffffff00
ff00ff00ff00ff00
ff00ff00ff00ff00
ff00ff00ff00ff00
ff00ff00ff00ff00
ff00ff00ff00ff00
ff00ff00ff00ff00
ff00ff00ff00ff00
ff00ff00ff00ff00
ffffffffff00ff00
ffffffffff00ff00
ffffffffff00ff00
ffffffffff00ff00
ffffffffff00ff00
ffffffffff00ff00
ffffffffff00ff00
ffffffffff00ff00
ff00ff00ff00ff00
ff00ff00ff00ff00
ff00ff00ff00ff00
ff00ff00ff00ff00
ff00ff00ff00ff00
ff00ff00ff00ff00
ff00ff00ff00ff00
ff00ff00ff00ff00
ffffffffffffff00
ffffffffffffff00
ffffffffffffff00
ffffffffffffff00
ffffffffffffff00
ffffffffffffff00
ffffffffffffff00
ffffffffffffff00
ENDCHAR
STARTCHAR /home/kraus/git/open-iconic/png/calendar-8x.png
ENCODING 107
DWIDTH 64 0
BBX 64 64 0 0
BITMAP
ffffffffffffff00
ffffffffffffff00
ffffffffffffff00
ffffffffffffff00
ffffffffffffff00
ffffffffffffff00
ffffffffffffff00
ffffffffffffff00
ffffffffffffff00
ffffffffffffff00
ffffffffffffff00
ffffffffffffff00
ffffffffffffff00
ffffffffffffff00
ffffffffffffff00
ffffffffffffff00
0000000000000000
0000000000000000
0000000000000000
0000000000000000
0000000000000000
0000000000000000
0000000000000000
0000000000000000
ffffffffffffff00
ffffffffffffff00
ffffffffffffff00
ffffffffffffff00
ffffffffffffff00
ffffffffffffff00
ffffffffffffff00
ffffffffffffff00
ff00ff00ff00ff00
ff00ff00ff00ff00
ff00ff00ff00ff00
ff00ff00ff00ff00
ff00ff00ff00ff00
ff00ff00ff00ff00
ff00ff00ff00ff00
ff00ff00ff00ff00
ffffffffffffff00
ffffffffffffff00
ffffffffffffff00
ffffffffffffff00
ffffffffffffff00
ffffffffffffff00
ffffffffffffff00
ffffffffffffff00
ff00ff00ffffff00
ff00ff00ffffff00
ff00ff00ffffff00
ff00ff00ffffff00
ff00ff00ffffff00
ff00ff00ffffff00
ff00ff00ffffff00
ff00ff00ffffff00
ffffffffffffff00
ffffffffffffff00
ffffffffffffff00
ffffffffffffff00
ffffffffffffff00
ffffffffffffff00
ffffffffffffff00
ffffffffffffff00
ENDCHAR
STARTCHAR /home/kraus/git/open-iconic/png/camera-slr-8x.png
ENCODING 108
DWIDTH 64 0
BBX 64 64 0 0
BITMAP
00000000ffff0000
00000001ffff0000
00000001ffff8000
00000003ffff8000
00000003ffffc000
00000007ffffc000
00000007ffffe000
0000000fffffe000
0000000ffffff000
0000001ffffff800
0000001ffffff800
0000003ffffffc00
0000003ffffffc00
0000007ffffffe00
0000007ffffffe00
000000ffffffff00
00ffffffffffffff
03ffffffffffffff
0fffffffffffffff
1fffffffffffffff
3fffffffffffffff
3fffffffffffffff
7fffffffffffffff
7fffffffffffffff
ffc3fffff00fffff
ff81ffff8001ffff
ff00fffe00007fff
ff00fffc00003fff
ff00fff800001fff
ff00fff000000fff
ff81ffe0000007ff
ffc3ffc0000003ff
ffffffc007e003ff
ffffff801ff801ff
ffffff803ffc01ff
ffffff807ffe01ff
ffffff007ffe00ff
ffffff00ffff00ff
ffffff00ffff00ff
ffffff00ffff00ff
ffffff00ffff00ff
ffffff00ffff00ff
ffffff00ffff00ff
ffffff007ffe00ff
ffffff807ffe01ff
ffffff803ffc01ff
ffffff801ff801ff
ffffffc007e003ff
ffffffc0000003ff
ffffffe0000007ff
fffffff000000fff
fffffff800001fff
fffffffc00003fff
fffffffe00007fff
ffffffff8001ffff
fffffffff00fffff
ffffffffffffffff
ffffffffffffffff
ffffffffffffffff
ffffffffffffffff
ffffffffffffffff
ffffffffffffffff
ffffffffffffffff
ffffffffffffffff
ENDCHAR
STARTCHAR /home/kraus/git/open-iconic/png/caret-bottom-8x.png
ENCODING 109
DWIDTH 64 0
BBX 64 64 0 0
BITMAP
0000000000000000
0000000000000000
0000000000000000
0000000000000000
0000000000000000
0000000000000000
0000000000000000
0000000000000000
0000000000000000
0000000000000000
0000000000000000
0000000000000000
0000000000000000
0000000000000000
0000000000000000
0000000000000000
7ffffffffffffffe
3ffffffffffffffc
1ffffffffffffff8
0ffffffffffffff0
07ffffffffffffe0
03ffffffffffffc0
01ffffffffffff80
00ffffffffffff00
007ffffffffffe00
003ffffffffffc00
001ffffffffff800
000ffffffffff000
0007ffffffffe000
0003ffffffffc000
0001ffffffff8000
0000ffffffff0000
00007ffffffe0000
00003ffffffc0000
00001ffffff80000
00000ffffff00000
000007ffffe00000
000003ffffc00000
000001ffff800000
000000ffff000000
0000007ffe000000
0000003ffc000000
0000001ff8000000
0000000ff0000000
00000007e0000000
00000003c0000000
0000000180000000
0000000000000000
0000000000000000
0000000000000000
0000000000000000
0000000000000000
0000000000000000
0000000000000000
0000000000000000
0000000000000000
0000000000000000
0000000000000000
0000000000000000
0000000000000000
0000000000000000
0000000000000000
0000000000000000
0000000000000000
ENDCHAR
STARTCHAR /home/kraus/git/open-iconic/png/caret-left-8x.png
ENCODING 110
DWIDTH 64 0
BBX 64 64 0 0
BITMAP
0000000000000000
0000000000010000
0000000000030000
0000000000070000
00000000000f0000
00000000001f0000
00000000003f0000
00000000007f0000
0000000000ff0000
0000000001ff0000
0000000003ff0000
0000000007ff0000
000000000fff0000
000000001fff0000
000000003fff0000
000000007fff0000
00000000ffff0000
00000001ffff0000
00000003ffff0000
00000007ffff0000
0000000fffff0000
0000001fffff0000
0000003fffff0000
0000007fffff0000
000000ffffff0000
000001ffffff0000
000003ffffff0000
000007ffffff0000
00000fffffff0000
00001fffffff0000
00003fffffff0000
00007fffffff0000
00007fffffff0000
00003fffffff0000
00001fffffff0000
00000fffffff0000
000007ffffff0000
000003ffffff0000
000001ffffff0000
000000ffffff0000
0000007fffff0000
0000003fffff0000
0000001fffff0000
0000000fffff0000
00000007ffff0000
00000003ffff0000
00000001ffff0000
00000000ffff0000
000000007fff0000
000000003fff0000
000000001fff0000
000000000fff0000
0000000007ff0000
0000000003ff0000
0000000001ff0000
0000000000ff0000
00000000007f0000
00000000003f0000
00000000001f0000
00000000000f0000
0000000000070000
0000000000030000
0000000000010000
0000000000000000
ENDCHAR
STARTCHAR /home/kraus/git/open-iconic/png/caret-right-8x.png
ENCODING 111
DWIDTH 64 0
BBX 64 64 0 0
BITMAP
0000000000000000
0000800000000000
0000c00000000000
0000e00000000000
0000f00000000000
0000f80000000000
0000fc0000000000
0000fe0000000000
0000ff0000000000
0000ff8000000000
0000ffc000000000
0000ffe000000000
0000fff000000000
0000fff800000000
0000fffc00000000
0000fffe00000000
0000ffff00000000
0000ffff80000000
0000ffffc0000000
0000ffffe0000000
0000fffff0000000
0000fffff8000000
0000fffffc000000
0000fffffe000000
0000ffffff000000
0000ffffff800000
0000ffffffc00000
0000ffffffe00000
0000fffffff00000
0000fffffff80000
0000fffffffc0000
0000fffffffe0000
0000fffffffe0000
0000fffffffc0000
0000fffffff80000
0000fffffff00000
0000ffffffe00000
0000ffffffc00000
0000ffffff800000
0000ffffff000000
0000fffffe000000
0000fffffc000000
0000fffff8000000
0000fffff0000000
0000ffffe0000000
0000ffffc0000000
0000ffff80000000
0000ffff00000000
0000fffe00000000
0000fffc00000000
0000fff800000000
0000fff000000000
0000ffe000000000
0000ffc000000000
0000ff8000000000
0000ff0000000000
0000fe0000000000
0000fc0000000000
0000f80000000000
0000f00000000000
0000e00000000000
0000c00000000000
0000800000000000
0000000000000000
ENDCHAR
STARTCHAR /home/kraus/git/open-iconic/png/caret-top-8x.png
ENCODING 112
DWIDTH 64 0
BBX 64 64 0 0
BITMAP
0000000000000000
0000000000000000
0000000000000000
0000000000000000
0000000000000000
0000000000000000
0000000000000000
0000000000000000
0000000000000000
0000000000000000
0000000000000000
0000000000000000
0000000000000000
0000000000000000
0000000000000000
0000000000000000
0000000000000000
0000000180000000
00000003c0000000
00000007e0000000
0000000ff0000000
0000001ff8000000
0000003ffc000000
0000007ffe000000
000000ffff000000
000001ffff800000
000003ffffc00000
000007ffffe00000
00000ffffff00000
00001ffffff80000
00003ffffffc0000
00007ffffffe0000
0000ffffffff0000
0001ffffffff8000
0003ffffffffc000
0007ffffffffe000
000ffffffffff000
001ffffffffff800
003ffffffffffc00
007ffffffffffe00
00ffffffffffff00
01ffffffffffff80
03ffffffffffffc0
07ffffffffffffe0
0ffffffffffffff0
1ffffffffffffff8
3ffffffffffffffc
7ffffffffffffffe
0000000000000000
0000000000000000
0000000000000000
0000000000000000
0000000000000000
0000000000000000
0000000000000000
0000000000000000
0000000000000000
0000000000000000
0000000000000000
0000000000000000
0000000000000000
0000000000000000
0000000000000000
0000000000000000
ENDCHAR
STARTCHAR /home/kraus/git/open-iconic/png/cart-8x.png
ENCODING 113
DWIDTH 64 0
BBX 64 64 0 0
BITMAP
0000000000000000
0000000000000000
0000000000000000
0000000000000000
0000000000000000
0000000000000000
0000000000000000
0000000000000000
7ffffc0000000000
fffffe0000000000
fffffe0000000000
ffffff0000000000
ffffff8000000000
ffffff8000000000
ffffffc000000000
7fffffc000000000
0000fffffffffffe
00007ffffffffffe
00007ffffffffffe
00007ffffffffffe
00003ffffffffffc
00003ffffffffffc
00003ffffffffffc
00001ffffffffff8
00001ffffffffff8
00001ffffffffff8
00000ffffffffff0
00000ffffffffff0
00000ffffffffff0
00000fffffffffe0
000007ffffffffe0
000007ffffffffe0
000007ffffffffc0
000003ffffffffc0
000003ffffffffc0
000003ffffffffc0
000001ffffffff80
000001ffffffff80
000000ffffffff00
0000007ffffffe00
0000000000000000
0000000000000000
0000000000000000
0000000000000000
0000000000000000
0000000000000000
0000000000000000
0000000000000000
0000003c00003c00
0000007e00007e00
000000ff0000ff00
000000ff0000ff00
000000ff0000ff00
000000ff0000ff00
0000007e00007e00
0000003c00003c00
0000000000000000
0000000000000000
0000000000000000
0000000000000000
0000000000000000
0000000000000000
0000000000000000
0000000000000000
ENDCHAR
STARTCHAR /home/kraus/git/open-iconic/png/chat-8x.png
ENCODING 114
DWIDTH 64 0
BBX 64 64 0 0
BITMAP
ffffffffff000000
ffffffffff000000
ffffffffff000000
ffffffffff000000
ffffffffff000000
ffffffffff000000
ffffffffff000000
ffffffffff000000
ffff000000000000
ffff000000000000
ffff000000000000
ffff000000000000
ffff000000000000
ffff000000000000
ffff000000000000
ffff000000000000
ffff00ffffffffff
ffff00ffffffffff
ffff00ffffffffff
ffff00ffffffffff
ffff00ffffffffff
ffff00ffffffffff
ffff00ffffffffff
ffff00ffffffffff
ffff00ffffffffff
ffff00ffffffffff
ffff00ffffffffff
ffff00ffffffffff
ffff00ffffffffff
ffff00ffffffffff
ffff00ffffffffff
ffff00ffffffffff
fe0000ffffffffff
fc0000ffffffffff
f80000ffffffffff
f00000ffffffffff
e00000ffffffffff
c00000ffffffffff
800000ffffffffff
000000ffffffffff
000000ffffffffff
000000ffffffffff
000000ffffffffff
000000ffffffffff
000000ffffffffff
000000ffffffffff
000000ffffffffff
000000ffffffffff
000000000000007f
000000000000003f
000000000000001f
000000000000000f
0000000000000007
0000000000000003
0000000000000001
0000000000000000
0000000000000000
0000000000000000
0000000000000000
0000000000000000
0000000000000000
0000000000000000
0000000000000000
0000000000000000
ENDCHAR
STARTCHAR /home/kraus/git/open-iconic/png/check-8x.png
ENCODING 115
DWIDTH 64 0
BBX 64 64 0 0
BITMAP
0000000000000000
0000000000000000
0000000000000000
0000000000000000
0000000000000000
0000000000000000
0000000000000000
0000000000000000
0000000000001000
0000000000003800
0000000000007c00
000000000000fe00
000000000001ff00
000000000003ff80
000000000007ffc0
00000000000fffe0
00000000001ffff0
00000000003ffff8
00000000007ffffc
0000000000fffffc
0000000001fffffc
0000000003fffff8
0000000007fffff0
000000000fffffe0
001000001fffffc0
003800003fffff80
007c00007fffff00
00fe0000fffffe00
01ff0001fffffc00
03ff8003fffff800
07ffc007fffff000
0fffe00fffffe000
1ffff01fffffc000
3ffff83fffff8000
7ffffc7fffff0000
fffffefffffe0000
7ffffffffffc0000
3ffffffffff80000
1ffffffffff00000
0fffffffffe00000
07ffffffffc00000
03ffffffff800000
01ffffffff000000
00fffffffe000000
007ffffffc000000
003ffffff8000000
001ffffff0000000
000fffffe0000000
0007ffffc0000000
0003ffff80000000
0001ffff00000000
0000fffe00000000
00007ffc00000000
00003ff800000000
00001ff000000000
00000fe000000000
000007c000000000
0000038000000000
0000000000000000
0000000000000000
0000000000000000
0000000000000000
0000000000000000
0000000000000000
ENDCHAR
STARTCHAR /home/kraus/git/open-iconic/png/chevron-bottom-8x.png
ENCODING 116
DWIDTH 64 0
BBX 64 64 0 0
BITMAP
0000000000000000
0000000000000000
0000000000000000
0000000000000000
0000000000000000
0000000000000000
0000000000000000
0000000000000000
0000000000000000
0018000000001800
003c000000003c00
007e000000007e00
00ff00000000ff00
01ff80000001ff80
03ffc0000003ffc0
07ffe0000007ffe0
0ffff000000ffff0
1ffff800001ffff8
3ffffc00003ffffc
7ffffe00007ffffe
7fffff0000fffffe
3fffff8001fffffc
1fffffc003fffff8
0fffffe007fffff0
07fffff00fffffe0
03fffff81fffffc0
01fffffc3fffff80
00fffffe7fffff00
007ffffffffffe00
003ffffffffffc00
001ffffffffff800
000ffffffffff000
0007ffffffffe000
0003ffffffffc000
0001ffffffff8000
0000ffffffff0000
00007ffffffe0000
00003ffffffc0000
00001ffffff80000
00000ffffff00000
000007ffffe00000
000003ffffc00000
000001ffff800000
000000ffff000000
0000007ffe000000
0000003ffc000000
0000001ff8000000
0000000ff0000000
00000007e0000000
00000003c0000000
0000000180000000
0000000000000000
0000000000000000
0000000000000000
0000000000000000
0000000000000000
0000000000000000
0000000000000000
0000000000000000
0000000000000000
0000000000000000
0000000000000000
0000000000000000
0000000000000000
ENDCHAR
STARTCHAR /home/kraus/git/open-iconic/png/chevron-left-8x.png
ENCODING 117
DWIDTH 64 0
BBX 64 64 0 0
BITMAP
0000000000000000
0000000001800000
0000000003c00000
0000000007e00000
000000000ff00000
000000001ff80000
000000003ffc0000
000000007ffe0000
00000000ffff0000
00000001ffff8000
00000003ffffc000
00000007ffffe000
0000000fffffe000
0000001fffffc000
0000003fffff8000
0000007fffff0000
000000fffffe0000
000001fffffc0000
000003fffff80000
000007fffff00000
00000fffffe00000
00001fffffc00000
00003fffff800000
00007fffff000000
0000fffffe000000
0001fffffc000000
0003fffff8000000
0007fffff0000000
000fffffe0000000
001fffffc0000000
003fffff80000000
007fffff00000000
007fffff00000000
003fffff80000000
001fffffc0000000
000fffffe0000000
0007fffff0000000
0003fffff8000000
0001fffffc000000
0000fffffe000000
00007fffff000000
00003fffff800000
00001fffffc00000
00000fffffe00000
000007fffff00000
000003fffff80000
000001fffffc0000
000000fffffe0000
0000007fffff0000
0000003fffff8000
0000001fffffc000
0000000fffffe000
00000007ffffe000
00000003ffffc000
00000001ffff8000
00000000ffff0000
000000007ffe0000
000000003ffc0000
000000001ff80000
000000000ff00000
0000000007e00000
0000000003c00000
0000000001800000
0000000000000000
ENDCHAR
STARTCHAR /home/kraus/git/open-iconic/png/chevron-right-8x.png
ENCODING 118
DWIDTH 64 0
BBX 64 64 0 0
BITMAP
0000000000000000
0000180000000000
00003c0000000000
00007e0000000000
0000ff0000000000
0001ff8000000000
0003ffc000000000
0007ffe000000000
000ffff000000000
001ffff800000000
003ffffc00000000
007ffffe00000000
007fffff00000000
003fffff80000000
001fffffc0000000
000fffffe0000000
0007fffff0000000
0003fffff8000000
0001fffffc000000
0000fffffe000000
00007fffff000000
00003fffff800000
00001fffffc00000
00000fffffe00000
000007fffff00000
000003fffff80000
000001fffffc0000
000000fffffe0000
0000007fffff0000
0000003fffff8000
0000001fffffc000
0000000fffffe000
0000000fffffe000
0000001fffffc000
0000003fffff8000
0000007fffff0000
000000fffffe0000
000001fffffc0000
000003fffff80000
000007fffff00000
00000fffffe00000
00001fffffc00000
00003fffff800000
00007fffff000000
0000fffffe000000
0001fffffc000000
0003fffff8000000
0007fffff0000000
000fffffe0000000
001fffffc0000000
003fffff80000000
007fffff00000000
007ffffe00000000
003ffffc00000000
001ffff800000000
000ffff000000000
0007ffe000000000
0003ffc000000000
0001ff8000000000
0000ff0000000000
00007e0000000000
00003c0000000000
0000180000000000
0000000000000000
ENDCHAR
STARTCHAR /home/kraus/git/open-iconic/png/chevron-top-8x.png
ENCODING 119
DWIDTH 64 0
BBX 64 64 0 0
BITMAP
0000000000000000
0000000000000000
0000000000000000
0000000000000000
0000000000000000
0000000000000000
0000000000000000
0000000000000000
0000000000000000
0000000180000000
00000003c0000000
00000007e0000000
0000000ff0000000
0000001ff8000000
0000003ffc000000
0000007ffe000000
000000ffff000000
000001ffff800000
000003ffffc00000
000007ffffe00000
00000ffffff00000
00001ffffff80000
00003ffffffc0000
00007ffffffe0000
0000ffffffff0000
0001ffffffff8000
0003ffffffffc000
0007ffffffffe000
000ffffffffff000
001ffffffffff800
003ffffffffffc00
007ffffffffffe00
00fffffe7fffff00
01fffffc3fffff80
03fffff81fffffc0
07fffff00fffffe0
0fffffe007fffff0
1fffffc003fffff8
3fffff8001fffffc
7fffff0000fffffe
7ffffe00007ffffe
3ffffc00003ffffc
1ffff800001ffff8
0ffff000000ffff0
07ffe0000007ffe0
03ffc0000003ffc0
01ff80000001ff80
00ff00000000ff00
007e000000007e00
003c000000003c00
0018000000001800
0000000000000000
0000000000000000
0000000000000000
0000000000000000
0000000000000000
0000000000000000
0000000000000000
0000000000000000
0000000000000000
0000000000000000
0000000000000000
0000000000000000
0000000000000000
ENDCHAR
STARTCHAR /home/kraus/git/open-iconic/png/circle-check-8x.png
ENCODING 120
DWIDTH 64 0
BBX 64 64 0 0
BITMAP
0000003ffc000000
000003ffffc00000
00000ffffff00000
00007ffffffe0000
0000ffffffff0000
0003ffffffffc000
0007ffffffffe000
001ffffffffff800
003ffffffffffc00
007ffffffffffe00
00ffffffffffff00
01ffffffffffff80
01ffffffffffff80
03ffffffffffffc0
07ffffffffffffe0
07fffffffffe7fe0
0ffffffffffc3ff0
1ffffffffff81ff8
1ffffffffff00ff8
1fffffffffe007f8
3fffffffffc007fc
3fffffffff800ffc
7fffffffff001ffe
7ffffffffe003ffe
7ffffffffc007ffe
7ffffffff800fffe
fffffffff001ffff
ffffe7ffe003ffff
ffffc3ffc007ffff
ffff81ff800fffff
ffff00ff001fffff
fffe007e003fffff
fffe003c007fffff
ffff001800ffffff
ffff800001ffffff
ffffc00003ffffff
ffffe00007ffffff
fffff0000fffffff
7ffff8001ffffffe
7ffffc003ffffffe
7ffffe007ffffffe
7fffff00fffffffe
3fffff81fffffffc
3fffffc3fffffffc
1fffffe7fffffff8
1ffffffffffffff8
1ffffffffffffff8
0ffffffffffffff0
07ffffffffffffe0
07ffffffffffffe0
03ffffffffffffc0
01ffffffffffff80
01ffffffffffff80
00ffffffffffff00
007ffffffffffe00
003ffffffffffc00
001ffffffffff800
0007ffffffffe000
0003ffffffffc000
0000ffffffff0000
00007ffffffe0000
00000ffffff00000
000003ffffc00000
0000003ffc000000
ENDCHAR
STARTCHAR /home/kraus/git/open-iconic/png/circle-x-8x.png
ENCODING 121
DWIDTH 64 0
BBX 64 64 0 0
BITMAP
0000003ffc000000
000003ffffc00000
00000ffffff00000
00007ffffffe0000
0000ffffffff0000
0003ffffffffc000
0007ffffffffe000
001ffffffffff800
003ffffffffffc00
007ffffffffffe00
00ffffffffffff00
01ffffffffffff80
01ffffffffffff80
03ffffffffffffc0
07ffffffffffffe0
07ffe7ffffe7ffe0
0fffc3ffffc3fff0
1fff81ffff81fff8
1fff00ffff00fff8
1ffe007ffe007ff8
3ffe003ffc007ffc
3fff001ff800fffc
7fff800ff001fffe
7fffc007e003fffe
7fffe003c007fffe
7ffff001800ffffe
fffff800001fffff
fffffc00003fffff
fffffe00007fffff
ffffff0000ffffff
ffffff8001ffffff
ffffffc003ffffff
ffffffc003ffffff
ffffff8001ffffff
ffffff0000ffffff
fffffe00007fffff
fffffc00003fffff
fffff800001fffff
7ffff001800ffffe
7fffe003c007fffe
7fffc007e003fffe
7fff800ff001fffe
3fff001ff800fffc
3ffe003ffc007ffc
1ffe007ffe007ff8
1fff00ffff00fff8
1fff81ffff81fff8
0fffc3ffffc3fff0
07ffe7ffffe7ffe0
07ffffffffffffe0
03ffffffffffffc0
01ffffffffffff80
01ffffffffffff80
00ffffffffffff00
007ffffffffffe00
003ffffffffffc00
001ffffffffff800
0007ffffffffe000
0003ffffffffc000
0000ffffffff0000
00007ffffffe0000
00000ffffff00000
000003ffffc00000
0000003ffc000000
ENDCHAR
STARTCHAR /home/kraus/git/open-iconic/png/clipboard-8x.png
ENCODING 122
DWIDTH 64 0
BBX 64 64 0 0
BITMAP
0000003c00000000
0000007e00000000
000000ff00000000
000000ff00000000
000000ff00000000
000000ff00000000
000000ff00000000
000000ff00000000
7f007ffffe00fe00
ff00ffffff00ff00
ff00ffffff00ff00
ff00ffffff00ff00
ff00ffffff00ff00
ff00ffffff00ff00
ff00ffffff00ff00
ff00ffffff00ff00
ff0000000000ff00
ff0000000000ff00
ff0000000000ff00
ff0000000000ff00
ff0000000000ff00
ff0000000000ff00
ff0000000000ff00
ff0000000000ff00
ffffffffffffff00
ffffffffffffff00
ffffffffffffff00
ffffffffffffff00
ffffffffffffff00
ffffffffffffff00
ffffffffffffff00
ffffffffffffff00
ffffffffffffff00
ffffffffffffff00
ffffffffffffff00
ffffffffffffff00
ffffffffffffff00
ffffffffffffff00
ffffffffffffff00
ffffffffffffff00
ffffffffffffff00
ffffffffffffff00
ffffffffffffff00
ffffffffffffff00
ffffffffffffff00
ffffffffffffff00
ffffffffffffff00
ffffffffffffff00
ffffffffffffff00
ffffffffffffff00
ffffffffffffff00
ffffffffffffff00
ffffffffffffff00
ffffffffffffff00
ffffffffffffff00
ffffffffffffff00
ffffffffffffff00
ffffffffffffff00
ffffffffffffff00
ffffffffffffff00
ffffffffffffff00
ffffffffffffff00
ffffffffffffff00
7ffffffffffffe00
ENDCHAR
STARTCHAR /home/kraus/git/open-iconic/png/clock-8x.png
ENCODING 123
DWIDTH 64 0
BBX 64 64 0 0
BITMAP
0000003ffc000000
000003ffffc00000
00000ffffff00000
00007ffffffc0000
0000ffffffff0000
0003ffffffffc000
0007ffffffffe000
001ffffffffff800
003fffe007fffc00
007fff0000fffe00
00fff800001fff00
01fff000000fff80
01ffc0000003ff80
03ff80000001ffc0
07ff00000000ffe0
07fe000000007fe0
0ffc000ff0003ff0
1ff8000ff0001ff0
1ff0000ff0000ff8
1ff0000ff0000ff8
3fe0000ff00007fc
3fc0000ff00003fc
7fc0000ff00003fe
7fc0000ff00003fe
7f80000ff00001fe
7f80000ff00001fe
ff80000ff00001ff
ff00000ff00000ff
ff00000ff00000ff
ff00000ff00000ff
ff00000ff00000ff
ff00000ff80000ff
ff00000ffc0000ff
ff00000ffe0000ff
ff000007ff0000ff
ff000003ff8000ff
ff000001ff8000ff
ff800000ff0001ff
7f8000007e0001fe
7f8000003c0001fe
7fc00000180003fe
7fc00000000003fe
3fc00000000003fc
3fe00000000007fc
1ff0000000000ff8
1ff0000000000ff8
0ff8000000001ff0
0ffc000000003ff0
07fe000000007fe0
07ff00000000ffe0
03ff80000001ffc0
01ffc0000003ff80
01fff000000fff00
00fff800001fff00
007fff0000fffe00
003fffe007fffc00
001ffffffffff000
0007ffffffffe000
0003ffffffffc000
0000ffffffff0000
00003ffffffc0000
00000ffffff00000
000003ffffc00000
0000003ffc000000
ENDCHAR
STARTCHAR /home/kraus/git/open-iconic/png/cloud-8x.png
ENCODING 124
DWIDTH 64 0
BBX 64 64 0 0
BITMAP
0000000000000000
0000000000000000
0000000000000000
0000000000000000
0000000000000000
0000000000000000
0000000000000000
0000000000000000
00000000ff000000
0000000ffff00000
0000003ffffc0000
0000007ffffe0000
000001ffffff8000
000003ffffffc000
000007ffffffe000
00000ffffffff000
00001ffffffff000
00001ffffffff800
00003ffffffffc00
00003ffffffffc00
00007ffffffffe00
00007ffffffffe00
0000fffffffffe00
0000fffffffffe00
000fffffffffff00
007fffffffffff00
01ffffffffffff00
03ffffffffffff00
07ffffffffffff00
0fffffffffffff00
1fffffffffffff00
3fffffffffffff00
3fffffffffffff80
7fffffffffffffe0
7ffffffffffffff0
7ffffffffffffff8
fffffffffffffffc
fffffffffffffffc
fffffffffffffffe
fffffffffffffffe
fffffffffffffffe
ffffffffffffffff
ffffffffffffffff
ffffffffffffffff
7fffffffffffffff
7fffffffffffffff
7fffffffffffffff
3ffffffffffffffe
3ffffffffffffffe
1ffffffffffffffe
0ffffffffffffffc
07fffffffffffff8
03fffffffffffff0
01ffffffffffffe0
007fffffffffffc0
000ffffffffffe00
0000000000000000
0000000000000000
0000000000000000
0000000000000000
0000000000000000
0000000000000000
0000000000000000
0000000000000000
ENDCHAR
STARTCHAR /home/kraus/git/open-iconic/png/cloud-download-8x.png
ENCODING 125
DWIDTH 64 0
BBX 64 64 0 0
BITMAP
00000000ff000000
0000000ffff00000
0000003ffffc0000
0000007ffffe0000
000001ffffff8000
000003ffffffc000
000007ffffffe000
00000ffffffff000
00001ffffffff000
00001ffffffff800
00003ffffffffc00
00003ffffffffc00
00007ffffffffe00
00007ffffffffe00
0000fffffffffe00
0000fffffffffe00
000fffffffffff00
007fffffffffff00
01ffffffffffff00
03ffffffffffff00
07ffffffffffff00
0fffffffffffff00
1fffffffffffff00
3fffffffffffff00
3fffffff81ffff80
7ffffffc003fffe0
7ffffff8001ffff0
7ffffff0000ffff8
ffffffe00007fffc
ffffffc00003fffc
ffffff800001fffe
ffffff800001fffe
ffffff803c01fffe
ffffff007e00ffff
ffffff00ff00ffff
ffffff00ff00ffff
7fffff00ff00ffff
7fffff00ff00ffff
7fffff00ff00ffff
3fffff00ff00fffe
00000000ff000000
00000000ff000000
00000000ff000000
00000000ff000000
00000000ff000000
00000000ff000000
00000000ff000000
00000000ff000000
000007ffffffe000
000003ffffffc000
000001ffffff8000
000000ffffff0000
0000007ffffe0000
0000003ffffc0000
0000001ffff80000
0000000ffff00000
00000007ffe00000
00000003ffc00000
00000001ff800000
00000000ff000000
000000007e000000
000000003c000000
0000000018000000
0000000000000000
ENDCHAR
STARTCHAR /home/kraus/git/open-iconic/png/cloud-upload-8x.png
ENCODING 126
DWIDTH 64 0
BBX 64 64 0 0
BITMAP
00000000ff000000
0000000ffff00000
0000003ffffc0000
0000007ffffe0000
000001ffffff8000
000003ffffffc000
000007ffffffe000
00000ffffffff000
00001ffffffff000
00001ffffffff800
00003ffffffffc00
00003ffffffffc00
00007ffffffffe00
00007ffffffffe00
0000fffffffffe00
0000fffffffffe00
000fffffffffff00
007fffffffffff00
01ffffffffffff00
03ffffffffffff00
07ffffffffffff00
0fffffffffffff00
1fffffffffffff00
3fffffffffffff00
3fffffffe7ffff80
7fffffffc3ffffe0
7fffffff81fffff0
7fffffff00fffff8
fffffffe007ffffc
fffffffc003ffffc
fffffff8001ffffe
fffffff0000ffffe
ffffffe00007fffe
ffffffc00003ffff
ffffff800001ffff
ffffff000000ffff
7ffffe0000007fff
7ffffc0018003fff
7ffff8003c001fff
3ffff0007e000ffe
00000000ff000000
00000001ff800000
00000003ffc00000
00000007ffe00000
0000000ffff00000
0000001ffff80000
0000003ffffc0000
0000007ffffe0000
000000ffffff0000
000001ffffff8000
000003ffffffc000
000007ffffffe000
00000ffffffff000
00001ffffffff800
00003ffffffffc00
00007ffffffffe00
00000000ff000000
00000000ff000000
00000000ff000000
00000000ff000000
00000000ff000000
00000000ff000000
000000007e000000
000000003c000000
ENDCHAR
STARTCHAR /home/kraus/git/open-iconic/png/cloudy-8x.png
ENCODING 127
DWIDTH 64 0
BBX 64 64 0 0
BITMAP
0000ff0000000000
000ffff000000000
003ffffc00000000
007ffffe00000000
01ffffff80000000
03ffffffc0000000
07ffffffe0000000
0ffffffff0000000
0ffffffe00000000
1fffffe000000000
3fffff0000000000
3ffffc0000000000
7ffff80000000000
7fffe00000000000
7fffc00000000000
7fff800000000000
ffff0000ff000000
fffe000ffff00000
fffc003ffffc0000
fff8007ffffe0000
fff001ffffff8000
fff003ffffffc000
ffe007ffffffe000
ffe00ffffffff000
7fc01ffffffff000
7f001ffffffff800
78003ffffffffc00
20003ffffffffc00
00007ffffffffe00
00007ffffffffe00
0000fffffffffe00
0000fffffffffe00
000fffffffffff00
007fffffffffff00
01ffffffffffff00
03ffffffffffff00
07ffffffffffff00
0fffffffffffff00
1fffffffffffff00
3fffffffffffff00
3fffffffffffff80
7fffffffffffffe0
7ffffffffffffff0
7ffffffffffffff8
fffffffffffffffc
fffffffffffffffc
fffffffffffffffe
fffffffffffffffe
fffffffffffffffe
ffffffffffffffff
ffffffffffffffff
ffffffffffffffff
7fffffffffffffff
7fffffffffffffff
7fffffffffffffff
3ffffffffffffffe
3ffffffffffffffe
1ffffffffffffffe
0ffffffffffffffc
07fffffffffffff8
03fffffffffffff0
01ffffffffffffe0
007fffffffffffc0
000ffffffffffe00
ENDCHAR
STARTCHAR /home/kraus/git/open-iconic/png/code-8x.png
ENCODING 128
DWIDTH 64 0
BBX 64 64 0 0
BITMAP
0000000000000000
0000000000000000
0000000000000000
0000000000000000
0000000000000000
0000000000000000
0000000000000000
0000000000000000
0000000000ff0000
0000000001fe0000
0000000001fe0000
0000000003fc0000
0000000003fc0000
0000000007f80000
0000000007f80000
000000000ff00000
00ff00000ff0ff00
01fe00001fe07f80
01fe00001fe07f80
03fc00003fc03fc0
03fc00003fc03fc0
07f800007f801fe0
07f800007f801fe0
0ff00000ff000ff0
0ff00000ff000ff0
1fe00001fe0007f8
1fe00001fe0007f8
3fc00003fc0003fc
3fc00003fc0003fc
7f800007f80001fe
7f800007f80001fe
ff00000ff00000ff
ff00000ff00000ff
7f80001fe00001fe
7f80001fe00001fe
3fc0003fc00003fc
3fc0003fc00003fc
1fe0007f800007f8
1fe0007f800007f8
0ff000ff00000ff0
0ff000ff00000ff0
07f801fe00001fe0
07f801fe00001fe0
03fc03fc00003fc0
03fc03fc00003fc0
01fe07f800007f80
01fe07f800007f80
00ff0ff00000ff00
00000ff000000000
00001fe000000000
00001fe000000000
00003fc000000000
00003fc000000000
00007f8000000000
00007f8000000000
0000ff0000000000
0000000000000000
0000000000000000
0000000000000000
0000000000000000
0000000000000000
0000000000000000
0000000000000000
0000000000000000
ENDCHAR
STARTCHAR /home/kraus/git/open-iconic/png/cog-8x.png
ENCODING 129
DWIDTH 64 0
BBX 64 64 0 0
BITMAP
0000000ff0000000
0000001ff8000000
0000001ff8000000
0000001ff8000000
0000003ffc000000
0000003ffc000000
0000007ffe000000
001c007ffe007800
003f80ffff01fc00
007fe0ffff07fe00
00ffffffffffff00
01ffffffffffff80
01ffffffffffff80
01ffffffffffff80
01ffffffffffff80
00ffffffffffff00
00ffffffffffff00
007ffffffffffe00
007ffffffffffe00
007ffffffffffc00
003ffff81ffffc00
003fffc003fffc00
003fff8001fffc00
003fff0000fffc00
00fffe00007fff00
03fffc00003fffc0
0ffff800001ffff0
7ffff800001ffffe
fffff800001fffff
fffff000000fffff
fffff000000fffff
fffff000000fffff
fffff000000fffff
fffff000000fffff
fffff000000fffff
fffff800001fffff
7ffff800001ffffe
1ffff800001ffff8
03fffc00003fffc0
00fffe00007fff00
003fff0000fffc00
003fff8001fffc00
003fffc003fffc00
003ffff81ffffc00
003ffffffffffc00
007ffffffffffe00
007ffffffffffe00
00ffffffffffff00
00ffffffffffff00
01ffffffffffff80
01ffffffffffff80
01ffffffffffff80
01ffffffffffff80
00ffffffffffff00
007ff0ffff0ffe00
003f80ffff01fc00
001e007ffe007800
0000007ffe000000
0000003ffc000000
0000003ffc000000
0000003ffc000000
0000001ff8000000
0000001ff8000000
0000000ff0000000
ENDCHAR
STARTCHAR /home/kraus/git/open-iconic/png/collapse-down-8x.png
ENCODING 130
DWIDTH 64 0
BBX 64 64 0 0
BITMAP
ffffffffffffffff
ffffffffffffffff
ffffffffffffffff
ffffffffffffffff
ffffffffffffffff
ffffffffffffffff
ffffffffffffffff
ffffffffffffffff
ffffffffffffffff
ffffffffffffffff
ffffffffffffffff
ffffffffffffffff
ffffffffffffffff
ffffffffffffffff
ffffffffffffffff
ffffffffffffffff
0000000000000000
0000000000000000
0000000000000000
0000000000000000
0000000000000000
0000000000000000
0000000000000000
0000000000000000
00007ffffffe0000
00003ffffffc0000
00001ffffff80000
00000ffffff00000
000007ffffe00000
000003ffffc00000
000001ffff800000
000000ffff000000
0000007ffe000000
0000003ffc000000
0000001ff8000000
0000000ff0000000
00000007e0000000
00000003c0000000
0000000180000000
0000000000000000
0000000000000000
0000000000000000
0000000000000000
0000000000000000
0000000000000000
0000000000000000
0000000000000000
0000000000000000
0000000000000000
0000000000000000
0000000000000000
0000000000000000
0000000000000000
0000000000000000
0000000000000000
0000000000000000
ffffffffffffffff
ffffffffffffffff
ffffffffffffffff
ffffffffffffffff
ffffffffffffffff
ffffffffffffffff
ffffffffffffffff
ffffffffffffffff
ENDCHAR
STARTCHAR /home/kraus/git/open-iconic/png/collapse-left-8x.png
ENCODING 131
DWIDTH 64 0
BBX 64 64 0 0
BITMAP
ff0000000000ffff
ff0000000000ffff
ff0000000000ffff
ff0000000000ffff
ff0000000000ffff
ff0000000000ffff
ff0000000000ffff
ff0000000000ffff
ff0000000000ffff
ff0000000000ffff
ff0000000000ffff
ff0000000000ffff
ff0000000000ffff
ff0000000000ffff
ff0000000000ffff
ff0000000000ffff
ff0000000000ffff
ff0000000100ffff
ff0000000300ffff
ff0000000700ffff
ff0000000f00ffff
ff0000001f00ffff
ff0000003f00ffff
ff0000007f00ffff
ff000000ff00ffff
ff000001ff00ffff
ff000003ff00ffff
ff000007ff00ffff
ff00000fff00ffff
ff00001fff00ffff
ff00003fff00ffff
ff00007fff00ffff
ff00007fff00ffff
ff00003fff00ffff
ff00001fff00ffff
ff00000fff00ffff
ff000007ff00ffff
ff000003ff00ffff
ff000001ff00ffff
ff000000ff00ffff
ff0000007f00ffff
ff0000003f00ffff
ff0000001f00ffff
ff0000000f00ffff
ff0000000700ffff
ff0000000300ffff
ff0000000100ffff
ff0000000000ffff
ff0000000000ffff
ff0000000000ffff
ff0000000000ffff
ff0000000000ffff
ff0000000000ffff
ff0000000000ffff
ff0000000000ffff
ff0000000000ffff
ff0000000000ffff
ff0000000000ffff
ff0000000000ffff
ff0000000000ffff
ff0000000000ffff
ff0000000000ffff
ff0000000000ffff
ff0000000000ffff
ENDCHAR
STARTCHAR /home/kraus/git/open-iconic/png/collapse-right-8x.png
ENCODING 132
DWIDTH 64 0
BBX 64 64 0 0
BITMAP
ffff0000000000ff
ffff0000000000ff
ffff0000000000ff
ffff0000000000ff
ffff0000000000ff
ffff0000000000ff
ffff0000000000ff
ffff0000000000ff
ffff0000000000ff
ffff0000000000ff
ffff0000000000ff
ffff0000000000ff
ffff0000000000ff
ffff0000000000ff
ffff0000000000ff
ffff0000000000ff
ffff0000000000ff
ffff0080000000ff
ffff00c0000000ff
ffff00e0000000ff
ffff00f0000000ff
ffff00f8000000ff
ffff00fc000000ff
ffff00fe000000ff
ffff00ff000000ff
ffff00ff800000ff
ffff00ffc00000ff
ffff00ffe00000ff
ffff00fff00000ff
ffff00fff80000ff
ffff00fffc0000ff
ffff00fffe0000ff
ffff00fffe0000ff
ffff00fffc0000ff
ffff00fff80000ff
ffff00fff00000ff
ffff00ffe00000ff
ffff00ffc00000ff
ffff00ff800000ff
ffff00ff000000ff
ffff00fe000000ff
ffff00fc000000ff
ffff00f8000000ff
ffff00f0000000ff
ffff00e0000000ff
ffff00c0000000ff
ffff0080000000ff
ffff0000000000ff
ffff0000000000ff
ffff0000000000ff
ffff0000000000ff
ffff0000000000ff
ffff0000000000ff
ffff0000000000ff
ffff0000000000ff
ffff0000000000ff
ffff0000000000ff
ffff0000000000ff
ffff0000000000ff
ffff0000000000ff
ffff0000000000ff
ffff0000000000ff
ffff0000000000ff
ffff0000000000ff
ENDCHAR
STARTCHAR /home/kraus/git/open-iconic/png/collapse-up-8x.png
ENCODING 133
DWIDTH 64 0
BBX 64 64 0 0
BITMAP
ffffffffffffffff
ffffffffffffffff
ffffffffffffffff
ffffffffffffffff
ffffffffffffffff
ffffffffffffffff
ffffffffffffffff
ffffffffffffffff
0000000000000000
0000000000000000
0000000000000000
0000000000000000
0000000000000000
0000000000000000
0000000000000000
0000000000000000
0000000000000000
0000000000000000
0000000000000000
0000000000000000
0000000000000000
0000000000000000
0000000000000000
0000000000000000
0000000000000000
0000000180000000
00000003c0000000
00000007e0000000
0000000ff0000000
0000001ff8000000
0000003ffc000000
0000007ffe000000
000000ffff000000
000001ffff800000
000003ffffc00000
000007ffffe00000
00000ffffff00000
00001ffffff80000
00003ffffffc0000
00007ffffffe0000
0000000000000000
0000000000000000
0000000000000000
0000000000000000
0000000000000000
0000000000000000
0000000000000000
0000000000000000
ffffffffffffffff
ffffffffffffffff
ffffffffffffffff
ffffffffffffffff
ffffffffffffffff
ffffffffffffffff
ffffffffffffffff
ffffffffffffffff
ffffffffffffffff
ffffffffffffffff
ffffffffffffffff
ffffffffffffffff
ffffffffffffffff
ffffffffffffffff
ffffffffffffffff
ffffffffffffffff
ENDCHAR
STARTCHAR /home/kraus/git/open-iconic/png/command-8x.png
ENCODING 134
DWIDTH 64 0
BBX 64 64 0 0
BITMAP
007e0000007e0000
03ffc00003ffc000
07ffe00007ffe000
0ffff0000ffff000
1ffff8001ffff800
3ffffc003ffffc00
7ffffe007ffffe00
7ffffe007ffffe00
7fc3fe007fc3fe00
ff81ff00ff81ff00
ff00ff00ff00ff00
ff00ff00ff00ff00
ff00ff00ff00ff00
ff00ff00ff00ff00
ff80ff00ff01ff00
7fc0ff00ff03fe00
7ffffffffffffe00
7ffffffffffffe00
3ffffffffffffc00
1ffffffffffff800
0ffffffffffff000
07ffffffffffe000
03ffffffffffc000
007ffffffffe0000
0000ff00ff000000
0000ff00ff000000
0000ff00ff000000
0000ff00ff000000
0000ff00ff000000
0000ff00ff000000
0000ff00ff000000
0000ff00ff000000
007ffffffffe0000
03ffffffffffc000
07ffffffffffe000
0ffffffffffff000
1ffffffffffff800
3ffffffffffffc00
7ffffffffffffe00
7ffffffffffffe00
7fc0ff00ff03fe00
ff80ff00ff01ff00
ff00ff00ff00ff00
ff00ff00ff00ff00
ff00ff00ff00ff00
ff00ff00ff00ff00
ff81ff00ff81ff00
7fc3fe007fc3fe00
7ffffe007ffffe00
7ffffe007ffffe00
3ffffc003ffffc00
1ffff8001ffff800
0ffff0000ffff000
07ffe00007ffe000
03ffc00003ffc000
007e0000007e0000
0000000000000000
0000000000000000
0000000000000000
0000000000000000
0000000000000000
0000000000000000
0000000000000000
0000000000000000
ENDCHAR
STARTCHAR /home/kraus/git/open-iconic/png/comment-square-8x.png
ENCODING 135
DWIDTH 64 0
BBX 64 64 0 0
BITMAP
ffffffffffffffff
ffffffffffffffff
ffffffffffffffff
ffffffffffffffff
ffffffffffffffff
ffffffffffffffff
ffffffffffffffff
ffffffffffffffff
ffffffffffffffff
ffffffffffffffff
ffffffffffffffff
ffffffffffffffff
ffffffffffffffff
ffffffffffffffff
ffffffffffffffff
ffffffffffffffff
ffffffffffffffff
ffffffffffffffff
ffffffffffffffff
ffffffffffffffff
ffffffffffffffff
ffffffffffffffff
ffffffffffffffff
ffffffffffffffff
ffffffffffffffff
ffffffffffffffff
ffffffffffffffff
ffffffffffffffff
ffffffffffffffff
ffffffffffffffff
ffffffffffffffff
ffffffffffffffff
ffffffffffffffff
ffffffffffffffff
ffffffffffffffff
ffffffffffffffff
ffffffffffffffff
ffffffffffffffff
ffffffffffffffff
ffffffffffffffff
ffffffffffffffff
ffffffffffffffff
ffffffffffffffff
ffffffffffffffff
ffffffffffffffff
ffffffffffffffff
ffffffffffffffff
ffffffffffffffff
0000000000007fff
0000000000003fff
0000000000001fff
0000000000000fff
00000000000007ff
00000000000003ff
00000000000001ff
00000000000000ff
000000000000007f
000000000000003f
000000000000001f
000000000000000f
0000000000000007
0000000000000003
0000000000000001
0000000000000000
ENDCHAR
STARTCHAR /home/kraus/git/open-iconic/png/compass-8x.png
ENCODING 136
DWIDTH 64 0
BBX 64 64 0 0
BITMAP
0000003ffc000000
000003ffffc00000
00000ffffff00000
00007ffffffc0000
0000ffffffff0000
0003ffffffffc000
0007ffffffffe000
001ffffffffff800
003fffe007fffc00
007fff0000fffe00
00fff800001fff00
01fff000000fff80
01ffc0000003ff80
03ff80000001ffc0
07ff00000000ffe0
07fe000000007fe0
0ffc000000013ff0
1ff80000000e1ff0
1ff00000007e0ff8
1ff0000003fe0ff8
3fe000001ffc07fc
3fc00000fffc03fc
7fc00007fffc03fe
7fc0003ffff803fe
7f8000fffff801fe
7f8000fffff801fe
ff8001fffff001ff
ff0001fffff000ff
ff0001fc3ff000ff
ff0003f81fe000ff
ff0003f00fe000ff
ff0003f00fe000ff
ff0007f00fc000ff
ff0007f00fc000ff
ff0007f81fc000ff
ff000ffc3f8000ff
ff000fffff8000ff
ff800fffff8001ff
7f801fffff0001fe
7f801fffff0001fe
7fc01ffffc0003fe
7fc03fffe00003fe
3fc03fff000003fc
3fe03ff8000007fc
1ff07fc000000ff8
1ff07e0000000ff8
0ff8700000001ff0
0ffc800000003ff0
07fe000000007fe0
07ff00000000ffe0
03ff80000001ffc0
01ffc0000003ff80
01fff000000fff00
00fff800001fff00
007fff0000fffe00
003fffe007fffc00
001ffffffffff000
0007ffffffffe000
0003ffffffffc000
0000ffffffff0000
00003ffffffc0000
00000ffffff00000
000003ffffc00000
0000003ffc000000
ENDCHAR
STARTCHAR /home/kraus/git/open-iconic/png/contrast-8x.png
ENCODING 137
DWIDTH 64 0
BBX 64 64 0 0
BITMAP
0000003ffc000000
000003ffffc00000
00000ffffff00000
00007ffffffc0000
0000ffffffff0000
0003ffffffffc000
0007ffffffffe000
001ffffffffff800
003fffff07fffc00
007fffff00fffe00
00ffffff001fff00
01ffffff000fff80
01ffffff0003ff80
03ffffff0001ffc0
07ffffff0000ffe0
07ffffff00007fe0
0fffffff00003ff0
1fffffff00001ff0
1fffffff00000ff8
1fffffff00000ff8
3fffffff000007fc
3fffffff000003fc
7fffffff000003fe
7fffffff000003fe
7fffffff000001fe
7fffffff000001fe
ffffffff000001ff
ffffffff000000ff
ffffffff000000ff
ffffffff000000ff
ffffffff000000ff
ffffffff000000ff
ffffffff000000ff
ffffffff000000ff
ffffffff000000ff
ffffffff000000ff
ffffffff000000ff
ffffffff000001ff
7fffffff000001fe
7fffffff000001fe
7fffffff000003fe
7fffffff000003fe
3fffffff000003fc
3fffffff000007fc
1fffffff00000ff8
1fffffff00000ff8
0fffffff00001ff0
0fffffff00003ff0
07ffffff00007fe0
07ffffff0000ffe0
03ffffff0001ffc0
01ffffff0003ff80
01ffffff000fff00
00ffffff001fff00
007fffff00fffe00
003fffff07fffc00
001ffffffffff000
0007ffffffffe000
0003ffffffffc000
0000ffffffff0000
00003ffffffc0000
00000ffffff00000
000003ffffc00000
0000003ffc000000
ENDCHAR
STARTCHAR /home/kraus/git/open-iconic/png/copywriting-8x.png
ENCODING 138
DWIDTH 64 0
BBX 64 64 0 0
BITMAP
ffffffffffffffff
ffffffffffffffff
ffffffffffffffff
ffffffffffffffff
ffffffffffffffff
ffffffffffffffff
ffffffffffffffff
ffffffffffffffff
0000000000000000
0000000000000000
0000000000000000
0000000000000000
0000000000000000
0000000000000000
0000000000000000
0000000000000000
ffffffffff000000
ffffffffff000000
ffffffffff000000
ffffffffff000000
ffffffffff000000
ffffffffff000000
ffffffffff000000
ffffffffff000000
0000000000000000
0000000000000000
0000000000000000
0000000000000000
0000000000000000
0000000000000000
0000000000000000
0000000000000000
0000000000000000
0000000000000000
0000000000000000
0000000000000000
0000000000000000
0000000000000000
0000000000000000
0000000000000000
ffffffffffffffff
ffffffffffffffff
ffffffffffffffff
ffffffffffffffff
ffffffffffffffff
ffffffffffffffff
ffffffffffffffff
ffffffffffffffff
0000000000000000
0000000000000000
0000000000000000
0000000000000000
0000000000000000
0000000000000000
0000000000000000
0000000000000000
ffffffffffff003c
ffffffffffff007e
ffffffffffff00ff
ffffffffffff00ff
ffffffffffff00ff
ffffffffffff00ff
ffffffffffff007e
ffffffffffff003c
ENDCHAR
STARTCHAR /home/kraus/git/open-iconic/png/credit-card-8x.png
ENCODING 139
DWIDTH 64 0
BBX 64 64 0 0
BITMAP
0000000000000000
0000000000000000
0000000000000000
0000000000000000
0000000000000000
0000000000000000
0000000000000000
0000000000000000
7ffffffffffffffe
ffffffffffffffff
ffffffffffffffff
ffffffffffffffff
ffffffffffffffff
ffffffffffffffff
ffffffffffffffff
ffffffffffffffff
0000000000000000
0000000000000000
0000000000000000
0000000000000000
0000000000000000
0000000000000000
0000000000000000
0000000000000000
ffffffffffffffff
ffffffffffffffff
ffffffffffffffff
ffffffffffffffff
ffffffffffffffff
ffffffffffffffff
ffffffffffffffff
ffffffffffffffff
ffffffffffffffff
ffffffffffffffff
ffffffffffffffff
ffffffffffffffff
ffffffffffffffff
ffffffffffffffff
ffffffffffffffff
ffffffffffffffff
ff00ff00ffffffff
ff00ff00ffffffff
ff00ff00ffffffff
ff00ff00ffffffff
ff00ff00ffffffff
ff00ff00ffffffff
ff00ff00ffffffff
ff00ff00ffffffff
ffffffffffffffff
ffffffffffffffff
ffffffffffffffff
ffffffffffffffff
ffffffffffffffff
ffffffffffffffff
ffffffffffffffff
7ffffffffffffffe
0000000000000000
0000000000000000
0000000000000000
0000000000000000
0000000000000000
0000000000000000
0000000000000000
0000000000000000
ENDCHAR
STARTCHAR /home/kraus/git/open-iconic/png/crop-8x.png
ENCODING 140
DWIDTH 64 0
BBX 64 64 0 0
BITMAP
00ff000000000000
00ff000000000018
00ff00000000003c
00ff00000000007e
00ff0000000000fe
00ff0000000001fc
00ff0000000003f8
00ff0000000007f0
ffffffffffffffe0
ffffffffffffffc0
ffffffffffffff80
ffffffffffffff00
ffffffffffffff00
ffffffffffffff00
ffffffffffffff00
ffffffffffffff00
00ff0000000fff00
00ff0000001fff00
00ff0000003fff00
00ff0000007fff00
00ff000000feff00
00ff000001fcff00
00ff000003f8ff00
00ff000007f0ff00
00ff00000fe0ff00
00ff00001fc0ff00
00ff00003f80ff00
00ff00007f00ff00
00ff0000fe00ff00
00ff0001fc00ff00
00ff0003f800ff00
00ff0007f000ff00
00ff000fe000ff00
00ff001fc000ff00
00ff003f8000ff00
00ff007f0000ff00
00ff00fe0000ff00
00ff01fc0000ff00
00ff03f80000ff00
00ff07f00000ff00
00ff0fe00000ff00
00ff1fc00000ff00
00ff3f800000ff00
00ff7f000000ff00
00fffe000000ff00
00fffc000000ff00
00fff8000000ff00
00fff0000000ff00
00ffffffffffffff
00ffffffffffffff
00ffffffffffffff
00ffffffffffffff
00ffffffffffffff
00ffffffffffffff
00ffffffffffffff
00ffffffffffffff
000000000000ff00
000000000000ff00
000000000000ff00
000000000000ff00
000000000000ff00
000000000000ff00
000000000000ff00
000000000000ff00
ENDCHAR
STARTCHAR /home/kraus/git/open-iconic/png/dashboard-8x.png
ENCODING 141
DWIDTH 64 0
BBX 64 64 0 0
BITMAP
0000003ffc000000
000003ffffc00000
00000ffffff00000
00007ffffffc0000
0000ffffffff0000
0003ffffffffc000
0007ffffffffe000
001ffffffffff800
003fffe007fffc00
007fff0000fffe00
00fff800001fff00
01fff000000fff80
01ffc0000003ff80
03ff80000001ffc0
07ff00000000ffe0
07fe000000007fe0
0ffc0003c0003ff0
1ff80007e0001ff0
1ff0000ff0000ff8
1ff0000ff0000ff8
3fe0000ff00007fc
3fc0000ff00003fc
7fc00007e00003fe
7fc00003c00003fe
7f803c00003c01fe
7f807e00007e01fe
ff80ff0000ff01ff
ff00ff8000ff00ff
ff00ffc000ff00ff
ff00ffe000ff00ff
ff007ff0007e00ff
ff003ff8003c00ff
ff001fffe00000ff
ff000ffff80000ff
ff0007fffc0000ff
ff0003fffe0000ff
ff0001fffe0000ff
ff8000ffff0001ff
7f8000ffff0001fe
7f8000ffff0001fe
7fc000ffff0003fe
7fc000ffff0003fe
3fc000ffff0003fc
3fe0007ffe0007fc
1ff0007ffe000ff8
1ff0003ffc000ff8
0ff8001ff8001ff0
0ffc0007e0003ff0
07fe000000007fe0
07ff00000000ffe0
03ff80000001ffc0
01ffc0000003ff80
01fff000000fff00
00fff800001fff00
007fff0000fffe00
003fffe007fffc00
001ffffffffff000
0007ffffffffe000
0003ffffffffc000
0000ffffffff0000
00003ffffffc0000
00000ffffff00000
000003ffffc00000
0000003ffc000000
ENDCHAR
STARTCHAR /home/kraus/git/open-iconic/png/data-transfer-download-8x.png
ENCODING 142
DWIDTH 64 0
BBX 64 64 0 0
BITMAP
000000ffff000000
000000ffff000000
000000ffff000000
000000ffff000000
000000ffff000000
000000ffff000000
000000ffff000000
000000ffff000000
000000ffff000000
000000ffff000000
000000ffff000000
000000ffff000000
000000ffff000000
000000ffff000000
000000ffff000000
000000ffff000000
000000ffff000000
000000ffff000000
000000ffff000000
000000ffff000000
000000ffff000000
000000ffff000000
000000ffff000000
000000ffff000000
007ffffffffffe00
003ffffffffffc00
001ffffffffff800
000ffffffffff000
0007ffffffffe000
0003ffffffffc000
0001ffffffff8000
0000ffffffff0000
00007ffffffe0000
00003ffffffc0000
00001ffffff80000
00000ffffff00000
000007ffffe00000
000003ffffc00000
000001ffff800000
000000ffff000000
0000007ffe000000
0000003ffc000000
0000001ff8000000
0000000ff0000000
00000007e0000000
00000003c0000000
0000000180000000
0000000000000000
0000000000000000
0000000000000000
0000000000000000
0000000000000000
0000000000000000
0000000000000000
0000000000000000
0000000000000000
ffffffffffffffff
ffffffffffffffff
ffffffffffffffff
ffffffffffffffff
ffffffffffffffff
ffffffffffffffff
ffffffffffffffff
ffffffffffffffff
ENDCHAR
STARTCHAR /home/kraus/git/open-iconic/png/data-transfer-upload-8x.png
ENCODING 143
DWIDTH 64 0
BBX 64 64 0 0
BITMAP
ffffffffffffffff
ffffffffffffffff
ffffffffffffffff
ffffffffffffffff
ffffffffffffffff
ffffffffffffffff
ffffffffffffffff
ffffffffffffffff
0000000000000000
0000000000000000
0000000000000000
0000000000000000
0000000000000000
0000000000000000
0000000000000000
0000000000000000
0000000000000000
0000000180000000
00000003c0000000
00000007e0000000
0000000ff0000000
0000001ff8000000
0000003ffc000000
0000007ffe000000
000000ffff000000
000001ffff800000
000003ffffc00000
000007ffffe00000
00000ffffff00000
00001ffffff80000
00003ffffffc0000
00007ffffffe0000
0000ffffffff0000
0001ffffffff8000
0003ffffffffc000
0007ffffffffe000
000ffffffffff000
001ffffffffff800
003ffffffffffc00
007ffffffffffe00
000000ffff000000
000000ffff000000
000000ffff000000
000000ffff000000
000000ffff000000
000000ffff000000
000000ffff000000
000000ffff000000
000000ffff000000
000000ffff000000
000000ffff000000
000000ffff000000
000000ffff000000
000000ffff000000
000000ffff000000
000000ffff000000
000000ffff000000
000000ffff000000
000000ffff000000
000000ffff000000
000000ffff000000
000000ffff000000
000000ffff000000
000000ffff000000
ENDCHAR
STARTCHAR /home/kraus/git/open-iconic/png/delete-8x.png
ENCODING 144
DWIDTH 64 0
BBX 64 64 0 0
BITMAP
0000000000000000
0000000000000000
0000000000000000
0000000000000000
0000000000000000
0000000000000000
0000000000000000
0000000000000000
0000ffffffffffff
0001ffffffffffff
0003ffffffffffff
0003ffffffffffff
0007ffffffffffff
000fffffffffffff
000fffffffffffff
001fffe7ffffe7ff
003fffc3ffffc3ff
003fff81ffff81ff
007fff00ffff00ff
00fffe007ffe007f
00fffe003ffc007f
01ffff001ff800ff
03ffff800ff001ff
03ffffc007e003ff
07ffffe003c007ff
0ffffff001800fff
0ffffff800001fff
1ffffffc00003fff
3ffffffe00007fff
3fffffff0000ffff
7fffffff8001ffff
ffffffffc003ffff
ffffffffc003ffff
7fffffff8001ffff
3fffffff0000ffff
3ffffffe00007fff
1ffffffc00003fff
0ffffff800001fff
0ffffff001800fff
07ffffe003c007ff
03ffffc007e003ff
03ffff800ff001ff
01ffff001ff800ff
00fffe003ffc007f
00fffe007ffe007f
007fff00ffff00ff
003fff81ffff81ff
003fffc3ffffc3ff
001fffe7ffffe7ff
000fffffffffffff
000fffffffffffff
0007ffffffffffff
0003ffffffffffff
0003ffffffffffff
0001ffffffffffff
0000ffffffffffff
0000000000000000
0000000000000000
0000000000000000
0000000000000000
0000000000000000
0000000000000000
0000000000000000
0000000000000000
ENDCHAR
STARTCHAR /home/kraus/git/open-iconic/png/dial-8x.png
ENCODING 145
DWIDTH 64 0
BBX 64 64 0 0
BITMAP
0000000000000000
0000000000000000
0000000000000000
0000000000000000
0000000000000000
0000000000000000
0000000000000000
0000000000000000
0000003ffc000000
000003ffffc00000
00000ffffff00000
00007ffffffc0000
0000ffffffff0000
0003ffffffffc000
0007ffffffffe000
001ffffffffff800
003fffe007fffc00
007fff0000fffe00
00fff800001fff00
01fff000000fff80
01ffc0000003ff80
03ff80000001ffc0
07ff00000000ffe0
07fe000000007fe0
0ffc000000003ff0
1ff800700e001ff0
1ff001f00f800ff8
1ff003f81fc00ff8
3fe007fc3fe007fc
3fc00ffc3ff003fc
7fc01ffe7ff803fe
7fc03ffffffc03fe
7f803ffffffc01fe
7f807ffffffe01fe
ff807ffffffe01ff
ff007ffffffe00ff
ff00ffffffff00ff
ff00ffffffff00ff
ff00ffffffff00ff
ff00ffffffff00ff
0000ffffffff0000
0000ffffffff0000
0000ffffffff0000
0000ffffffff0000
00007ffffffe0000
00007ffffffe0000
00007ffffffe0000
00003ffffffc0000
00003ffffffc0000
00001ffffff80000
00000ffffff00000
000007ffffe00000
000003ffffc00000
000001ffff800000
0000007ffe000000
0000000ff0000000
0000000000000000
0000000000000000
0000000000000000
0000000000000000
0000000000000000
0000000000000000
0000000000000000
0000000000000000
ENDCHAR
STARTCHAR /home/kraus/git/open-iconic/png/document-8x.png
ENCODING 146
DWIDTH 64 0
BBX 64 64 0 0
BITMAP
ffffff0000000000
ffffff0080000000
ffffff00c0000000
ffffff00e0000000
ffffff00f0000000
ffffff00f8000000
ffffff00fc000000
ffffff00fe000000
ffffff00ff000000
ffffff00ff800000
ffffff00ffc00000
ffffff00ffe00000
ffffff00fff00000
ffffff00fff80000
ffffff00fffc0000
ffffff00fffe0000
ff00ff00ffff0000
ff00ff00ffff8000
ff00ff00ffffc000
ff00ff00ffffe000
ff00ff00fffff000
ff00ff00fffff800
ff00ff00fffffc00
ff00ff00fffffe00
ffffff0000000000
ffffff0000000000
ffffff0000000000
ffffff0000000000
ffffff0000000000
ffffff0000000000
ffffff0000000000
ffffff0000000000
ff00ffffffffff00
ff00ffffffffff00
ff00ffffffffff00
ff00ffffffffff00
ff00ffffffffff00
ff00ffffffffff00
ff00ffffffffff00
ff00ffffffffff00
ffffffffffffff00
ffffffffffffff00
ffffffffffffff00
ffffffffffffff00
ffffffffffffff00
ffffffffffffff00
ffffffffffffff00
ffffffffffffff00
ff00000000ffff00
ff00000000ffff00
ff00000000ffff00
ff00000000ffff00
ff00000000ffff00
ff00000000ffff00
ff00000000ffff00
ff00000000ffff00
ffffffffffffff00
ffffffffffffff00
ffffffffffffff00
ffffffffffffff00
ffffffffffffff00
ffffffffffffff00
ffffffffffffff00
ffffffffffffff00
ENDCHAR
STARTCHAR /home/kraus/git/open-iconic/png/dollar-8x.png
ENCODING 147
DWIDTH 64 0
BBX 64 64 0 0
BITMAP
000000ff00000000
000000ff00000000
000000ff00000000
000000ff00000000
000000ff00000000
000000ff00000000
000000ff00000000
000000ff00000000
0001ffffffc00000
0007fffffff00000
001ffffffff80000
003ffffffffc0000
003ffffffffe0000
007fffffffff0000
007fffffffff0000
00ffffffffff0000
00ff800000ff0000
00ff000000ff0000
00ff000000ff0000
00ff000000ff0000
00ff000000ff0000
00ff000000ff0000
00ff000000ff0000
00ff800000ff0000
00ff800000000000
007fe00000000000
007ffe0000000000
007fffc000000000
003ffffc00000000
001fffffc0000000
000ffffffc000000
0007ffffff800000
0001ffffffe00000
00003ffffff00000
000003fffff80000
0000007ffffc0000
00000007fffe0000
000000007ffe0000
0000000007fe0000
0000000001ff0000
00ff000001ff0000
00ff000000ff0000
00ff000000ff0000
00ff000000ff0000
00ff000000ff0000
00ff000000ff0000
00ff000000ff0000
00ff000001ff0000
00ffffffffff0000
00fffffffffe0000
00fffffffffe0000
007ffffffffc0000
007ffffffffc0000
003ffffffff80000
000fffffffe00000
0003ffffff800000
000000ff00000000
000000ff00000000
000000ff00000000
000000ff00000000
000000ff00000000
000000ff00000000
000000ff00000000
000000ff00000000
ENDCHAR
STARTCHAR /home/kraus/git/open-iconic/png/double-quote-sans-left-8x.png
ENCODING 148
DWIDTH 64 0
BBX 64 64 0 0
BITMAP
0000000000000000
0000000000000000
0000000000000000
0000000000000000
0000000000000000
0000000000000000
0000000000000000
0000000000000000
ffffff0000ffffff
ffffff0000ffffff
ffffff0000ffffff
ffffff0000ffffff
ffffff0000ffffff
ffffff0000ffffff
ffffff0000ffffff
ffffff0000ffffff
ffffff0000ffffff
ffffff0000ffffff
ffffff0000ffffff
ffffff0000ffffff
ffffff0000ffffff
ffffff0000ffffff
ffffff0000ffffff
ffffff0000ffffff
ffffff0000ffffff
ffffff0000ffffff
ffffff0000ffffff
ffffff0000ffffff
ffffff0000ffffff
ffffff0000ffffff
ffffff0000ffffff
ffffff0000ffffff
fffffe0000fffffe
fffffc0000fffffc
fffff80000fffff8
fffff00000fffff0
ffffe00000ffffe0
ffffc00000ffffc0
ffff800000ffff80
ffff000000ffff00
fffe000000fffe00
fffc000000fffc00
fff8000000fff800
fff0000000fff000
ffe0000000ffe000
ffc0000000ffc000
ff80000000ff8000
ff00000000ff0000
fe00000000fe0000
fc00000000fc0000
f800000000f80000
f000000000f00000
e000000000e00000
c000000000c00000
8000000000800000
0000000000000000
0000000000000000
0000000000000000
0000000000000000
0000000000000000
0000000000000000
0000000000000000
0000000000000000
0000000000000000
ENDCHAR
STARTCHAR /home/kraus/git/open-iconic/png/double-quote-sans-right-8x.png
ENCODING 149
DWIDTH 64 0
BBX 64 64 0 0
BITMAP
0000000000000000
0000000000000000
0000000000000000
0000000000000000
0000000000000000
0000000000000000
0000000000000000
0000000000000000
0000000000000000
0000010000000001
0000030000000003
0000070000000007
00000f000000000f
00001f000000001f
00003f000000003f
00007f000000007f
0000ff00000000ff
0001ff00000001ff
0003ff00000003ff
0007ff00000007ff
000fff0000000fff
001fff0000001fff
003fff0000003fff
007fff0000007fff
00ffff000000ffff
01ffff000001ffff
03ffff000003ffff
07ffff000007ffff
0fffff00000fffff
1fffff00001fffff
3fffff00003fffff
7fffff00007fffff
ffffff0000ffffff
ffffff0000ffffff
ffffff0000ffffff
ffffff0000ffffff
ffffff0000ffffff
ffffff0000ffffff
ffffff0000ffffff
ffffff0000ffffff
ffffff0000ffffff
ffffff0000ffffff
ffffff0000ffffff
ffffff0000ffffff
ffffff0000ffffff
ffffff0000ffffff
ffffff0000ffffff
ffffff0000ffffff
ffffff0000ffffff
ffffff0000ffffff
ffffff0000ffffff
ffffff0000ffffff
ffffff0000ffffff
ffffff0000ffffff
ffffff0000ffffff
ffffff0000ffffff
0000000000000000
0000000000000000
0000000000000000
0000000000000000
0000000000000000
0000000000000000
0000000000000000
0000000000000000
ENDCHAR
STARTCHAR /home/kraus/git/open-iconic/png/double-quote-serif-left-8x.png
ENCODING 150
DWIDTH 64 0
BBX 64 64 0 0
BITMAP
0000000000000000
0000000000000000
0000000000000000
0000000000000000
0000000000000000
0000000000000000
0000000000000000
0000000000000000
00001f000000001f
0000ff00000000ff
0007ff00000007ff
000fff0000000fff
003fff0000003fff
007fff0000007fff
00ffff000000ffff
01ffff000001ffff
03fff0000003fff0
07ff80000007ff80
0ffe0000000ffe00
0ffc0000000ffc00
1ff80000001ff800
3ff00000003ff000
3fe00000003fe000
3fc00000003fc000
7fc00000007fc000
7f800000007f8000
7f800000007f8000
ff80000000ff8000
ff00000000ff0000
ff00000000ff0000
ff00000000ff0000
ff00000000ff0000
ffffff0000ffffff
ffffff0000ffffff
ffffff0000ffffff
ffffff0000ffffff
ffffff0000ffffff
ffffff0000ffffff
ffffff0000ffffff
ffffff0000ffffff
ffffff0000ffffff
ffffff0000ffffff
ffffff0000ffffff
ffffff0000ffffff
ffffff0000ffffff
ffffff0000ffffff
ffffff0000ffffff
ffffff0000ffffff
ffffff0000ffffff
ffffff0000ffffff
ffffff0000ffffff
ffffff0000ffffff
ffffff0000ffffff
ffffff0000ffffff
ffffff0000ffffff
ffffff0000ffffff
0000000000000000
0000000000000000
0000000000000000
0000000000000000
0000000000000000
0000000000000000
0000000000000000
0000000000000000
ENDCHAR
STARTCHAR /home/kraus/git/open-iconic/png/double-quote-serif-right-8x.png
ENCODING 151
DWIDTH 64 0
BBX 64 64 0 0
BITMAP
0000000000000000
0000000000000000
0000000000000000
0000000000000000
0000000000000000
0000000000000000
0000000000000000
0000000000000000
ffffff0000ffffff
ffffff0000ffffff
ffffff0000ffffff
ffffff0000ffffff
ffffff0000ffffff
ffffff0000ffffff
ffffff0000ffffff
ffffff0000ffffff
ffffff0000ffffff
ffffff0000ffffff
ffffff0000ffffff
ffffff0000ffffff
ffffff0000ffffff
ffffff0000ffffff
ffffff0000ffffff
ffffff0000ffffff
ffffff0000ffffff
ffffff0000ffffff
ffffff0000ffffff
ffffff0000ffffff
ffffff0000ffffff
ffffff0000ffffff
ffffff0000ffffff
ffffff0000ffffff
0000ff00000000ff
0000ff00000000ff
0000ff00000000ff
0000ff00000000ff
0001ff00000001ff
0001fe00000001fe
0001fe00000001fe
0003fe00000003fe
0003fc00000003fc
0007fc00000007fc
000ffc0000000ffc
001ff80000001ff8
003ff00000003ff0
007ff00000007ff0
01ffe0000001ffe0
0fffc000000fffc0
ffff800000ffff80
ffff000000ffff00
fffe000000fffe00
fffc000000fffc00
fff0000000fff000
ffe0000000ffe000
ff00000000ff0000
f800000000f80000
0000000000000000
0000000000000000
0000000000000000
0000000000000000
0000000000000000
0000000000000000
0000000000000000
0000000000000000
ENDCHAR
STARTCHAR /home/kraus/git/open-iconic/png/droplet-8x.png
ENCODING 152
DWIDTH 64 0
BBX 64 64 0 0
BITMAP
0000000000000000
0000000380000000
00000007c0000000
00000007e0000000
0000000ff0000000
0000001ff8000000
0000003ffc000000
0000007ffe000000
000000ffff000000
000001ffff800000
000003ffffc00000
000003ffffc00000
000007ffffe00000
00000ffffff00000
00001ffffff80000
00001ffffff80000
00003ffffffc0000
00007ffffffe0000
00007ffffffe0000
0000ffffffff0000
0001ffffffff8000
0001ffffffff8000
0003ffffffffc000
0003ffffffffc000
0007ffffffffe000
0007ffffffffe000
000ffffffffff000
000ffffffffff000
001ffffffffff800
001ffffffffff800
003ffffffffffc00
003ffffffffffc00
003ffffffffffc00
007ffffffffffe00
007ffffffffffe00
007ffffffffffe00
007ffffffffffe00
00ffffffffffff00
00ffc3ffffffff00
00ff81ffffffff00
00ff00ffffffff00
00ff00ffffffff00
00ff00ffffffff00
00ff00ffffffff00
00ff007fffffff00
00ff007fffffff00
00ff803ffffffe00
007f803ffffffe00
007fc00ffffffe00
007fc003fffffe00
003fe0003ffffc00
003fe0001ffffc00
001ff0000ffff800
001ff8000ffff800
000ffc000ffff000
000fff000ffff000
0007ffc01fffe000
0003fff87fffc000
0001ffffffff8000
0000ffffffff0000
00007ffffffe0000
00003ffffffc0000
00000ffffff00000
000003ffffc00000
ENDCHAR
STARTCHAR /home/kraus/git/open-iconic/png/eject-8x.png
ENCODING 153
DWIDTH 64 0
BBX 64 64 0 0
BITMAP
0000000000000000
0000000180000000
00000003c0000000
00000007e0000000
0000000ff0000000
0000000ff0000000
0000001ff8000000
0000003ffc000000
0000007ffe000000
000000ffff000000
000000ffff000000
000001ffff800000
000003ffffc00000
000007ffffe00000
00000ffffff00000
00000ffffff00000
00001ffffff80000
00003ffffffc0000
00007ffffffe0000
0000ffffffff0000
0000ffffffff0000
0001ffffffff8000
0003ffffffffc000
0007ffffffffe000
000ffffffffff000
000ffffffffff000
001ffffffffff800
003ffffffffffc00
007ffffffffffe00
00ffffffffffff00
00ffffffffffff00
01ffffffffffff80
03ffffffffffffc0
07ffffffffffffe0
0ffffffffffffff0
0ffffffffffffff0
1ffffffffffffff8
3ffffffffffffffc
7ffffffffffffffe
ffffffffffffffff
0000000000000000
0000000000000000
0000000000000000
0000000000000000
0000000000000000
0000000000000000
0000000000000000
0000000000000000
ffffffffffffffff
ffffffffffffffff
ffffffffffffffff
ffffffffffffffff
ffffffffffffffff
ffffffffffffffff
ffffffffffffffff
ffffffffffffffff
ffffffffffffffff
ffffffffffffffff
ffffffffffffffff
ffffffffffffffff
ffffffffffffffff
ffffffffffffffff
ffffffffffffffff
ffffffffffffffff
ENDCHAR
STARTCHAR /home/kraus/git/open-iconic/png/elevator-8x.png
ENCODING 154
DWIDTH 64 0
BBX 64 64 0 0
BITMAP
0000000000000000
0000000180000000
00000003c0000000
00000007e0000000
0000000ff0000000
0000001ff8000000
0000003ffc000000
0000007ffe000000
000000ffff000000
000001ffff800000
000003ffffc00000
000007ffffe00000
00000ffffff00000
00001ffffff80000
00003ffffffc0000
00007ffffffe0000
0000ffffffff0000
0001ffffffff8000
0003ffffffffc000
0007ffffffffe000
000ffffffffff000
001ffffffffff800
003ffffffffffc00
007ffffffffffe00
0000000000000000
0000000000000000
0000000000000000
0000000000000000
0000000000000000
0000000000000000
0000000000000000
0000000000000000
0000000000000000
0000000000000000
0000000000000000
0000000000000000
0000000000000000
0000000000000000
0000000000000000
0000000000000000
007ffffffffffe00
003ffffffffffc00
001ffffffffff800
000ffffffffff000
0007ffffffffe000
0003ffffffffc000
0001ffffffff8000
0000ffffffff0000
00007ffffffe0000
00003ffffffc0000
00001ffffff80000
00000ffffff00000
000007ffffe00000
000003ffffc00000
000001ffff800000
000000ffff000000
0000007ffe000000
0000003ffc000000
0000001ff8000000
0000000ff0000000
00000007e0000000
00000003c0000000
0000000180000000
0000000000000000
ENDCHAR
STARTCHAR /home/kraus/git/open-iconic/png/ellipses-8x.png
ENCODING 155
DWIDTH 64 0
BBX 64 64 0 0
BITMAP
0000000000000000
0000000000000000
0000000000000000
0000000000000000
0000000000000000
0000000000000000
0000000000000000
0000000000000000
0000000000000000
0000000000000000
0000000000000000
0000000000000000
0000000000000000
0000000000000000
0000000000000000
0000000000000000
0000000000000000
0000000000000000
0000000000000000
0000000000000000
0000000000000000
0000000000000000
0000000000000000
0000000000000000
ffff00ffff00ffff
ffff00ffff00ffff
ffff00ffff00ffff
ffff00ffff00ffff
ffff00ffff00ffff
ffff00ffff00ffff
ffff00ffff00ffff
ffff00ffff00ffff
ffff00ffff00ffff
ffff00ffff00ffff
ffff00ffff00ffff
ffff00ffff00ffff
ffff00ffff00ffff
ffff00ffff00ffff
ffff00ffff00ffff
ffff00ffff00ffff
0000000000000000
0000000000000000
0000000000000000
0000000000000000
0000000000000000
0000000000000000
0000000000000000
0000000000000000
0000000000000000
0000000000000000
0000000000000000
0000000000000000
0000000000000000
0000000000000000
0000000000000000
0000000000000000
0000000000000000
0000000000000000
0000000000000000
0000000000000000
0000000000000000
0000000000000000
0000000000000000
0000000000000000
ENDCHAR
STARTCHAR /home/kraus/git/open-iconic/png/envelope-closed-8x.png
ENCODING 156
DWIDTH 64 0
BBX 64 64 0 0
BITMAP
0000000000000000
0000000000000000
0000000000000000
0000000000000000
0000000000000000
0000000000000000
0000000000000000
0000000000000000
ffffffffffffffff
ffffffffffffffff
ffffffffffffffff
ffffffffffffffff
ffffffffffffffff
ffffffffffffffff
ffffffffffffffff
ffffffffffffffff
7ffffffffffffffe
1ffffffffffffff8
07ffffffffffffe0
01ffffffffffff80
007ffffffffffe00
001ffffffffff800
0007ffffffffe000
0001ffffffff8000
80007ffffffe0001
e0001ffffff80007
f80007ffffe0001f
fe0001ffff80007f
ff80007ffe0001ff
ffe0001ff80007ff
fff80007e0001fff
fffe000180007fff
ffff80000001ffff
ffffe0000007ffff
fffff800001fffff
fffffe00007fffff
ffffff8001ffffff
ffffffe007ffffff
fffffff81fffffff
fffffffe7fffffff
ffffffffffffffff
ffffffffffffffff
ffffffffffffffff
ffffffffffffffff
ffffffffffffffff
ffffffffffffffff
ffffffffffffffff
ffffffffffffffff
ffffffffffffffff
ffffffffffffffff
ffffffffffffffff
ffffffffffffffff
ffffffffffffffff
ffffffffffffffff
ffffffffffffffff
ffffffffffffffff
0000000000000000
0000000000000000
0000000000000000
0000000000000000
0000000000000000
0000000000000000
0000000000000000
0000000000000000
ENDCHAR
STARTCHAR /home/kraus/git/open-iconic/png/envelope-open-8x.png
ENCODING 157
DWIDTH 64 0
BBX 64 64 0 0
BITMAP
0000000180000000
00000007e0000000
0000001ff8000000
0000007ffe000000
000001ffff800000
000007ffffe00000
00001ffffff80000
00007ffffffe0000
0001ffffffff8000
0007fffe7fffe000
001ffff81ffff800
007fffe007fffe00
01ffff8001ffff80
07fffe00007fffe0
1ffff800001ffff8
7fffe0000007fffe
ffff80000001ffff
fffe000000007fff
fff8000000001fff
ffe00000000007ff
ff800000000001ff
ff000000000000ff
ff000000000000ff
ff000000000000ff
ff00ffffffff00ff
ff00ffffffff00ff
ff00ffffffff00ff
ff00ffffffff00ff
ff00ffffffff00ff
ff00ffffffff00ff
ff00ffffffff00ff
ff00ffffffff00ff
ff007ffffffe00ff
ff001ffffff800ff
ff0007ffffe000ff
ff0001ffff8000ff
ff80007ffe0001ff
ffe0001ff80007ff
fff80007e0001fff
fffe000180007fff
ffff80000001ffff
ffffe0000007ffff
fffff800001fffff
fffffe00007fffff
ffffff8001ffffff
ffffffe007ffffff
fffffff81fffffff
fffffffe7fffffff
ffffffffffffffff
ffffffffffffffff
ffffffffffffffff
ffffffffffffffff
ffffffffffffffff
ffffffffffffffff
ffffffffffffffff
ffffffffffffffff
ffffffffffffffff
ffffffffffffffff
ffffffffffffffff
ffffffffffffffff
ffffffffffffffff
ffffffffffffffff
ffffffffffffffff
ffffffffffffffff
ENDCHAR
STARTCHAR /home/kraus/git/open-iconic/png/euro-8x.png
ENCODING 158
DWIDTH 64 0
BBX 64 64 0 0
BITMAP
000000003ffc0000
00000003ffffc000
0000000ffffff000
0000003ffffffc00
000000fffffffe00
000003fffffffe00
000007fffffffe00
00000ffffffffe00
00003fffe007fe00
00007fff00007e00
00007ff800001c00
0000fff000000400
0001ffc000000000
0003ff8000000000
0007ff0000000000
0007fe0000000000
000ffc0000000000
000ff80000000000
001ff00000000000
001ff00000000000
003fe00000000000
003fe00000000000
003fc00000000000
007fc00000000000
fffffffffff00000
fffffffffff00000
fffffffffff00000
fffffffffff00000
ffffffffffe00000
ffffffffffe00000
ffffffffffe00000
ffffffffffe00000
00ff000000000000
00ff000000000000
00ff000000000000
00ff000000000000
007f800000000000
007f800000000000
007f800000000000
007f800000000000
ffffffffff800000
ffffffffff800000
ffffffffff800000
ffffffffff800000
ffffffffff800000
ffffffffff000000
ffffffffff000000
ffffffffff000000
0007fe0000000000
0003ff0000000000
0003ff8000000100
0001ffc000000300
0000fff000000f00
00007ffc00001f00
00003fff0000ff00
00001fffe007ff00
00000fffffffff00
000007ffffffff00
000003ffffffff00
000000ffffffff00
0000003ffffffc00
0000000ffffff000
00000001ffff8000
000000001ff80000
ENDCHAR
STARTCHAR /home/kraus/git/open-iconic/png/excerpt-8x.png
ENCODING 159
DWIDTH 64 0
BBX 64 64 0 0
BITMAP
ffffffffffffff00
ffffffffffffff00
ffffffffffffff00
ffffffffffffff00
ffffffffffffff00
ffffffffffffff00
ffffffffffffff00
ffffffffffffff00
0000000000000000
0000000000000000
0000000000000000
0000000000000000
0000000000000000
0000000000000000
0000000000000000
0000000000000000
ffffffffff000000
ffffffffff000000
ffffffffff000000
ffffffffff000000
ffffffffff000000
ffffffffff000000
ffffffffff000000
ffffffffff000000
0000000000000000
0000000000000000
0000000000000000
0000000000000000
0000000000000000
0000000000000000
0000000000000000
0000000000000000
ffffffffffffffff
ffffffffffffffff
ffffffffffffffff
ffffffffffffffff
ffffffffffffffff
ffffffffffffffff
ffffffffffffffff
ffffffffffffffff
0000000000000000
0000000000000000
0000000000000000
0000000000000000
0000000000000000
0000000000000000
0000000000000000
0000000000000000
ff00ff00ff000000
ff00ff00ff000000
ff00ff00ff000000
ff00ff00ff000000
ff00ff00ff000000
ff00ff00ff000000
ff00ff00ff000000
ff00ff00ff000000
0000000000000000
0000000000000000
0000000000000000
0000000000000000
0000000000000000
0000000000000000
0000000000000000
0000000000000000
ENDCHAR
STARTCHAR /home/kraus/git/open-iconic/png/expand-down-8x.png
ENCODING 160
DWIDTH 64 0
BBX 64 64 0 0
BITMAP
ffffffffffffffff
ffffffffffffffff
ffffffffffffffff
ffffffffffffffff
ffffffffffffffff
ffffffffffffffff
ffffffffffffffff
ffffffffffffffff
0000000000000000
0000000000000000
0000000000000000
0000000000000000
0000000000000000
0000000000000000
0000000000000000
0000000000000000
00007ffffffe0000
00003ffffffc0000
00001ffffff80000
00000ffffff00000
000007ffffe00000
000003ffffc00000
000001ffff800000
000000ffff000000
0000007ffe000000
0000003ffc000000
0000001ff8000000
0000000ff0000000
00000007e0000000
00000003c0000000
0000000180000000
0000000000000000
0000000000000000
0000000000000000
0000000000000000
0000000000000000
0000000000000000
0000000000000000
0000000000000000
0000000000000000
0000000000000000
0000000000000000
0000000000000000
0000000000000000
0000000000000000
0000000000000000
0000000000000000
0000000000000000
ffffffffffffffff
ffffffffffffffff
ffffffffffffffff
ffffffffffffffff
ffffffffffffffff
ffffffffffffffff
ffffffffffffffff
ffffffffffffffff
ffffffffffffffff
ffffffffffffffff
ffffffffffffffff
ffffffffffffffff
ffffffffffffffff
ffffffffffffffff
ffffffffffffffff
ffffffffffffffff
ENDCHAR
STARTCHAR /home/kraus/git/open-iconic/png/expand-left-8x.png
ENCODING 161
DWIDTH 64 0
BBX 64 64 0 0
BITMAP
ff0000000000ffff
ff0000000000ffff
ff0000000000ffff
ff0000000000ffff
ff0000000000ffff
ff0000000000ffff
ff0000000000ffff
ff0000000000ffff
ff0000000000ffff
ff0000000000ffff
ff0000000000ffff
ff0000000000ffff
ff0000000000ffff
ff0000000000ffff
ff0000000000ffff
ff0000000000ffff
ff0000000000ffff
ff0080000000ffff
ff00c0000000ffff
ff00e0000000ffff
ff00f0000000ffff
ff00f8000000ffff
ff00fc000000ffff
ff00fe000000ffff
ff00ff000000ffff
ff00ff800000ffff
ff00ffc00000ffff
ff00ffe00000ffff
ff00fff00000ffff
ff00fff80000ffff
ff00fffc0000ffff
ff00fffe0000ffff
ff00fffe0000ffff
ff00fffc0000ffff
ff00fff80000ffff
ff00fff00000ffff
ff00ffe00000ffff
ff00ffc00000ffff
ff00ff800000ffff
ff00ff000000ffff
ff00fe000000ffff
ff00fc000000ffff
ff00f8000000ffff
ff00f0000000ffff
ff00e0000000ffff
ff00c0000000ffff
ff0080000000ffff
ff0000000000ffff
ff0000000000ffff
ff0000000000ffff
ff0000000000ffff
ff0000000000ffff
ff0000000000ffff
ff0000000000ffff
ff0000000000ffff
ff0000000000ffff
ff0000000000ffff
ff0000000000ffff
ff0000000000ffff
ff0000000000ffff
ff0000000000ffff
ff0000000000ffff
ff0000000000ffff
ff0000000000ffff
ENDCHAR
STARTCHAR /home/kraus/git/open-iconic/png/expand-right-8x.png
ENCODING 162
DWIDTH 64 0
BBX 64 64 0 0
BITMAP
ffff0000000000ff
ffff0000000000ff
ffff0000000000ff
ffff0000000000ff
ffff0000000000ff
ffff0000000000ff
ffff0000000000ff
ffff0000000000ff
ffff0000000000ff
ffff0000000000ff
ffff0000000000ff
ffff0000000000ff
ffff0000000000ff
ffff0000000000ff
ffff0000000000ff
ffff0000000000ff
ffff0000000000ff
ffff0000000100ff
ffff0000000300ff
ffff0000000700ff
ffff0000000f00ff
ffff0000001f00ff
ffff0000003f00ff
ffff0000007f00ff
ffff000000ff00ff
ffff000001ff00ff
ffff000003ff00ff
ffff000007ff00ff
ffff00000fff00ff
ffff00001fff00ff
ffff00003fff00ff
ffff00007fff00ff
ffff00007fff00ff
ffff00003fff00ff
ffff00001fff00ff
ffff00000fff00ff
ffff000007ff00ff
ffff000003ff00ff
ffff000001ff00ff
ffff000000ff00ff
ffff0000007f00ff
ffff0000003f00ff
ffff0000001f00ff
ffff0000000f00ff
ffff0000000700ff
ffff0000000300ff
ffff0000000100ff
ffff0000000000ff
ffff0000000000ff
ffff0000000000ff
ffff0000000000ff
ffff0000000000ff
ffff0000000000ff
ffff0000000000ff
ffff0000000000ff
ffff0000000000ff
ffff0000000000ff
ffff0000000000ff
ffff0000000000ff
ffff0000000000ff
ffff0000000000ff
ffff0000000000ff
ffff0000000000ff
ffff0000000000ff
ENDCHAR
STARTCHAR /home/kraus/git/open-iconic/png/expand-up-8x.png
ENCODING 163
DWIDTH 64 0
BBX 64 64 0 0
BITMAP
ffffffffffffffff
ffffffffffffffff
ffffffffffffffff
ffffffffffffffff
ffffffffffffffff
ffffffffffffffff
ffffffffffffffff
ffffffffffffffff
ffffffffffffffff
ffffffffffffffff
ffffffffffffffff
ffffffffffffffff
ffffffffffffffff
ffffffffffffffff
ffffffffffffffff
ffffffffffffffff
0000000000000000
0000000000000000
0000000000000000
0000000000000000
0000000000000000
0000000000000000
0000000000000000
0000000000000000
0000000000000000
0000000000000000
0000000000000000
0000000000000000
0000000000000000
0000000000000000
0000000000000000
0000000000000000
0000000000000000
0000000180000000
00000003c0000000
00000007e0000000
0000000ff0000000
0000001ff8000000
0000003ffc000000
0000007ffe000000
000000ffff000000
000001ffff800000
000003ffffc00000
000007ffffe00000
00000ffffff00000
00001ffffff80000
00003ffffffc0000
00007ffffffe0000
0000000000000000
0000000000000000
0000000000000000
0000000000000000
0000000000000000
0000000000000000
0000000000000000
0000000000000000
ffffffffffffffff
ffffffffffffffff
ffffffffffffffff
ffffffffffffffff
ffffffffffffffff
ffffffffffffffff
ffffffffffffffff
ffffffffffffffff
ENDCHAR
STARTCHAR /home/kraus/git/open-iconic/png/external-link-8x.png
ENCODING 164
DWIDTH 64 0
BBX 64 64 0 0
BITMAP
ffff00007fffffff
ffff00003fffffff
ffff00001fffffff
ffff00000fffffff
ffff000007ffffff
ffff000003ffffff
ffff000001ffffff
ffff000000ffffff
ff000000007fffff
ff000000003fffff
ff000000001fffff
ff000000000fffff
ff000000000fffff
ff000000001fffff
ff000000003fffff
ff000000007fffff
ff00000000ffffff
ff00000001ffffff
ff00000003ffffff
ff00000007ffffff
ff0000000fffe7ff
ff0000001fffc3ff
ff0000003fff81ff
ff0000007fff00ff
ff000000fffe007f
ff000001fffc003f
ff000003fff8001f
ff000007fff0000f
ff00000fffe00007
ff00001fffc00003
ff00003fff800001
ff00007fff000000
ff00007ffe000000
ff00003ffc000000
ff00001ff8000000
ff00000ff0000000
ff000007e0000000
ff000003c0000000
ff00000180000000
ff00000000000000
ff00000000000000
ff00000000000000
ff00000000000000
ff00000000000000
ff00000000000000
ff00000000000000
ff00000000000000
ff00000000000000
ff000000000000ff
ff000000000000ff
ff000000000000ff
ff000000000000ff
ff000000000000ff
ff000000000000ff
ff000000000000ff
ff000000000000ff
ffffffffffffffff
ffffffffffffffff
ffffffffffffffff
ffffffffffffffff
ffffffffffffffff
ffffffffffffffff
ffffffffffffffff
ffffffffffffffff
ENDCHAR
STARTCHAR /home/kraus/git/open-iconic/png/eye-8x.png
ENCODING 165
DWIDTH 64 0
BBX 64 64 0 0
BITMAP
0000000000000000
0000000000000000
0000000000000000
0000000000000000
0000000000000000
0000000000000000
0000000000000000
0000000000000000
0000001ff8000000
000000ffff800000
000007ffffe00000
00001ffffff80000
00007ffffffe0000
0000ffffffff0000
0001ffffffffc000
0007ffffffffe000
000ffff00ffff000
001fff8001fff800
003ffe00007ffc00
007ffc00003ffe00
00fff800001fff00
01fff000000fff80
03ffe0000007ffc0
03ffc0000003ffc0
07ffc007c003ffe0
0fff801f8001fff0
1fff803f0001fff8
1fff807f0001fff8
3fff007f0000fffc
7fff00ff0000fffe
7fff00ff8100fffe
ffff00ffc300ffff
ffff00ffff00ffff
7fff00ffff00fffe
7fff00ffff00fffe
3fff007ffe00fffc
1fff807ffe01fff8
1fff803ffc01fff8
0fff801ff801fff0
07ffc007e003ffe0
03ffc0000003ffc0
03ffe0000007ffc0
01fff000000fff80
00fff800001fff00
007ffc00003ffe00
003ffe00007ffc00
001fff8001fff800
000ffff00ffff000
0007ffffffffe000
0001ffffffffc000
0000ffffffff0000
00007ffffffe0000
00001ffffff80000
000007ffffe00000
000000ffff800000
0000001ff8000000
0000000000000000
0000000000000000
0000000000000000
0000000000000000
0000000000000000
0000000000000000
0000000000000000
0000000000000000
ENDCHAR
STARTCHAR /home/kraus/git/open-iconic/png/eyedropper-8x.png
ENCODING 166
DWIDTH 64 0
BBX 64 64 0 0
BITMAP
0000007c00007f00
000000fe0003ffc0
000000ff0007fff0
000000ff800ffff8
000000ffc01ffffc
000000ffe03ffffc
0000007ff07ffffe
0000003ff8fffffe
0000001fffffffff
0000000fffffffff
00000007ffffffff
00000003ffffffff
00000007ffffffff
0000000fffffffff
0000001fffffffff
0000003fffffffff
0000007ffffffffe
000000fffffffffe
000001ffe7fffffc
000003ffc3fffff8
000007ff81fffff8
00000fff00fffff0
00001ffe007fffe0
00003ffc003fffc0
00007ff8001fff80
00007ff0000fff00
0000ffe00007ff00
0001ffc00003ff80
0003ff800003ffc0
0007ff000007ffe0
000ffe00000ffff0
001ffc00001ffff8
003ff800003ffffc
007ff000007ffffe
00ffe00000ffe7ff
01ffc00001ffc3ff
03ff800003ff81ff
07ff000007ff00ff
0ffe00000ffe007e
1ffc00001ffc003c
3ff800003ff80000
7ff000007ff00000
ffe00000ffe00000
ffe00001ffc00000
fff00003ff800000
fff80007ff000000
fffc000ffe000000
fffe001ffc000000
ffff003ff8000000
ffff807ff0000000
ffffc0ffe0000000
ffffe1ffc0000000
fffff3ff80000000
ffffffff00000000
fffffffe00000000
fffffffc00000000
fffffff800000000
fffffff000000000
ffffffe000000000
ffffffc000000000
ffffff8000000000
ffffff0000000000
fffffe0000000000
fffffc0000000000
ENDCHAR
STARTCHAR /home/kraus/git/open-iconic/png/file-8x.png
ENCODING 167
DWIDTH 64 0
BBX 64 64 0 0
BITMAP
ffffff0000000000
ffffff0080000000
ffffff00c0000000
ffffff00e0000000
ffffff00f0000000
ffffff00f8000000
ffffff00fc000000
ffffff00fe000000
ffffff00ff000000
ffffff00ff800000
ffffff00ffc00000
ffffff00ffe00000
ffffff00fff00000
ffffff00fff80000
ffffff00fffc0000
ffffff00fffe0000
ffffff00ffff0000
ffffff00ffff8000
ffffff00ffffc000
ffffff00ffffe000
ffffff00fffff000
ffffff00fffff800
ffffff00fffffc00
ffffff00fffffe00
ffffff0000000000
ffffff0000000000
ffffff0000000000
ffffff0000000000
ffffff0000000000
ffffff0000000000
ffffff0000000000
ffffff0000000000
ffffffffffffff00
ffffffffffffff00
ffffffffffffff00
ffffffffffffff00
ffffffffffffff00
ffffffffffffff00
ffffffffffffff00
ffffffffffffff00
ffffffffffffff00
ffffffffffffff00
ffffffffffffff00
ffffffffffffff00
ffffffffffffff00
ffffffffffffff00
ffffffffffffff00
ffffffffffffff00
ffffffffffffff00
ffffffffffffff00
ffffffffffffff00
ffffffffffffff00
ffffffffffffff00
ffffffffffffff00
ffffffffffffff00
ffffffffffffff00
ffffffffffffff00
ffffffffffffff00
ffffffffffffff00
ffffffffffffff00
ffffffffffffff00
ffffffffffffff00
ffffffffffffff00
ffffffffffffff00
ENDCHAR
STARTCHAR /home/kraus/git/open-iconic/png/fire-8x.png
ENCODING 168
DWIDTH 64 0
BBX 64 64 0 0
BITMAP
0000000000000000
0000400000000000
0000700000000000
0000780000000000
00007c0000000000
00003e0000000000
00003f0000000000
00003f8000000000
00007fc000000000
00007fe000000000
00007ff000000000
00007ff000000000
0000fff800000000
0000fff800000000
0001fffc00000000
0003fffc00000000
0003fffe00000000
0007fffe00000000
000ffffe00000000
001fffff00000000
001fffff00000000
003fffff00000000
007fffff00000000
00ffffff00000000
01ffffff00000000
03ffffff00400000
03ffffff00700000
07ffffff00780000
0ffffffe007c0000
1ffffffe003e0000
1ffffffe003f0000
3ffffffc003f8000
3ffffffc007fc000
7ffffff8007fe000
7ffffff8007ff000
7ffffff0007ff000
ffffffe000fff800
ffffffc000fff800
ffffffc001fffc00
ffffff8003fffc00
ffffff0003fffe00
fffffe0007fffe00
fffffc000ffffe00
fffffc001fffff00
fffff8001fffff00
7ffff0003fffff00
7fffe0007fffff00
7fffc000ffffff00
3fffc001ffffff00
3fff8003ffffff00
1fff0003ffffff00
1fff0007ffffff00
0fff000fffffff00
0ffe001fffffff00
07fe001ffffffe00
03fe003ffffffe00
01fe003ffffffe00
00fc007ffffffe00
007c007ffffffc00
003e007ffffffc00
001e00fffffff800
000e00fffffff000
000200ffffffe000
000100ffffffc000
ENDCHAR
STARTCHAR /home/kraus/git/open-iconic/png/flag-8x.png
ENCODING 169
DWIDTH 64 0
BBX 64 64 0 0
BITMAP
ff00ffffff000000
ff00ffffff000000
ff00ffffff000000
ff00ffffff000000
ff00ffffff000000
ff00ffffff000000
ff00ffffff000000
ff00ffffff000000
ff00fffffffffffe
ff00fffffffffffe
ff00fffffffffffc
ff00fffffffffff8
ff00fffffffffff0
ff00ffffffffffe0
ff00ffffffffffc0
ff00ffffffffff80
ff00ffffffffff00
ff00fffffffffe00
ff00fffffffffc00
ff00fffffffff800
ff00fffffffff000
ff00ffffffffe000
ff00ffffffffc000
ff00ffffffff8000
ff00ffffffff0000
ff00ffffffff8000
ff00ffffffffc000
ff00ffffffffe000
ff00fffffffff000
ff00fffffffff800
ff00fffffffffc00
ff00fffffffffe00
ff000000ffffff00
ff000000ffffff80
ff000000ffffffc0
ff000000ffffffe0
ff000000fffffff0
ff000000fffffff8
ff000000fffffffc
ff000000fffffffe
ff00000000000000
ff00000000000000
ff00000000000000
ff00000000000000
ff00000000000000
ff00000000000000
ff00000000000000
ff00000000000000
ff00000000000000
ff00000000000000
ff00000000000000
ff00000000000000
ff00000000000000
ff00000000000000
ff00000000000000
ff00000000000000
ff00000000000000
ff00000000000000
ff00000000000000
ff00000000000000
ff00000000000000
ff00000000000000
ff00000000000000
ff00000000000000
ENDCHAR
STARTCHAR /home/kraus/git/open-iconic/png/flash-8x.png
ENCODING 170
DWIDTH 64 0
BBX 64 64 0 0
BITMAP
0000000fff000000
0000001ffe000000
0000001ffe000000
0000003ffc000000
0000003ffc000000
0000007ff8000000
0000007ff8000000
000000fff0000000
000000fff0000000
000001ffe0000000
000001ffe0000000
000003ffc0000000
000003ffc0000000
000007ff80000000
000007ff80000000
00000fff00000000
00000fffffff0000
00001ffffffe0000
00001ffffffe0000
00003ffffffc0000
00003ffffffc0000
00007ffffff80000
00007ffffff80000
0000fffffff00000
00000000fff00000
00000000ffe00000
00000001ffe00000
00000001ffc00000
00000001ffc00000
00000003ff800000
00000003ff800000
00000003ff000000
00000007ff000000
00000007fe000000
00000007fe000000
0000000ffc000000
0000000ffc000000
0000000ff8000000
0000001ff8000000
0000001ff0000000
0000fffffffe0000
0000fffffffc0000
00007ffffff80000
00007ffffff00000
00007fffffe00000
00003fffffc00000
00003fffff800000
00003fffff000000
00001ffffe000000
00001ffffc000000
00001ffff8000000
00000ffff0000000
00000fffe0000000
00000fffc0000000
000007ff80000000
000007ff00000000
000007fe00000000
000003fc00000000
000003f800000000
000003f000000000
000001e000000000
000001c000000000
0000018000000000
0000000000000000
ENDCHAR
STARTCHAR /home/kraus/git/open-iconic/png/folder-8x.png
ENCODING 171
DWIDTH 64 0
BBX 64 64 0 0
BITMAP
ffffff0000000000
ffffff0000000000
ffffff0000000000
ffffff0000000000
ffffff0000000000
ffffff0000000000
ffffff0000000000
ffffff0000000000
ffffffffffffffff
ffffffffffffffff
ffffffffffffffff
ffffffffffffffff
ffffffffffffffff
ffffffffffffffff
ffffffffffffffff
ffffffffffffffff
0000000000000000
0000000000000000
0000000000000000
0000000000000000
0000000000000000
0000000000000000
0000000000000000
0000000000000000
ffffffffffffffff
ffffffffffffffff
ffffffffffffffff
ffffffffffffffff
ffffffffffffffff
ffffffffffffffff
ffffffffffffffff
ffffffffffffffff
ffffffffffffffff
ffffffffffffffff
ffffffffffffffff
ffffffffffffffff
ffffffffffffffff
ffffffffffffffff
ffffffffffffffff
ffffffffffffffff
ffffffffffffffff
ffffffffffffffff
ffffffffffffffff
ffffffffffffffff
ffffffffffffffff
ffffffffffffffff
ffffffffffffffff
ffffffffffffffff
ffffffffffffffff
ffffffffffffffff
ffffffffffffffff
ffffffffffffffff
ffffffffffffffff
ffffffffffffffff
ffffffffffffffff
ffffffffffffffff
ffffffffffffffff
ffffffffffffffff
ffffffffffffffff
ffffffffffffffff
ffffffffffffffff
ffffffffffffffff
7ffffffffffffffe
3ffffffffffffffc
ENDCHAR
STARTCHAR /home/kraus/git/open-iconic/png/fork-8x.png
ENCODING 172
DWIDTH 64 0
BBX 64 64 0 0
BITMAP
007e0000007e0000
03ffc00003ffc000
07ffe00007ffe000
0ffff0000ffff000
1ffff8001ffff800
3ffffc003ffffc00
7ffffe007ffffe00
7ffffe007ffffe00
7ffffe007ffffe00
ffffff00ffffff00
ffffff00ffffff00
ffffff00ffffff00
ffffff00ffffff00
ffffff00ffffff00
ffffff00ffffff00
7ffffe00fffffe00
7ffffe007ffffe00
7ffffe007ffffe00
3ffffc003ffffc00
1ffff8001ffff800
0ffff0001ffff800
07ffe00007ffe000
03ffc00003ffc000
00ff000000ff0000
00ff000000ff0000
00ff000000ff0000
00ff000000ff0000
00ff000000ff0000
00ff000000ff0000
00ff000000ff0000
00ff000001ff0000
00ff000003fe0000
00ff7ffffffe0000
00fffffffffe0000
00fffffffffc0000
00fffffffff80000
00fffffffff00000
00ffffffffe00000
00ffffffffc00000
00ffffffff000000
00ffc00000000000
03ffc00000000000
07ffe00000000000
0ffff00000000000
1ffff80000000000
3ffffc0000000000
7ffffe0000000000
7ffffe0000000000
7ffffe0000000000
ffffff0000000000
ffffff0000000000
ffffff0000000000
ffffff0000000000
ffffff0000000000
ffffff0000000000
7ffffe0000000000
7ffffe0000000000
7ffffe0000000000
3ffffc0000000000
1ffff80000000000
1ffff80000000000
07ffe00000000000
03ffc00000000000
00ff000000000000
ENDCHAR
STARTCHAR /home/kraus/git/open-iconic/png/fullscreen-enter-8x.png
ENCODING 173
DWIDTH 64 0
BBX 64 64 0 0
BITMAP
fffffffe00000000
fffffffc00000000
fffffff800000000
fffffff000000000
ffffffe000000000
ffffffc000000000
ffffff8000000000
ffffff0000000000
fffffe0000000000
fffffc0000000000
fffff80000000000
fffff00000000000
fffff00000000000
fffff80000000000
fffffc0000000000
fffffe0000000000
ffffff0000000000
ffffff8000000000
ffffffc000000000
ffffffe000000000
ffe7fff000000000
ffc3fff800000000
ff81fffc00000000
ff00fffe00000000
fe007ffe00000000
fc003ffc00000000
f8001ff800000000
f0000ff000000000
e00007e000000000
c00003c000000000
8000018000000000
0000000000000000
0000000000000000
0000000001800001
0000000003c00003
0000000007e00007
000000000ff0000f
000000001ff8001f
000000003ffc003f
000000007ffe007f
000000007fff00ff
000000003fff81ff
000000001fffc3ff
000000000fffe7ff
0000000007ffffff
0000000003ffffff
0000000001ffffff
0000000000ffffff
00000000007fffff
00000000003fffff
00000000001fffff
00000000000fffff
00000000000fffff
00000000001fffff
00000000003fffff
00000000007fffff
0000000000ffffff
0000000001ffffff
0000000003ffffff
0000000007ffffff
000000000fffffff
000000001fffffff
000000003fffffff
000000007fffffff
ENDCHAR
STARTCHAR /home/kraus/git/open-iconic/png/fullscreen-exit-8x.png
ENCODING 174
DWIDTH 64 0
BBX 64 64 0 0
BITMAP
0000000000000000
0180000100000000
03c0000300000000
07e0000700000000
0ff0000f00000000
1ff8001f00000000
3ffc003f00000000
7ffe007f00000000
7fff00ff00000000
3fff81ff00000000
1fffc3ff00000000
0fffe7ff00000000
07ffffff00000000
03ffffff00000000
01ffffff00000000
00ffffff00000000
007fffff00000000
003fffff00000000
001fffff00000000
000fffff00000000
000fffff00000000
001fffff00000000
003fffff00000000
007fffff00000000
00ffffff00000000
01ffffff00000000
03ffffff00000000
07ffffff00000000
0fffffff00000000
1fffffff00000000
3fffffff00000000
7fffffff00000000
00000000fffffffe
00000000fffffffc
00000000fffffff8
00000000fffffff0
00000000ffffffe0
00000000ffffffc0
00000000ffffff80
00000000ffffff00
00000000fffffe00
00000000fffffc00
00000000fffff800
00000000fffff000
00000000fffff000
00000000fffff800
00000000fffffc00
00000000fffffe00
00000000ffffff00
00000000ffffff80
00000000ffffffc0
00000000ffffffe0
00000000ffe7fff0
00000000ffc3fff8
00000000ff81fffc
00000000ff00fffe
00000000fe007ffe
00000000fc003ffc
00000000f8001ff8
00000000f0000ff0
00000000e00007e0
00000000c00003c0
0000000080000180
0000000000000000
ENDCHAR
STARTCHAR /home/kraus/git/open-iconic/png/globe-8x.png
ENCODING 175
DWIDTH 64 0
BBX 64 64 0 0
BITMAP
0000003ffc000000
000003ffffc00000
00000ffffff00000
00007ffffffe0000
0000ffffffff0000
0003ffffffffc000
0007ffffffffe000
001ffffffffff800
003ffff00ffffc00
007fff0001fffe00
00fffc0003ffff00
01fff00007ffff80
01fff80007ffff80
03fffc000fffffc0
07fffe0007ffffe0
07fffe0001ffffe0
0ffffc00007ffff0
1ffff800003f1ff8
1fff0000003c0ff8
1ffe000000700ff8
3ffe000000e007fc
3ffe000000f003fc
7fe6000000ff83fe
7fe00000007fc7fe
7fe00000007fcffe
7fe00000007ffffe
ffe00000007fffff
ffe0000000ffffff
fff0000001ffffff
fff0000001ffffff
fff0000003ffffff
fff8000007ffffff
ff3800000fffffff
ff0c00000fffffff
ff0400001fffffff
ff0000001fffffff
ff0000000fffffff
ff8000000fffffff
7f8000000ffffffe
7fc0000007fffffe
7ffe000003fffffe
7fff800000fffffe
3fffe0000003fffc
3ffff00000001ffc
1ffff80000000ff8
1ffff80000000ff8
1ffffc0000001ff8
0ffffc0000001ff0
07fffe0000003fe0
07fffe0000007fe0
03ffff000000ffc0
01ffff000003ff80
01ffff000007ff80
00ffff00001fff00
007fff00007ffe00
003fffe007fffc00
001ffffffffff800
0007ffffffffe000
0003ffffffffc000
0000ffffffff0000
00007ffffffe0000
00000ffffff00000
000003ffffc00000
0000003ffc000000
ENDCHAR
STARTCHAR /home/kraus/git/open-iconic/png/graph-8x.png
ENCODING 176
DWIDTH 64 0
BBX 64 64 0 0
BITMAP
0000000000000080
00000000000001c0
00000000000003e0
00000000000007f0
0000000000000ff8
0000000000001ffc
0000000000003ffe
0000000000007fff
000000000000fffe
000000000001fffc
000000000003fff8
000000000007fff0
00000000000fffe0
00000000001fffc0
00000000003fff80
00000000007fff00
0000000000fffe00
0000018001fffc00
000003c003fff800
000007e007fff000
00000ff00fffe000
00001ff81fffc000
00003ffc3fff8000
00007ffe7fff0000
0000fffffffe0000
0001fffffffc0000
0003fffffff80000
0007fffffff00000
000fffffffe00000
001fffffffc00000
003fffffff800000
007fffffff000000
00fffe7ffe000000
01fffc3ffc000000
03fffc1ff8000000
07fff80ff0000000
0ffff007e0000000
1fffe003c0000000
3fffc00180000000
7fff800000000000
ffff000000000000
7ffe000000000000
3ffc000000000000
1ff8000000000000
0ff0000000000000
07e0000000000000
03c0000000000000
0180000000000000
0000000000000000
0000000000000000
0000000000000000
0000000000000000
0000000000000000
0000000000000000
0000000000000000
0000000000000000
ffffffffffffffff
ffffffffffffffff
ffffffffffffffff
ffffffffffffffff
ffffffffffffffff
ffffffffffffffff
ffffffffffffffff
ffffffffffffffff
ENDCHAR
STARTCHAR /home/kraus/git/open-iconic/png/grid-four-up-8x.png
ENCODING 177
DWIDTH 64 0
BBX 64 64 0 0
BITMAP
ff00ff00ff00ff00
ff00ff00ff00ff00
ff00ff00ff00ff00
ff00ff00ff00ff00
ff00ff00ff00ff00
ff00ff00ff00ff00
ff00ff00ff00ff00
ff00ff00ff00ff00
0000000000000000
0000000000000000
0000000000000000
0000000000000000
0000000000000000
0000000000000000
0000000000000000
0000000000000000
ff00ff00ff00ff00
ff00ff00ff00ff00
ff00ff00ff00ff00
ff00ff00ff00ff00
ff00ff00ff00ff00
ff00ff00ff00ff00
ff00ff00ff00ff00
ff00ff00ff00ff00
0000000000000000
0000000000000000
0000000000000000
0000000000000000
0000000000000000
0000000000000000
0000000000000000
0000000000000000
ff00ff00ff00ff00
ff00ff00ff00ff00
ff00ff00ff00ff00
ff00ff00ff00ff00
ff00ff00ff00ff00
ff00ff00ff00ff00
ff00ff00ff00ff00
ff00ff00ff00ff00
0000000000000000
0000000000000000
0000000000000000
0000000000000000
0000000000000000
0000000000000000
0000000000000000
0000000000000000
ff00ff00ff00ff00
ff00ff00ff00ff00
ff00ff00ff00ff00
ff00ff00ff00ff00
ff00ff00ff00ff00
ff00ff00ff00ff00
ff00ff00ff00ff00
ff00ff00ff00ff00
0000000000000000
0000000000000000
0000000000000000
0000000000000000
0000000000000000
0000000000000000
0000000000000000
0000000000000000
ENDCHAR
STARTCHAR /home/kraus/git/open-iconic/png/grid-three-up-8x.png
ENCODING 178
DWIDTH 64 0
BBX 64 64 0 0
BITMAP
ffff00ffff00ffff
ffff00ffff00ffff
ffff00ffff00ffff
ffff00ffff00ffff
ffff00ffff00ffff
ffff00ffff00ffff
ffff00ffff00ffff
ffff00ffff00ffff
ffff00ffff00ffff
ffff00ffff00ffff
ffff00ffff00ffff
ffff00ffff00ffff
ffff00ffff00ffff
ffff00ffff00ffff
ffff00ffff00ffff
ffff00ffff00ffff
0000000000000000
0000000000000000
0000000000000000
0000000000000000
0000000000000000
0000000000000000
0000000000000000
0000000000000000
ffff00ffff00ffff
ffff00ffff00ffff
ffff00ffff00ffff
ffff00ffff00ffff
ffff00ffff00ffff
ffff00ffff00ffff
ffff00ffff00ffff
ffff00ffff00ffff
ffff00ffff00ffff
ffff00ffff00ffff
ffff00ffff00ffff
ffff00ffff00ffff
ffff00ffff00ffff
ffff00ffff00ffff
ffff00ffff00ffff
ffff00ffff00ffff
0000000000000000
0000000000000000
0000000000000000
0000000000000000
0000000000000000
0000000000000000
0000000000000000
0000000000000000
ffff00ffff00ffff
ffff00ffff00ffff
ffff00ffff00ffff
ffff00ffff00ffff
ffff00ffff00ffff
ffff00ffff00ffff
ffff00ffff00ffff
ffff00ffff00ffff
ffff00ffff00ffff
ffff00ffff00ffff
ffff00ffff00ffff
ffff00ffff00ffff
ffff00ffff00ffff
ffff00ffff00ffff
ffff00ffff00ffff
ffff00ffff00ffff
ENDCHAR
STARTCHAR /home/kraus/git/open-iconic/png/grid-two-up-8x.png
ENCODING 179
DWIDTH 64 0
BBX 64 64 0 0
BITMAP
ffffff0000ffffff
ffffff0000ffffff
ffffff0000ffffff
ffffff0000ffffff
ffffff0000ffffff
ffffff0000ffffff
ffffff0000ffffff
ffffff0000ffffff
ffffff0000ffffff
ffffff0000ffffff
ffffff0000ffffff
ffffff0000ffffff
ffffff0000ffffff
ffffff0000ffffff
ffffff0000ffffff
ffffff0000ffffff
ffffff0000ffffff
ffffff0000ffffff
ffffff0000ffffff
ffffff0000ffffff
ffffff0000ffffff
ffffff0000ffffff
ffffff0000ffffff
ffffff0000ffffff
0000000000000000
0000000000000000
0000000000000000
0000000000000000
0000000000000000
0000000000000000
0000000000000000
0000000000000000
0000000000000000
0000000000000000
0000000000000000
0000000000000000
0000000000000000
0000000000000000
0000000000000000
0000000000000000
ffffff0000ffffff
ffffff0000ffffff
ffffff0000ffffff
ffffff0000ffffff
ffffff0000ffffff
ffffff0000ffffff
ffffff0000ffffff
ffffff0000ffffff
ffffff0000ffffff
ffffff0000ffffff
ffffff0000ffffff
ffffff0000ffffff
ffffff0000ffffff
ffffff0000ffffff
ffffff0000ffffff
ffffff0000ffffff
ffffff0000ffffff
ffffff0000ffffff
ffffff0000ffffff
ffffff0000ffffff
ffffff0000ffffff
ffffff0000ffffff
ffffff0000ffffff
ffffff0000ffffff
ENDCHAR
STARTCHAR /home/kraus/git/open-iconic/png/hard-drive-8x.png
ENCODING 180
DWIDTH 64 0
BBX 64 64 0 0
BITMAP
ffffffffffffff00
ffffffffffffff00
ffffffffffffff00
ffffffffffffff00
ffffffffffffff00
ffffffffffffff00
ffffffffffffff00
ffffffffffffff00
ffffffffffffff00
ffffffffffffff00
ffffffffffffff00
ffffffffffffff00
ffffffffffffff00
ffffffffffffff00
ffffffffffffff00
ffffffffffffff00
ffffffffffffff00
ffffffffffffff00
ffffffffffffff00
ffffffffffffff00
ffffffffffffff00
ffffffffffffff00
ffffffffffffff00
ffffffffffffff00
ffffffffffffff00
ffffffffffffff00
ffffffffffffff00
ffffffffffffff00
ffffffffffffff00
ffffffffffffff00
7ffffffffffffe00
3ffffffffffffc00
0000000000000000
0000000000000000
0000000000000000
0000000000000000
0000000000000000
0000000000000000
0000000000000000
8000000000000100
ffffffffffffff00
ffffffffffffff00
ffffffffffffff00
ffffffffffffff00
ffffffffffffff00
ffffffffffffff00
ffffffffffffff00
ffffffffffffff00
ffffffffffc3ff00
ffffffffff81ff00
ffffffffff00ff00
ffffffffff00ff00
ffffffffff00ff00
ffffffffff00ff00
ffffffffff81ff00
ffffffffffc3ff00
ffffffffffffff00
ffffffffffffff00
ffffffffffffff00
ffffffffffffff00
ffffffffffffff00
ffffffffffffff00
ffffffffffffff00
ffffffffffffff00
ENDCHAR
STARTCHAR /home/kraus/git/open-iconic/png/header-8x.png
ENCODING 181
DWIDTH 64 0
BBX 64 64 0 0
BITMAP
ffffff00ffffff00
ffffff00ffffff00
ffffff00ffffff00
ffffff00ffffff00
ffffff00ffffff00
ffffff00ffffff00
ffffff00ffffff00
ffffff00ffffff00
03ffc00003ffc000
01ff800001ff8000
00ff000000ff0000
00ff000000ff0000
00ff000000ff0000
00ff000000ff0000
00ff000000ff0000
00ff000000ff0000
00ff000000ff0000
00ff000000ff0000
00ff000000ff0000
00ff000000ff0000
00ff000000ff0000
00ff000000ff0000
00ff000000ff0000
00ff000000ff0000
00ffffffffff0000
00ffffffffff0000
00ffffffffff0000
00ffffffffff0000
00ffffffffff0000
00ffffffffff0000
00ffffffffff0000
00ffffffffff0000
00ff000000ff0000
00ff000000ff0000
00ff000000ff0000
00ff000000ff0000
00ff000000ff0000
00ff000000ff0000
00ff000000ff0000
00ff000000ff0000
00ff000000ff0000
00ff000000ff0000
00ff000000ff0000
00ff000000ff0000
00ff000000ff0000
00ff000000ff0000
01ff800001ff8000
03ffc00003ffc000
ffffff00ffffff00
ffffff00ffffff00
ffffff00ffffff00
ffffff00ffffff00
ffffff00ffffff00
ffffff00ffffff00
ffffff00ffffff00
ffffff00ffffff00
0000000000000000
0000000000000000
0000000000000000
0000000000000000
0000000000000000
0000000000000000
0000000000000000
0000000000000000
ENDCHAR
STARTCHAR /home/kraus/git/open-iconic/png/headphones-8x.png
ENCODING 182
DWIDTH 64 0
BBX 64 64 0 0
BITMAP
0000001ff8000000
000000ffff000000
000007ffffe00000
00000ffffff00000
00003ffffffc0000
00007ffffffe0000
0000ffffffff0000
0001ffffffff8000
0003fff00fffc000
0007ff8001ffe000
000ffe00007ff000
000ffc00003ff000
001ff800001ff800
003ff000000ffc00
003fe0000007fc00
003fc0000003fc00
007fc0000003fe00
007f80000001fe00
007f80000001fe00
00ff80000001ff00
00ff00000000ff00
00ff00000000ff00
00ff00000000ff00
00ff00000000ff00
00ff00000000ff00
00ff00000000ff00
00ff00000000ff00
00ff00000000ff00
00ff00000000ff00
00ff00000000ff00
00ff00000000ff00
00ff00000000ff00
3fff00000000fffc
7fff00000000fffe
ffff00000000ffff
ffff00000000ffff
ffff00000000ffff
ffff00000000ffff
ffff00000000ffff
ffff00000000ffff
ffff00000000ffff
ffff00000000ffff
ffff00000000ffff
ffff00000000ffff
ffff00000000ffff
ffff00000000ffff
ffff00000000ffff
ffff00000000ffff
ffff00000000ffff
ffff00000000ffff
ffff00000000ffff
ffff00000000ffff
ffff00000000ffff
ffff00000000ffff
7ffe000000007ffe
3ffc000000003ffc
0000000000000000
0000000000000000
0000000000000000
0000000000000000
0000000000000000
0000000000000000
0000000000000000
0000000000000000
ENDCHAR
STARTCHAR /home/kraus/git/open-iconic/png/heart-8x.png
ENCODING 183
DWIDTH 64 0
BBX 64 64 0 0
BITMAP
0000000000000000
0000000000000000
0000000000000000
0000000000000000
0000000000000000
0000000000000000
0000000000000000
0000000000000000
000ff000000ff000
007ffe00007ffe00
00ffff8000ffff80
03ffffc003ffffc0
07ffffe007ffffe0
0ffffff00ffffff0
1ffffff81ffffff8
3ffffff83ffffff8
3ffffffc3ffffffc
7ffffffe7ffffffe
7ffffffe7ffffffe
7ffffffe7ffffffe
ffffffffffffffff
ffffffffffffffff
ffffffffffffffff
ffffffffffffffff
ffffffffffffffff
ffffffffffffffff
ffffffffffffffff
ffffffffffffffff
7ffffffffffffffe
7ffffffffffffffe
7ffffffffffffffe
3ffffffffffffffc
1ffffffffffffff8
1ffffffffffffff8
0ffffffffffffff0
07ffffffffffffe0
03ffffffffffffc0
01ffffffffffff80
00ffffffffffff00
007ffffffffffe00
003ffffffffffc00
001ffffffffff800
000ffffffffff000
0007ffffffffe000
0003ffffffffc000
0001ffffffff8000
0000ffffffff0000
00007ffffffe0000
00003ffffffc0000
00001ffffff80000
00000ffffff00000
000007ffffe00000
000003ffffc00000
000001ffff800000
000000ffff000000
0000007ffe000000
0000003ffc000000
0000001ff8000000
0000000ff0000000
00000007e0000000
00000003c0000000
0000000180000000
0000000000000000
0000000000000000
ENDCHAR
STARTCHAR /home/kraus/git/open-iconic/png/home-8x.png
ENCODING 184
DWIDTH 64 0
BBX 64 64 0 0
BITMAP
0000000180000000
00000003c0000000
00000007e0000000
0000001ff8000000
0000003ffc000000
0000007ffe000000
000001ffff800000
000003ffffc00000
000007ffffe00000
00001ffffff80000
00003ffffffc0000
00007ffffffe0000
0001ffffffff8000
0003ffffffffc000
0007ffffffffe000
001ffffffffff800
003ffffffffffc00
007ffffffffffe00
01ffffffffffff80
03ffffffffffffc0
07ffffffffffffe0
1ffffffffffffff8
3ffffffffffffffc
7ffffffffffffffe
00ffffffffffff00
00ffffffffffff00
00ffffffffffff00
00ffffffffffff00
00ffffffffffff00
00ffffffffffff00
00ffffffffffff00
00ffffffffffff00
00ffffffffffff00
00ffffffffffff00
00ffffffffffff00
00ffffffffffff00
00ffffffffffff00
00ffffffffffff00
00ffffffffffff00
00ffffffffffff00
00ffff0000ffff00
00ffff0000ffff00
00ffff0000ffff00
00ffff0000ffff00
00ffff0000ffff00
00ffff0000ffff00
00ffff0000ffff00
00ffff0000ffff00
00ffff0000ffff00
00ffff0000ffff00
00ffff0000ffff00
00ffff0000ffff00
00ffff0000ffff00
00ffff0000ffff00
00ffff0000ffff00
00ffff0000ffff00
0000000000000000
0000000000000000
0000000000000000
0000000000000000
0000000000000000
0000000000000000
0000000000000000
0000000000000000
ENDCHAR
STARTCHAR /home/kraus/git/open-iconic/png/image-8x.png
ENCODING 185
DWIDTH 64 0
BBX 64 64 0 0
BITMAP
ffffffffffffffff
ffffffffffffffff
ffffffffffffffff
ffffffffffffffff
ffffffffffffffff
ffffffffffffffff
ffffffffffffffff
ffffffffffffffff
ff000000000000ff
ff000000000000ff
ff000000000000ff
ff000000000000ff
ff000000000000ff
ff000000000000ff
ff000000000000ff
ff000000000000ff
ff000000000000ff
ff000000000000ff
ff000000000000ff
ff000000000000ff
ff000000000000ff
ff000000000000ff
ff000000000000ff
ff000000000000ff
ff000000000000ff
ff018000000180ff
ff03c0000003c0ff
ff07e0000007e0ff
ff0ff000000ff0ff
ff1ff800001ff8ff
ff3ffc00003ffcff
ff7ffe00007ffeff
ffffff00007fffff
ffffff80003fffff
ffffffc0001fffff
ffffffe0000fffff
fffffff00007ffff
fffffff80003ffff
fffffffc0001ffff
fffffffe0000ffff
ffffffff00007fff
ffffffff80003fff
ffffffffc0001fff
ffffffffe0000fff
fffffffff00007ff
fffffffff80003ff
fffffffffc0001ff
fffffffffe0000ff
ffffffffff0000ff
ffffffffff8000ff
ffffffffffc000ff
ffffffffffe000ff
fffffffffff000ff
fffffffffff800ff
fffffffffffc00ff
fffffffffffe00ff
ffffffffffffffff
ffffffffffffffff
ffffffffffffffff
ffffffffffffffff
ffffffffffffffff
ffffffffffffffff
ffffffffffffffff
ffffffffffffffff
ENDCHAR
STARTCHAR /home/kraus/git/open-iconic/png/inbox-8x.png
ENCODING 186
DWIDTH 64 0
BBX 64 64 0 0
BITMAP
ffffffffffffffff
ffffffffffffffff
ffffffffffffffff
ffffffffffffffff
ffffffffffffffff
ffffffffffffffff
ffffffffffffffff
ffffffffffffffff
ffffffffffffffff
ffffffffffffffff
ffffffffffffffff
ffffffffffffffff
ffffffffffffffff
ffffffffffffffff
ffffffffffffffff
ffffffffffffffff
ff000000000000ff
ff000000000000ff
ff000000000000ff
ff000000000000ff
ff000000000000ff
ff000000000000ff
ff000000000000ff
ff000000000000ff
ff000000000000ff
ff000000000000ff
ff000000000000ff
ff000000000000ff
ff000000000000ff
ff000000000000ff
ff000000000000ff
ff000000000000ff
ff000000000000ff
ff000000000000ff
ff000000000000ff
ff000000000000ff
ff000000000000ff
ff000000000000ff
ff000000000000ff
ff000000000000ff
ffff00000000ffff
ffff80000001ffff
ffffc0000003ffff
ffffe0000007ffff
fffff000000fffff
fffff800001fffff
fffffc00003fffff
fffffe00007fffff
ffffffffffffffff
ffffffffffffffff
ffffffffffffffff
ffffffffffffffff
ffffffffffffffff
ffffffffffffffff
ffffffffffffffff
ffffffffffffffff
ffffffffffffffff
ffffffffffffffff
ffffffffffffffff
ffffffffffffffff
ffffffffffffffff
ffffffffffffffff
ffffffffffffffff
ffffffffffffffff
ENDCHAR
STARTCHAR /home/kraus/git/open-iconic/png/infinity-8x.png
ENCODING 187
DWIDTH 64 0
BBX 64 64 0 0
BITMAP
0000000000000000
0000000000000000
0000000000000000
0000000000000000
0000000000000000
0000000000000000
0000000000000000
0000000000000000
0000000000000000
0000000000000000
0000000000000000
0000000000000000
0000000000000000
0000000000000000
0000000000000000
0000000000000000
000ff000000ff000
007ffc00003ffe00
01ffff0000ffff80
03ffff8003ffffc0
07ffffe007ffffe0
0ffffff00ffffff0
1ffffff81ffffff8
3ffffffc3ffffffc
3ff83ffe7ffc1ffc
7fe00ffffff007fe
7fc007ffffe003fe
7f8003ffff8001fe
ff8000ffff0001ff
ff0000fffe0000ff
ff00007ffe0000ff
ff00003ffc0000ff
ff00003ffc0000ff
ff00007ffe0000ff
ff0000fffe0000ff
ff8000ffff0001ff
7f8003ffff8001fe
7fc007ffffe003fe
7fe00ffffff007fe
3ff83ffe7ffc1ffc
3ffffffc3ffffffc
1ffffff81ffffff8
0ffffff00ffffff0
07ffffe007ffffe0
03ffff8003ffffc0
01ffff0000ffff80
007ffc00003ffe00
000ff000000ff000
0000000000000000
0000000000000000
0000000000000000
0000000000000000
0000000000000000
0000000000000000
0000000000000000
0000000000000000
0000000000000000
0000000000000000
0000000000000000
0000000000000000
0000000000000000
0000000000000000
0000000000000000
0000000000000000
ENDCHAR
STARTCHAR /home/kraus/git/open-iconic/png/info-8x.png
ENCODING 188
DWIDTH 64 0
BBX 64 64 0 0
BITMAP
0000000007e00000
000000001ff80000
000000003ffc0000
000000007ffe0000
000000007ffe0000
00000000ffff0000
00000000ffff0000
00000000ffff0000
00000000ffff0000
00000000ffff0000
00000000ffff0000
000000007ffe0000
000000007ffe0000
000000003ffc0000
000000001ff80000
0000000007e00000
0000000000000000
0000000000000000
0000000000000000
0000000000000000
0000007e00000000
000003ffc0000000
000007ffe0000000
00000ffff0000000
00001ffff8000000
00003ffffc000000
00007ffffe000000
00007ffffe000000
00007fc3fe000000
0000ff81ff000000
0000ff00ff000000
0000ff00ff000000
00000000ff000000
00000000ff000000
00000001ff000000
00000001fe000000
00000003fe000000
00000007fe000000
00000007fc000000
0000000ffc000000
0000000ff8000000
0000001ff8000000
0000001ff0000000
0000003ff0000000
0000003fe0000000
0000003fe0000000
0000007fc0000000
0000007fc0000000
0000007f80000000
000000ff80000000
000000ff00000000
000000ff00000000
000000ff00ff0000
000000ff00ff0000
000000ff81ff0000
0000007fc3fe0000
0000007ffffe0000
0000007ffffe0000
0000003ffffc0000
0000001ffff80000
0000001ffff00000
00000007ffe00000
00000003ffc00000
000000007e000000
ENDCHAR
STARTCHAR /home/kraus/git/open-iconic/png/italic-8x.png
ENCODING 189
DWIDTH 64 0
BBX 64 64 0 0
BITMAP
0000ffffffffff00
0000ffffffffff00
0000ffffffffff00
0000ffffffffff00
0000ffffffffff00
0000ffffffffff00
0000ffffffffff00
0000ffffffffff00
00000007fffc0000
0000000ffffc0000
0000000ffff80000
0000000ffff80000
0000001ffff00000
0000001ffff00000
0000003ffff00000
0000003fffe00000
0000003fffe00000
0000007fffe00000
0000007fffc00000
000000ffffc00000
000000ffff800000
000000ffff800000
000001ffff800000
000001ffff000000
000003ffff000000
000003fffe000000
000003fffe000000
000007fffe000000
000007fffc000000
00000ffffc000000
00000ffff8000000
00000ffff8000000
00001ffff8000000
00001ffff0000000
00003ffff0000000
00003fffe0000000
00003fffe0000000
00007fffe0000000
00007fffc0000000
0000ffffc0000000
0000ffff80000000
0000ffff80000000
0001ffff80000000
0001ffff00000000
0003ffff00000000
0003fffe00000000
0003fffe00000000
0007fffe00000000
0007fffc00000000
000ffffc00000000
000ffff800000000
000ffff800000000
001ffff800000000
001ffff000000000
003ffff000000000
003fffe000000000
ffffffffff000000
ffffffffff000000
ffffffffff000000
ffffffffff000000
ffffffffff000000
ffffffffff000000
ffffffffff000000
ffffffffff000000
ENDCHAR
STARTCHAR /home/kraus/git/open-iconic/png/justify-center-8x.png
ENCODING 190
DWIDTH 64 0
BBX 64 64 0 0
BITMAP
ffffffffffffffff
ffffffffffffffff
ffffffffffffffff
ffffffffffffffff
ffffffffffffffff
ffffffffffffffff
ffffffffffffffff
ffffffffffffffff
0000000000000000
0000000000000000
0000000000000000
0000000000000000
0000000000000000
0000000000000000
0000000000000000
0000000000000000
ffffffffffffffff
ffffffffffffffff
ffffffffffffffff
ffffffffffffffff
ffffffffffffffff
ffffffffffffffff
ffffffffffffffff
ffffffffffffffff
0000000000000000
0000000000000000
0000000000000000
0000000000000000
0000000000000000
0000000000000000
0000000000000000
0000000000000000
ffffffffffffffff
ffffffffffffffff
ffffffffffffffff
ffffffffffffffff
ffffffffffffffff
ffffffffffffffff
ffffffffffffffff
ffffffffffffffff
0000000000000000
0000000000000000
0000000000000000
0000000000000000
0000000000000000
0000000000000000
0000000000000000
0000000000000000
00ffffffffffff00
00ffffffffffff00
00ffffffffffff00
00ffffffffffff00
00ffffffffffff00
00ffffffffffff00
00ffffffffffff00
00ffffffffffff00
0000000000000000
0000000000000000
0000000000000000
0000000000000000
0000000000000000
0000000000000000
0000000000000000
0000000000000000
ENDCHAR
STARTCHAR /home/kraus/git/open-iconic/png/justify-left-8x.png
ENCODING 191
DWIDTH 64 0
BBX 64 64 0 0
BITMAP
ffffffffffffffff
ffffffffffffffff
ffffffffffffffff
ffffffffffffffff
ffffffffffffffff
ffffffffffffffff
ffffffffffffffff
ffffffffffffffff
0000000000000000
0000000000000000
0000000000000000
0000000000000000
0000000000000000
0000000000000000
0000000000000000
0000000000000000
ffffffffffffffff
ffffffffffffffff
ffffffffffffffff
ffffffffffffffff
ffffffffffffffff
ffffffffffffffff
ffffffffffffffff
ffffffffffffffff
0000000000000000
0000000000000000
0000000000000000
0000000000000000
0000000000000000
0000000000000000
0000000000000000
0000000000000000
ffffffffffffffff
ffffffffffffffff
ffffffffffffffff
ffffffffffffffff
ffffffffffffffff
ffffffffffffffff
ffffffffffffffff
ffffffffffffffff
0000000000000000
0000000000000000
0000000000000000
0000000000000000
0000000000000000
0000000000000000
0000000000000000
0000000000000000
ffffffffffff0000
ffffffffffff0000
ffffffffffff0000
ffffffffffff0000
ffffffffffff0000
ffffffffffff0000
ffffffffffff0000
ffffffffffff0000
0000000000000000
0000000000000000
0000000000000000
0000000000000000
0000000000000000
0000000000000000
0000000000000000
0000000000000000
ENDCHAR
STARTCHAR /home/kraus/git/open-iconic/png/justify-right-8x.png
ENCODING 192
DWIDTH 64 0
BBX 64 64 0 0
BITMAP
ffffffffffffffff
ffffffffffffffff
ffffffffffffffff
ffffffffffffffff
ffffffffffffffff
ffffffffffffffff
ffffffffffffffff
ffffffffffffffff
0000000000000000
0000000000000000
0000000000000000
0000000000000000
0000000000000000
0000000000000000
0000000000000000
0000000000000000
ffffffffffffffff
ffffffffffffffff
ffffffffffffffff
ffffffffffffffff
ffffffffffffffff
ffffffffffffffff
ffffffffffffffff
ffffffffffffffff
0000000000000000
0000000000000000
0000000000000000
0000000000000000
0000000000000000
0000000000000000
0000000000000000
0000000000000000
ffffffffffffffff
ffffffffffffffff
ffffffffffffffff
ffffffffffffffff
ffffffffffffffff
ffffffffffffffff
ffffffffffffffff
ffffffffffffffff
0000000000000000
0000000000000000
0000000000000000
0000000000000000
0000000000000000
0000000000000000
0000000000000000
0000000000000000
0000ffffffffffff
0000ffffffffffff
0000ffffffffffff
0000ffffffffffff
0000ffffffffffff
0000ffffffffffff
0000ffffffffffff
0000ffffffffffff
0000000000000000
0000000000000000
0000000000000000
0000000000000000
0000000000000000
0000000000000000
0000000000000000
0000000000000000
ENDCHAR
STARTCHAR /home/kraus/git/open-iconic/png/key-8x.png
ENCODING 193
DWIDTH 64 0
BBX 64 64 0 0
BITMAP
0000000000ff0000
000000000ffff000
000000003ffffc00
000000007ffffe00
00000001ffffff80
00000003ffffffc0
00000007ffffffe0
0000000ffffffff0
0000000ffff81ff0
0000001fffe007f8
0000003fffc003fc
0000003fff8001fc
0000007fff8001fe
0000007fff0000fe
0000007fff0000fe
0000007fff0000fe
000000ffff0000ff
000000ffff0000ff
000000ffff0000ff
000000ffff8001ff
000000ffff8001ff
000000ffffc003ff
000000ffffe007ff
000000fffff81fff
000001fffffffffe
000003fffffffffe
000007fffffffffe
00000ffffffffffe
00001ffffffffffc
00003ffffffffffc
00007ffffffffff8
0000fffffffffff0
0001fffffffffff0
0003ffffffffffe0
0007ffffffffffc0
000fffffffffff80
000ffffffffffe00
001ffffffffffc00
003ffffffffff000
007fffffffff0000
00ffffffff000000
01ffffffff000000
03ffffffff000000
07ffffffff000000
0fffffffff000000
1fffffffff000000
3fffffffff000000
7fffffffff000000
ffffff0000000000
ffffff0000000000
ffffff0000000000
ffffff0000000000
ffffff0000000000
ffffff0000000000
ffffff0000000000
ffffff0000000000
ffffff0000000000
ffffff0000000000
ffffff0000000000
ffffff0000000000
ffffff0000000000
ffffff0000000000
ffffff0000000000
ffffff0000000000
ENDCHAR
STARTCHAR /home/kraus/git/open-iconic/png/laptop-8x.png
ENCODING 194
DWIDTH 64 0
BBX 64 64 0 0
BITMAP
0000000000000000
0000000000000000
0000000000000000
0000000000000000
0000000000000000
0000000000000000
0000000000000000
0000000000000000
003ffffffffffc00
007ffffffffffe00
00ffffffffffff00
00ffffffffffff00
00ffffffffffff00
00ffffffffffff00
00ffffffffffff00
00ffffffffffff00
00ff00000000ff00
00ff00000000ff00
00ff00000000ff00
00ff00000000ff00
00ff00000000ff00
00ff00000000ff00
00ff00000000ff00
00ff00000000ff00
00ff00000000ff00
00ff00000000ff00
00ff00000000ff00
00ff00000000ff00
00ff00000000ff00
00ff00000000ff00
00ff00000000ff00
00ff00000000ff00
00ff00000000ff00
00ff00000000ff00
00ff00000000ff00
00ff00000000ff00
00ff00000000ff00
00ff00000000ff00
00ff00000000ff00
00ff00000000ff00
ffffff0000ffffff
ffffff0000ffffff
ffffff0000ffffff
ffffff0000ffffff
ffffff0000ffffff
ffffff0000ffffff
ffffff0000ffffff
ffffff0000ffffff
ffffffffffffffff
ffffffffffffffff
ffffffffffffffff
ffffffffffffffff
ffffffffffffffff
ffffffffffffffff
7ffffffffffffffe
3ffffffffffffffc
0000000000000000
0000000000000000
0000000000000000
0000000000000000
0000000000000000
0000000000000000
0000000000000000
0000000000000000
ENDCHAR
STARTCHAR /home/kraus/git/open-iconic/png/layers-8x.png
ENCODING 195
DWIDTH 64 0
BBX 64 64 0 0
BITMAP
ffffffff00000000
ffffffff00000000
ffffffff00000000
ffffffff00000000
ffffffff00000000
ffffffff00000000
ffffffff00000000
ffffffff00000000
ffffffff00000000
ffffffff00000000
ffffffff00000000
ffffffff00000000
ffffffff00000000
ffffffff00000000
ffffffff00000000
ffffffff00000000
ffffffff00ff0000
ffffffff00ff0000
ffffffff00ff0000
ffffffff00ff0000
ffffffff00ff0000
ffffffff00ff0000
ffffffff00ff0000
ffffffff00ff0000
ffffffff00ff0000
ffffffff00ff0000
ffffffff00ff0000
ffffffff00ff0000
ffffffff00ff0000
ffffffff00ff0000
ffffffff00ff0000
ffffffff00ff0000
0000000000ff00ff
0000000000ff00ff
0000000000ff00ff
0000000000ff00ff
0000000000ff00ff
0000000000ff00ff
0000000000ff00ff
0000000000ff00ff
0000ffffffff00ff
0000ffffffff00ff
0000ffffffff00ff
0000ffffffff00ff
0000ffffffff00ff
0000ffffffff00ff
0000ffffffff00ff
0000ffffffff00ff
00000000000000ff
00000000000000ff
00000000000000ff
00000000000000ff
00000000000000ff
00000000000000ff
00000000000000ff
00000000000000ff
00000000ffffffff
00000000ffffffff
00000000ffffffff
00000000ffffffff
00000000ffffffff
00000000ffffffff
00000000ffffffff
00000000ffffffff
ENDCHAR
STARTCHAR /home/kraus/git/open-iconic/png/lightbulb-8x.png
ENCODING 196
DWIDTH 64 0
BBX 64 64 0 0
BITMAP
000000003c000000
00000000fe000000
00000003ff000000
0000000fff000000
0000003fff000000
000000ffff000000
000003fffe000000
00000ffffc000000
00003ffff0000000
0000ffffc0000000
0003ffff00000000
000ffffc00000000
003ffff0003c0000
007fffc000fe0000
00ffff0003ff0000
01fffc000fff0000
01fff0003fff0000
00ffc000ffff0000
00ff0003fffe0000
007c000ffffc0000
0000003ffff00000
000000ffffc00000
000003ffff000000
00000ffffc000000
00003ffff0000000
0000ffffc0000000
0003ffff00000000
000ffffc00000000
003ffff0003c0000
007fffc000fe0000
00ffff0003ff0000
01fffc000fff0000
01fff0003fff0000
00ffc000ffff0000
00ff0003fffe0000
007c000ffffc0000
0000003ffff00000
000000ffffc00000
000003ffff000000
00000ffffc000000
00003ffffe000000
00007fffff000000
0000ffffff000000
0000ffffff800000
0000ffffff800000
0000ffffff000000
00007fffff000000
00003ffffe000000
0000000000000000
0000000000000000
0000000000000000
0000000000000000
0000000000000000
0000000000000000
0000000000000000
0000000000000000
000007ffc0000000
00000fffe0000000
00000ffff0000000
00001ffff0000000
00001ffff0000000
00000ffff0000000
00000fffe0000000
000007ffc0000000
ENDCHAR
STARTCHAR /home/kraus/git/open-iconic/png/link-broken-8x.png
ENCODING 197
DWIDTH 64 0
BBX 64 64 0 0
BITMAP
0000ff000007e000
0000ff00007ffe00
0000ff0000ffff00
0000ff0003ffffc0
0000ff0007ffffe0
0000ff000ffffff0
0000ff001ffffff8
0000ff003ffffffc
00ffff007ff81ffc
00ffff00ffe007fe
00ffff00ffc003fe
00ffff01ff8001fe
00ffff00ff0001ff
00ffff00fe0000ff
00ffff007c0000ff
00ffff00100000ff
00000000000000ff
00000000000000ff
00000000000000ff
00000000000001ff
00000000000001fe
00000000000003fe
00000000000007fe
0000100000000ffc
00007c0000001ffc
0000fe0000003ff8
0001fe0000007ff0
0003fe000000ffe0
0007fe000001ffc0
000ffe000003ff80
001ffc000007ff00
003ff800000ffe00
007ff000001ffc00
00ffe000003ff800
01ffc000007ff000
03ff800000ffe000
07ff000000ffc000
0ffe000000ff8000
1ffc000000ff0000
1ff80000007e0000
3ff00000003c0000
3fe0000000000000
7fc0000000000000
7f80000000000000
7f80000000000000
ff00000000000000
ff00000000000000
ff00000000000000
ff00000c00ffff00
ff00003e00ffff00
ff00007f00ffff00
7f8000ff80ffff00
7f8001ff80ffff00
7fc003ff00ffff00
3fe007ff00ffff00
3ff81ffe00ffff00
1ffffffc00ff0000
1ffffff800ff0000
0ffffff000ff0000
07ffffe000ff0000
03ffffc000ff0000
00ffff0000ff0000
007ffe0000ff0000
000ff00000ff0000
ENDCHAR
STARTCHAR /home/kraus/git/open-iconic/png/link-intact-8x.png
ENCODING 198
DWIDTH 64 0
BBX 64 64 0 0
BITMAP
000000000007e000
00000000007ffc00
0000000000ffff00
0000000003ffffc0
0000000007ffffe0
000000000ffffff0
000000001ffffff8
000000001ffffff8
000000001ff81ffc
000000001fe007fe
000000000fc003fe
00000000078001fe
00000000000001ff
00000000000000ff
00000000000000ff
00000000000000ff
00000000000000ff
00000000000000ff
00000000000000ff
0000007ff00001ff
000001fffc0001fe
000007ffff0003fe
00001fffff0007fe
00003fffff800ffc
00007fffff801ff8
0000ffffff003ff8
0001ffffff007ff0
0003ffc03e00ffe0
0007ff000001ffc0
000ffe000003ff80
001ffc000007ff00
003ff800000ffe00
007ff000001ffc00
00ffe000003ff800
01ffc000007ff000
03ff800000ffe000
07ff003c03ffc000
0ffe007f9fff8000
1ffc00ffffff0000
1ff800fffffe0000
3ff000fffffc0000
3fe000fffff80000
7fc0007fffe00000
7f80003fffc00000
7f80000ffe000000
ff00000040000000
ff00000000000000
ff00000000000000
ff00000000000000
ff00000000000000
ff00000000000000
7f80000000000000
7f8001e000000000
7fc003f000000000
3fe007f800000000
3ff81ff800000000
1ffffff800000000
1ffffff800000000
0ffffff000000000
07ffffe000000000
03ffffc000000000
00ffff0000000000
003ffc0000000000
0007e00000000000
ENDCHAR
STARTCHAR /home/kraus/git/open-iconic/png/list-8x.png
ENCODING 199
DWIDTH 64 0
BBX 64 64 0 0
BITMAP
3c00ffffffffffff
7e00ffffffffffff
ff00ffffffffffff
ff00ffffffffffff
ff00ffffffffffff
ff00ffffffffffff
7e00ffffffffffff
3c00ffffffffffff
0000000000000000
0000000000000000
0000000000000000
0000000000000000
0000000000000000
0000000000000000
0000000000000000
0000000000000000
3c00ffffffffffff
7e00ffffffffffff
ff00ffffffffffff
ff00ffffffffffff
ff00ffffffffffff
ff00ffffffffffff
7e00ffffffffffff
3c00ffffffffffff
0000000000000000
0000000000000000
0000000000000000
0000000000000000
0000000000000000
0000000000000000
0000000000000000
0000000000000000
3c00ffffffffffff
7e00ffffffffffff
ff00ffffffffffff
ff00ffffffffffff
ff00ffffffffffff
ff00ffffffffffff
7e00ffffffffffff
3c00ffffffffffff
0000000000000000
0000000000000000
0000000000000000
0000000000000000
0000000000000000
0000000000000000
0000000000000000
0000000000000000
3c00ffffffffffff
7e00ffffffffffff
ff00ffffffffffff
ff00ffffffffffff
ff00ffffffffffff
ff00ffffffffffff
7e00ffffffffffff
3c00ffffffffffff
0000000000000000
0000000000000000
0000000000000000
0000000000000000
0000000000000000
0000000000000000
0000000000000000
0000000000000000
ENDCHAR
STARTCHAR /home/kraus/git/open-iconic/png/list-rich-8x.png
ENCODING 200
DWIDTH 64 0
BBX 64 64 0 0
BITMAP
ffffff00ffffffff
ffffff00ffffffff
ffffff00ffffffff
ffffff00ffffffff
ffffff00ffffffff
ffffff00ffffffff
ffffff00ffffffff
ffffff00ffffffff
ffffff0000000000
ffffff0000000000
ffffff0000000000
ffffff0000000000
ffffff0000000000
ffffff0000000000
ffffff0000000000
ffffff0000000000
ffffff00ffffff00
ffffff00ffffff00
ffffff00ffffff00
ffffff00ffffff00
ffffff00ffffff00
ffffff00ffffff00
ffffff00ffffff00
ffffff00ffffff00
0000000000000000
0000000000000000
0000000000000000
0000000000000000
0000000000000000
0000000000000000
0000000000000000
0000000000000000
ffffff00ffffffff
ffffff00ffffffff
ffffff00ffffffff
ffffff00ffffffff
ffffff00ffffffff
ffffff00ffffffff
ffffff00ffffffff
ffffff00ffffffff
ffffff0000000000
ffffff0000000000
ffffff0000000000
ffffff0000000000
ffffff0000000000
ffffff0000000000
ffffff0000000000
ffffff0000000000
ffffff00ffffff00
ffffff00ffffff00
ffffff00ffffff00
ffffff00ffffff00
ffffff00ffffff00
ffffff00ffffff00
ffffff00ffffff00
ffffff00ffffff00
0000000000000000
0000000000000000
0000000000000000
0000000000000000
0000000000000000
0000000000000000
0000000000000000
0000000000000000
ENDCHAR
STARTCHAR /home/kraus/git/open-iconic/png/location-8x.png
ENCODING 201
DWIDTH 64 0
BBX 64 64 0 0
BITMAP
0000000000000000
0000000000000006
000000000000001e
000000000000007c
00000000000001fc
00000000000007f8
0000000000001ff8
0000000000007ff0
000000000001fff0
000000000007ffe0
00000000001fffe0
00000000007fffc0
0000000001ffffc0
0000000007ffff80
000000001fffff80
000000007fffff00
00000001ffffff00
00000007fffffe00
0000001ffffffe00
0000007ffffffc00
000001fffffffc00
000007fffffff800
00001ffffffff800
00007ffffffff000
0001fffffffff000
0007ffffffffe000
001fffffffffe000
007fffffffffc000
01ffffffffffc000
07ffffffffff8000
1fffffffffff8000
7fffffffffff0000
3fffffffffff0000
07fffffffffe0000
00fffffffffe0000
001ffffffffc0000
0003fffffffc0000
00007ffffff80000
00000ffffff80000
000001fffff00000
000000fffff00000
0000007fffe00000
0000007fffe00000
0000007fffc00000
0000003fffc00000
0000003fff800000
0000003fff800000
0000001fff000000
0000001fff000000
0000001ffe000000
0000000ffe000000
0000000ffc000000
0000000ffc000000
00000007f8000000
00000007f8000000
00000007f0000000
00000003f0000000
00000003e0000000
00000003e0000000
00000001c0000000
00000001c0000000
0000000180000000
0000000080000000
0000000000000000
ENDCHAR
STARTCHAR /home/kraus/git/open-iconic/png/lock-locked-8x.png
ENCODING 202
DWIDTH 64 0
BBX 64 64 0 0
BITMAP
0000000ff0000000
0000007ffe000000
000001ffff800000
000003ffffc00000
000007ffffe00000
00000ffffff00000
00001ffffff80000
00003ffffffc0000
00003ff81ffc0000
00007fe007fe0000
00007fc003fe0000
00007f8001fe0000
0000ff8001ff0000
0000ff0000ff0000
0000ff0000ff0000
0000ff0000ff0000
0000ff0000ff0000
0000ff0000ff0000
0000ff0000ff0000
0000ff0000ff0000
0000ff0000ff0000
0000ff0000ff0000
0000ff0000ff0000
0000ff0000ff0000
00ffffffffffff00
00ffffffffffff00
00ffffffffffff00
00ffffffffffff00
00ffffffffffff00
00ffffffffffff00
00ffffffffffff00
00ffffffffffff00
00ffffffffffff00
00ffffffffffff00
00ffffffffffff00
00ffffffffffff00
00ffffffffffff00
00ffffffffffff00
00ffffffffffff00
00ffffffffffff00
00ffffffffffff00
00ffffffffffff00
00ffffffffffff00
00ffffffffffff00
00ffffffffffff00
00ffffffffffff00
00ffffffffffff00
00ffffffffffff00
00ffffffffffff00
00ffffffffffff00
00ffffffffffff00
00ffffffffffff00
00ffffffffffff00
00ffffffffffff00
00ffffffffffff00
00ffffffffffff00
0000000000000000
0000000000000000
0000000000000000
0000000000000000
0000000000000000
0000000000000000
0000000000000000
0000000000000000
ENDCHAR
STARTCHAR /home/kraus/git/open-iconic/png/lock-unlocked-8x.png
ENCODING 203
DWIDTH 64 0
BBX 64 64 0 0
BITMAP
0000000ff0000000
0000007ffe000000
000001ffff800000
000003ffffc00000
000007ffffe00000
00000ffffff00000
00001ffffff80000
00003ffffffc0000
00003ff81ffc0000
00007fe007fe0000
00007fc003fe0000
00007f8001fe0000
0000ff8001ff0000
0000ff0000ff0000
0000ff0000ff0000
0000ff0000ff0000
0000000000ff0000
0000000000ff0000
0000000000ff0000
0000000000ff0000
0000000000ff0000
0000000000ff0000
0000000000ff0000
0000000000ff0000
0000000000ff0000
0000000000ff0000
0000000000ff0000
0000000000ff0000
0000000000ff0000
0000000000ff0000
0000000000ff0000
0000000000ff0000
00ffffffffffff00
00ffffffffffff00
00ffffffffffff00
00ffffffffffff00
00ffffffffffff00
00ffffffffffff00
00ffffffffffff00
00ffffffffffff00
00ffffffffffff00
00ffffffffffff00
00ffffffffffff00
00ffffffffffff00
00ffffffffffff00
00ffffffffffff00
00ffffffffffff00
00ffffffffffff00
00ffffffffffff00
00ffffffffffff00
00ffffffffffff00
00ffffffffffff00
00ffffffffffff00
00ffffffffffff00
00ffffffffffff00
00ffffffffffff00
00ffffffffffff00
00ffffffffffff00
00ffffffffffff00
00ffffffffffff00
00ffffffffffff00
00ffffffffffff00
00ffffffffffff00
00ffffffffffff00
ENDCHAR
STARTCHAR /home/kraus/git/open-iconic/png/loop-8x.png
ENCODING 204
DWIDTH 64 0
BBX 64 64 0 0
BITMAP
0000000000008000
000000000000c000
000000000000e000
000000000000f800
000000000000fc00
000000000000fe00
000000000000ff80
000000000000ffc0
07ffffffffffffe0
1ffffffffffffff8
3ffffffffffffffc
7ffffffffffffffe
7ffffffffffffffe
fffffffffffffffc
fffffffffffffff8
ffffffffffffffe0
ff0000000000ffc0
ff0000000000ff80
ff0000000000fe00
ff0000000000fc00
ff0000000000f800
ff0000000000e000
ff0000000000c000
ff00000000008000
0000000000000000
0000000000000000
0000000000000000
0000000000000000
0000000000000000
0000000000000000
0000000000000000
0000000000000000
00010000000000ff
00030000000000ff
00070000000000ff
001f0000000000ff
003f0000000000ff
007f0000000000ff
01ff0000000000ff
03ff0000000000ff
07ffffffffffffff
1fffffffffffffff
3fffffffffffffff
7ffffffffffffffe
7ffffffffffffffe
3ffffffffffffffc
1ffffffffffffff8
07ffffffffffffe0
03ff000000000000
01ff000000000000
007f000000000000
003f000000000000
001f000000000000
0007000000000000
0003000000000000
0001000000000000
0000000000000000
0000000000000000
0000000000000000
0000000000000000
0000000000000000
0000000000000000
0000000000000000
0000000000000000
ENDCHAR
STARTCHAR /home/kraus/git/open-iconic/png/loop-circular-8x.png
ENCODING 205
DWIDTH 64 0
BBX 64 64 0 0
BITMAP
0000000000000000
0000000000000000
0000000000000000
0000000000000000
0000000000000000
0000000000000000
0000000000000000
0000000000000000
0000001f00000000
000000ff00000000
000007ff00000000
00000fff00000000
00003fff00000000
00007fff00000000
0000ffff00000000
0001ffff00000000
0003fff000000000
0007ff8000001800
000ffe0000003c00
000ffc0000007e00
001ff80000007e00
003ff0000000ff00
003fe0000001ff80
003fc0000003ffc0
007fc0000003ffc0
007f80000007ffe0
007f8000000ffff0
00ff8000001ffff8
00ff0000001ffff8
00ff0000003ffffc
00ff0000007ffffe
00ff000000ffffff
ffffff000000ff00
7ffffe000000ff00
3ffffc000000ff00
1ffff8000000ff00
1ffff8000001ff00
0ffff0000001fe00
07ffe0000001fe00
03ffc0000003fe00
03ffc0000003fc00
01ff80000007fc00
00ff0000000ffc00
007e0000001ff800
007e0000003ff000
003c0000007ff000
0018000001ffe000
000000000fffc000
00000000ffff8000
00000000ffff0000
00000000fffe0000
00000000fffc0000
00000000fff00000
00000000ffe00000
00000000ff000000
00000000f8000000
0000000000000000
0000000000000000
0000000000000000
0000000000000000
0000000000000000
0000000000000000
0000000000000000
0000000000000000
ENDCHAR
STARTCHAR /home/kraus/git/open-iconic/png/loop-square-8x.png
ENCODING 206
DWIDTH 64 0
BBX 64 64 0 0
BITMAP
00ffffffffffff00
00ffffffffffff00
00ffffffffffff00
00ffffffffffff00
00ffffffffffff00
00ffffffffffff00
00ffffffffffff00
00ffffffffffff00
00ff00000000ff00
00ff00000000ff00
00ff00000000ff00
00ff00000000ff00
00ff00000000ff00
00ff00000000ff00
00ff00000000ff00
00ff00000000ff00
000000000000ff00
000000000000ff00
000000000000ff00
000000000000ff00
000000000000ff00
001800000000ff00
001800000000ff00
003c00000000ff00
007e000000ffffff
007e0000007ffffe
00ff0000003ffffc
00ff0000003ffffc
01ff8000001ffff8
03ffc000001ffff8
03ffc000000ffff0
07ffe0000007ffe0
07ffe0000007ffe0
0ffff0000003ffc0
1ffff8000003ffc0
1ffff8000001ff80
3ffffc000000ff00
3ffffc000000ff00
7ffffe0000007e00
ffffff0000007e00
00ff000000003c00
00ff000000001800
00ff000000001800
00ff000000000000
00ff000000000000
00ff000000000000
00ff000000000000
00ff000000000000
00ff00000000ff00
00ff00000000ff00
00ff00000000ff00
00ff00000000ff00
00ff00000000ff00
00ff00000000ff00
00ff00000000ff00
00ff00000000ff00
00ffffffffffff00
00ffffffffffff00
00ffffffffffff00
00ffffffffffff00
00ffffffffffff00
00ffffffffffff00
00ffffffffffff00
00ffffffffffff00
ENDCHAR
STARTCHAR /home/kraus/git/open-iconic/png/magnifying-glass-8x.png
ENCODING 207
DWIDTH 64 0
BBX 64 64 0 0
BITMAP
000001ffc0000000
00001ffff8000000
0000ffffff000000
0003ffffffc00000
0007ffffffe00000
001ffffffff80000
003ffffffffc0000
007ffffffffe0000
00ffff00ffff0000
01fff0000fff8000
03ffc00003ffc000
07ff800001ffe000
07fe0000007fe000
0ffc0000003ff000
1ff80000001ff800
1ff00000000ff800
3ff00000000ffc00
3fe000000007fc00
3fc000000003fc00
7fc000000003fe00
7f8000000001fe00
7f8000000001fe00
7f8000000001ff00
ff0000000001ff00
ff0000000000ff00
ff0000000000ff00
ff0000000000ff00
ff0000000000ff00
ff0000000000ff00
ff0000000000ff00
ff0000000000ff00
ff0000000000ff00
ff0000000000ff00
7f8000000001fe00
7f8000000001fe00
7f8000000001fe00
7fc000000003fe00
3fc000000003fc00
3fe000000007fc00
3fe000000007f800
1ff00000000ff800
1ff80000001ff800
0ffc0000003ffc00
07fe0000007ffe00
07ff000000ffff00
03ffc00003ffff80
01fff0000fffffc0
00fffe007fffffe0
007ffffffffffff0
003ffffffffffff8
001ffffffffffffc
0007fffffffffffe
0003ffffffffffff
00007fffff3fffff
00001ffff81fffff
000001ff800fffff
000000000007ffff
000000000003ffff
000000000001ffff
000000000000ffff
0000000000007ffe
0000000000003ffe
0000000000001ffc
00000000000007f0
ENDCHAR
STARTCHAR /home/kraus/git/open-iconic/png/map-8x.png
ENCODING 208
DWIDTH 64 0
BBX 64 64 0 0
BITMAP
ffffffffffffffff
ffffffffffffffff
ffffffffffffffff
ffffffffffffffff
ffffffffffffffff
ffffffffffffffff
ffffffffffffffff
ffffffffffffffff
ff000000000000ff
ff000000000000ff
ff000000000000ff
ff000000000000ff
ff000000000000ff
ff000000000000ff
ff000000000000ff
ff000000000000ff
ff00007e000000ff
ff0003ffc00000ff
ff0007ffe00000ff
ff000ffff00000ff
ff001ffff80000ff
ff003ffffc0000ff
ff007ffffe0000ff
ff007ffffe0000ff
ff007fc3fe0000ff
ff00ff81ff0000ff
ff00ff00ff0000ff
ff00ff00ff0000ff
ff00ff00ff0000ff
ff00ff00ff0000ff
ff00ff81ff0000ff
ff007fc3fe0000ff
ff007ffffe0000ff
ff007ffffe0000ff
ff003ffffc0000ff
ff003ffffc0000ff
ff001ffff80000ff
ff000ffff00000ff
ff000ffff00000ff
ff0007ffe00000ff
ff0003ffc03fffff
ff0003ffc07fffff
ff0001ff80ffffff
ff0000ff00ffffff
ff00007e00ffffff
ff00003c00ffffff
ff000018007fffff
ff000000003fffff
ff000000000000ff
ff000000000000ff
ff000000000000ff
ff000000000000ff
ff000000000000ff
ff000000000000ff
ff000000000000ff
ff000000000000ff
ffffffffffffffff
ffffffffffffffff
ffffffffffffffff
ffffffffffffffff
ffffffffffffffff
ffffffffffffffff
ffffffffffffffff
ffffffffffffffff
ENDCHAR
STARTCHAR /home/kraus/git/open-iconic/png/map-marker-8x.png
ENCODING 209
DWIDTH 64 0
BBX 64 64 0 0
BITMAP
0000001ff8000000
000000ffff000000
000007ffffe00000
00000ffffff00000
00003ffffffc0000
00007ffffffe0000
0000ffffffff0000
0001ffffffff8000
0003fff00fffc000
0007ff8001ffe000
000ffe00007ff000
000ffc00003ff000
001ff800001ff800
003ff000000ffc00
003fe0000007fc00
003fc0000003fc00
007fc0000003fe00
007f80000001fe00
007f80000001fe00
00ff80000001ff00
00ff00000000ff00
00ff00000000ff00
00ff00000000ff00
00ff00000000ff00
00ff00000000ff00
00ff00000000ff00
00ff00000000ff00
00ff00000000ff00
007f80000001fe00
007f80000001fe00
007f80000001fe00
007fc0000003fe00
003fc0000003fc00
003fe0000007fc00
001ff000000ff800
001ff800001ff800
000ffc00003ff000
000ffe00007ff000
0007ff8001ffe000
0007fff00fffe000
0003ffffffffc000
0003ffffffffc000
0001ffffffff8000
0001ffffffff8000
0000ffffffff0000
00007ffffffe0000
00007ffffffe0000
00003ffffffc0000
00001ffffff80000
00000ffffff00000
00000ffffff00000
000007ffffe00000
000003ffffc00000
000001ffff800000
000000ffff000000
000000ffff000000
0000007ffe000000
0000003ffc000000
0000001ff8000000
0000000ff0000000
00000007e0000000
00000003c0000000
0000000180000000
0000000000000000
ENDCHAR
STARTCHAR /home/kraus/git/open-iconic/png/media-pause-8x.png
ENCODING 210
DWIDTH 64 0
BBX 64 64 0 0
BITMAP
0000000000000000
0000000000000000
0000000000000000
0000000000000000
0000000000000000
0000000000000000
0000000000000000
0000000000000000
00ffff0000ffff00
00ffff0000ffff00
00ffff0000ffff00
00ffff0000ffff00
00ffff0000ffff00
00ffff0000ffff00
00ffff0000ffff00
00ffff0000ffff00
00ffff0000ffff00
00ffff0000ffff00
00ffff0000ffff00
00ffff0000ffff00
00ffff0000ffff00
00ffff0000ffff00
00ffff0000ffff00
00ffff0000ffff00
00ffff0000ffff00
00ffff0000ffff00
00ffff0000ffff00
00ffff0000ffff00
00ffff0000ffff00
00ffff0000ffff00
00ffff0000ffff00
00ffff0000ffff00
00ffff0000ffff00
00ffff0000ffff00
00ffff0000ffff00
00ffff0000ffff00
00ffff0000ffff00
00ffff0000ffff00
00ffff0000ffff00
00ffff0000ffff00
00ffff0000ffff00
00ffff0000ffff00
00ffff0000ffff00
00ffff0000ffff00
00ffff0000ffff00
00ffff0000ffff00
00ffff0000ffff00
00ffff0000ffff00
00ffff0000ffff00
00ffff0000ffff00
00ffff0000ffff00
00ffff0000ffff00
00ffff0000ffff00
00ffff0000ffff00
00ffff0000ffff00
00ffff0000ffff00
0000000000000000
0000000000000000
0000000000000000
0000000000000000
0000000000000000
0000000000000000
0000000000000000
0000000000000000
ENDCHAR
STARTCHAR /home/kraus/git/open-iconic/png/media-play-8x.png
ENCODING 211
DWIDTH 64 0
BBX 64 64 0 0
BITMAP
0000000000000000
0000000000000000
0000000000000000
0000000000000000
0000000000000000
0000000000000000
0000000000000000
0000000000000000
0080000000000000
00e0000000000000
00f8000000000000
00fe000000000000
00ff800000000000
00ffe00000000000
00fff80000000000
00fffe0000000000
00ffff8000000000
00ffffe000000000
00fffff800000000
00fffffe00000000
00ffffff80000000
00ffffffe0000000
00fffffff8000000
00fffffffe000000
00ffffffff800000
00ffffffffe00000
00fffffffff80000
00fffffffffe0000
00ffffffffff8000
00ffffffffffe000
00fffffffffff800
00fffffffffffe00
00fffffffffffe00
00fffffffffff800
00ffffffffffe000
00ffffffffff8000
00fffffffffe0000
00fffffffff80000
00ffffffffe00000
00ffffffff800000
00fffffffe000000
00fffffff8000000
00ffffffe0000000
00ffffff80000000
00fffffe00000000
00fffff800000000
00ffffe000000000
00ffff8000000000
00fffe0000000000
00fff80000000000
00ffe00000000000
00ff800000000000
00fe000000000000
00f8000000000000
00e0000000000000
0080000000000000
0000000000000000
0000000000000000
0000000000000000
0000000000000000
0000000000000000
0000000000000000
0000000000000000
0000000000000000
ENDCHAR
STARTCHAR /home/kraus/git/open-iconic/png/media-record-8x.png
ENCODING 212
DWIDTH 64 0
BBX 64 64 0 0
BITMAP
0000000000000000
0000000000000000
0000000000000000
0000000000000000
0000000000000000
0000000000000000
0000000000000000
0000000000000000
0000001ff8000000
000000ffff000000
000007ffffe00000
00000ffffff00000
00003ffffffc0000
00007ffffffe0000
0000ffffffff0000
0001ffffffff8000
0003ffffffffc000
0007ffffffffe000
000ffffffffff000
000ffffffffff000
001ffffffffff800
003ffffffffffc00
003ffffffffffc00
003ffffffffffc00
007ffffffffffe00
007ffffffffffe00
007ffffffffffe00
00ffffffffffff00
00ffffffffffff00
00ffffffffffff00
00ffffffffffff00
00ffffffffffff00
00ffffffffffff00
00ffffffffffff00
00ffffffffffff00
00ffffffffffff00
00ffffffffffff00
007ffffffffffe00
007ffffffffffe00
007ffffffffffe00
003ffffffffffc00
003ffffffffffc00
003ffffffffffc00
001ffffffffff800
000ffffffffff000
000ffffffffff000
0007ffffffffe000
0003ffffffffc000
0001ffffffff8000
0000ffffffff0000
00007ffffffe0000
00003ffffffc0000
00000ffffff00000
000007ffffe00000
000000ffff000000
0000001ff8000000
0000000000000000
0000000000000000
0000000000000000
0000000000000000
0000000000000000
0000000000000000
0000000000000000
0000000000000000
ENDCHAR
STARTCHAR /home/kraus/git/open-iconic/png/media-skip-backward-8x.png
ENCODING 213
DWIDTH 64 0
BBX 64 64 0 0
BITMAP
0000000000000000
0000000000000000
0000000000000000
0000000000000000
0000000000000000
0000000000000000
0000000000000000
0000000000000000
0000000100000001
0000000300000003
0000000700000007
0000001f0000001f
0000003f0000003f
0000007f0000007f
000001ff000001ff
000003ff000003ff
000007ff000007ff
00001fff00001fff
00003fff00003fff
00007fff00007fff
0001ffff0001ffff
0003ffff0003ffff
0007ffff0007ffff
001fffff001fffff
003fffff003fffff
007fffff007fffff
01ffffff01ffffff
03ffffff03ffffff
07ffffff07ffffff
1fffffff1fffffff
3fffffff3fffffff
7fffffff7fffffff
7fffffff7fffffff
3fffffff3fffffff
1fffffff1fffffff
07ffffff07ffffff
03ffffff03ffffff
01ffffff01ffffff
007fffff007fffff
003fffff003fffff
001fffff001fffff
0007ffff0007ffff
0003ffff0003ffff
0001ffff0001ffff
00007fff00007fff
00003fff00003fff
00001fff00001fff
000007ff000007ff
000003ff000003ff
000001ff000001ff
0000007f0000007f
0000003f0000003f
0000001f0000001f
0000000700000007
0000000300000003
0000000100000001
0000000000000000
0000000000000000
0000000000000000
0000000000000000
0000000000000000
0000000000000000
0000000000000000
0000000000000000
ENDCHAR
STARTCHAR /home/kraus/git/open-iconic/png/media-skip-forward-8x.png
ENCODING 214
DWIDTH 64 0
BBX 64 64 0 0
BITMAP
0000000000000000
0000000000000000
0000000000000000
0000000000000000
0000000000000000
0000000000000000
0000000000000000
0000000000000000
8000000080000000
c0000000c0000000
e0000000e0000000
f8000000f8000000
fc000000fc000000
fe000000fe000000
ff800000ff800000
ffc00000ffc00000
ffe00000ffe00000
fff80000fff80000
fffc0000fffc0000
fffe0000fffe0000
ffff8000ffff8000
ffffc000ffffc000
ffffe000ffffe000
fffff800fffff800
fffffc00fffffc00
fffffe00fffffe00
ffffff80ffffff80
ffffffc0ffffffc0
ffffffe0ffffffe0
fffffff8fffffff8
fffffffcfffffffc
fffffffefffffffe
fffffffefffffffe
fffffffcfffffffc
fffffff8fffffff8
ffffffe0ffffffe0
ffffffc0ffffffc0
ffffff80ffffff80
fffffe00fffffe00
fffffc00fffffc00
fffff800fffff800
ffffe000ffffe000
ffffc000ffffc000
ffff8000ffff8000
fffe0000fffe0000
fffc0000fffc0000
fff80000fff80000
ffe00000ffe00000
ffc00000ffc00000
ff800000ff800000
fe000000fe000000
fc000000fc000000
f8000000f8000000
e0000000e0000000
c0000000c0000000
8000000080000000
0000000000000000
0000000000000000
0000000000000000
0000000000000000
0000000000000000
0000000000000000
0000000000000000
0000000000000000
ENDCHAR
STARTCHAR /home/kraus/git/open-iconic/png/media-step-backward-8x.png
ENCODING 215
DWIDTH 64 0
BBX 64 64 0 0
BITMAP
0000000000000000
0000000000000000
0000000000000000
0000000000000000
0000000000000000
0000000000000000
0000000000000000
0000000000000000
ffff000000000100
ffff000000000300
ffff000000000f00
ffff000000003f00
ffff000000007f00
ffff00000001ff00
ffff00000007ff00
ffff0000000fff00
ffff0000003fff00
ffff000000ffff00
ffff000001ffff00
ffff000007ffff00
ffff00001fffff00
ffff00003fffff00
ffff0000ffffff00
ffff0003ffffff00
ffff0007ffffff00
ffff001fffffff00
ffff007fffffff00
ffff00ffffffff00
ffff03ffffffff00
ffff0fffffffff00
ffff1fffffffff00
ffff7fffffffff00
ffff7fffffffff00
ffff1fffffffff00
ffff0fffffffff00
ffff03ffffffff00
ffff00ffffffff00
ffff007fffffff00
ffff001fffffff00
ffff0007ffffff00
ffff0003ffffff00
ffff0000ffffff00
ffff00003fffff00
ffff00001fffff00
ffff000007ffff00
ffff000001ffff00
ffff000000ffff00
ffff0000003fff00
ffff0000000fff00
ffff00000007ff00
ffff00000001ff00
ffff000000007f00
ffff000000003f00
ffff000000000f00
ffff000000000300
ffff000000000100
0000000000000000
0000000000000000
0000000000000000
0000000000000000
0000000000000000
0000000000000000
0000000000000000
0000000000000000
ENDCHAR
STARTCHAR /home/kraus/git/open-iconic/png/media-step-forward-8x.png
ENCODING 216
DWIDTH 64 0
BBX 64 64 0 0
BITMAP
0000000000000000
0000000000000000
0000000000000000
0000000000000000
0000000000000000
0000000000000000
0000000000000000
0000000000000000
8000000000ffff00
c000000000ffff00
f000000000ffff00
fc00000000ffff00
fe00000000ffff00
ff80000000ffff00
ffe0000000ffff00
fff0000000ffff00
fffc000000ffff00
ffff000000ffff00
ffff800000ffff00
ffffe00000ffff00
fffff80000ffff00
fffffc0000ffff00
ffffff0000ffff00
ffffffc000ffff00
ffffffe000ffff00
fffffff800ffff00
fffffffe00ffff00
ffffffff00ffff00
ffffffffc0ffff00
fffffffff0ffff00
fffffffff8ffff00
fffffffffeffff00
fffffffffeffff00
fffffffff8ffff00
fffffffff0ffff00
ffffffffc0ffff00
ffffffff00ffff00
fffffffe00ffff00
fffffff800ffff00
ffffffe000ffff00
ffffffc000ffff00
ffffff0000ffff00
fffffc0000ffff00
fffff80000ffff00
ffffe00000ffff00
ffff800000ffff00
ffff000000ffff00
fffc000000ffff00
fff0000000ffff00
ffe0000000ffff00
ff80000000ffff00
fe00000000ffff00
fc00000000ffff00
f000000000ffff00
c000000000ffff00
8000000000ffff00
0000000000000000
0000000000000000
0000000000000000
0000000000000000
0000000000000000
0000000000000000
0000000000000000
0000000000000000
ENDCHAR
STARTCHAR /home/kraus/git/open-iconic/png/media-stop-8x.png
ENCODING 217
DWIDTH 64 0
BBX 64 64 0 0
BITMAP
0000000000000000
0000000000000000
0000000000000000
0000000000000000
0000000000000000
0000000000000000
0000000000000000
0000000000000000
00ffffffffffff00
00ffffffffffff00
00ffffffffffff00
00ffffffffffff00
00ffffffffffff00
00ffffffffffff00
00ffffffffffff00
00ffffffffffff00
00ffffffffffff00
00ffffffffffff00
00ffffffffffff00
00ffffffffffff00
00ffffffffffff00
00ffffffffffff00
00ffffffffffff00
00ffffffffffff00
00ffffffffffff00
00ffffffffffff00
00ffffffffffff00
00ffffffffffff00
00ffffffffffff00
00ffffffffffff00
00ffffffffffff00
00ffffffffffff00
00ffffffffffff00
00ffffffffffff00
00ffffffffffff00
00ffffffffffff00
00ffffffffffff00
00ffffffffffff00
00ffffffffffff00
00ffffffffffff00
00ffffffffffff00
00ffffffffffff00
00ffffffffffff00
00ffffffffffff00
00ffffffffffff00
00ffffffffffff00
00ffffffffffff00
00ffffffffffff00
00ffffffffffff00
00ffffffffffff00
00ffffffffffff00
00ffffffffffff00
00ffffffffffff00
00ffffffffffff00
00ffffffffffff00
00ffffffffffff00
0000000000000000
0000000000000000
0000000000000000
0000000000000000
0000000000000000
0000000000000000
0000000000000000
0000000000000000
ENDCHAR
STARTCHAR /home/kraus/git/open-iconic/png/medical-cross-8x.png
ENCODING 218
DWIDTH 64 0
BBX 64 64 0 0
BITMAP
0000ffffffff0000
0000ffffffff0000
0000ffffffff0000
0000ffffffff0000
0000ffffffff0000
0000ffffffff0000
0000ffffffff0000
0000ffffffff0000
0000ffffffff0000
0000ffffffff0000
0000ffffffff0000
0000ffffffff0000
0000ffffffff0000
0000ffffffff0000
0000ffffffff0000
0000ffffffff0000
ffffffffffffffff
ffffffffffffffff
ffffffffffffffff
ffffffffffffffff
ffffffffffffffff
ffffffffffffffff
ffffffffffffffff
ffffffffffffffff
ffffffffffffffff
ffffffffffffffff
ffffffffffffffff
ffffffffffffffff
ffffffffffffffff
ffffffffffffffff
ffffffffffffffff
ffffffffffffffff
ffffffffffffffff
ffffffffffffffff
ffffffffffffffff
ffffffffffffffff
ffffffffffffffff
ffffffffffffffff
ffffffffffffffff
ffffffffffffffff
ffffffffffffffff
ffffffffffffffff
ffffffffffffffff
ffffffffffffffff
ffffffffffffffff
ffffffffffffffff
ffffffffffffffff
ffffffffffffffff
0000ffffffff0000
0000ffffffff0000
0000ffffffff0000
0000ffffffff0000
0000ffffffff0000
0000ffffffff0000
0000ffffffff0000
0000ffffffff0000
0000ffffffff0000
0000ffffffff0000
0000ffffffff0000
0000ffffffff0000
0000ffffffff0000
0000ffffffff0000
0000ffffffff0000
0000ffffffff0000
ENDCHAR
STARTCHAR /home/kraus/git/open-iconic/png/menu-8x.png
ENCODING 219
DWIDTH 64 0
BBX 64 64 0 0
BITMAP
0000000000000000
0000000000000000
0000000000000000
0000000000000000
0000000000000000
0000000000000000
0000000000000000
0000000000000000
ffffffffffffffff
ffffffffffffffff
ffffffffffffffff
ffffffffffffffff
ffffffffffffffff
ffffffffffffffff
ffffffffffffffff
ffffffffffffffff
0000000000000000
0000000000000000
0000000000000000
0000000000000000
0000000000000000
0000000000000000
0000000000000000
0000000000000000
0000000000000000
0000000000000000
0000000000000000
0000000000000000
0000000000000000
0000000000000000
0000000000000000
0000000000000000
ffffffffffffffff
ffffffffffffffff
ffffffffffffffff
ffffffffffffffff
ffffffffffffffff
ffffffffffffffff
ffffffffffffffff
ffffffffffffffff
0000000000000000
0000000000000000
0000000000000000
0000000000000000
0000000000000000
0000000000000000
0000000000000000
0000000000000000
0000000000000000
0000000000000000
0000000000000000
0000000000000000
0000000000000000
0000000000000000
0000000000000000
0000000000000000
ffffffffffffffff
ffffffffffffffff
ffffffffffffffff
ffffffffffffffff
ffffffffffffffff
ffffffffffffffff
ffffffffffffffff
ffffffffffffffff
ENDCHAR
STARTCHAR /home/kraus/git/open-iconic/png/microphone-8x.png
ENCODING 220
DWIDTH 64 0
BBX 64 64 0 0
BITMAP
00000007e0000000
0000001ff8000000
0000003ffc000000
0000007ffe000000
0000007ffe000000
000000ffff000000
000000ffff000000
000000ffff000000
000000ffff000000
000000ffff000000
000000ffff000000
000000ffff000000
000000ffff000000
000000ffff000000
000000ffff000000
000000ffff000000
003c00ffff003c00
007e00ffff007e00
00ff00ffff00ff00
00ff00ffff00ff00
00ff00ffff00ff00
00ff00ffff00ff00
00ff00ffff00ff00
00ff00ffff00ff00
00ff00ffff00ff00
00ff00ffff00ff00
00ff00ffff00ff00
00ff807ffe00ff00
007f807ffe00ff00
007f803ffc01fe00
007fc01ff801fe00
007fc007e003fe00
003fe0000003fe00
003fe0000007fc00
001ff000000ffc00
001ff800001ff800
000ffc00003ff800
000fff00007ff000
0007ff8001ffe000
0003fff00fffc000
0001ffffffff8000
0000ffffffff0000
00007ffffffe0000
00003ffffffc0000
00000ffffff00000
000003ffffc00000
000000ffff000000
0000000ff8000000
0000000ff0000000
0000000ff0000000
0000000ff0000000
0000000ff0000000
0000000ff0000000
0000000ff0000000
0000000ff0000000
0000000ff0000000
000007ffffe00000
00001ffffff80000
00003ffffffc0000
00007ffffffe0000
00007ffffffe0000
0000ffffffff0000
0000ffffffff0000
0000ffffffff0000
ENDCHAR
STARTCHAR /home/kraus/git/open-iconic/png/minus-8x.png
ENCODING 221
DWIDTH 64 0
BBX 64 64 0 0
BITMAP
0000000000000000
0000000000000000
0000000000000000
0000000000000000
0000000000000000
0000000000000000
0000000000000000
0000000000000000
0000000000000000
0000000000000000
0000000000000000
0000000000000000
0000000000000000
0000000000000000
0000000000000000
0000000000000000
0000000000000000
0000000000000000
0000000000000000
0000000000000000
0000000000000000
0000000000000000
0000000000000000
0000000000000000
ffffffffffffffff
ffffffffffffffff
ffffffffffffffff
ffffffffffffffff
ffffffffffffffff
ffffffffffffffff
ffffffffffffffff
ffffffffffffffff
ffffffffffffffff
ffffffffffffffff
ffffffffffffffff
ffffffffffffffff
ffffffffffffffff
ffffffffffffffff
ffffffffffffffff
ffffffffffffffff
0000000000000000
0000000000000000
0000000000000000
0000000000000000
0000000000000000
0000000000000000
0000000000000000
0000000000000000
0000000000000000
0000000000000000
0000000000000000
0000000000000000
0000000000000000
0000000000000000
0000000000000000
0000000000000000
0000000000000000
0000000000000000
0000000000000000
0000000000000000
0000000000000000
0000000000000000
0000000000000000
0000000000000000
ENDCHAR
STARTCHAR /home/kraus/git/open-iconic/png/monitor-8x.png
ENCODING 222
DWIDTH 64 0
BBX 64 64 0 0
BITMAP
3ffffffffffffffc
7ffffffffffffffe
ffffffffffffffff
ffffffffffffffff
ffffffffffffffff
ffffffffffffffff
ffffffffffffffff
ffffffffffffffff
ff000000000000ff
ff000000000000ff
ff000000000000ff
ff000000000000ff
ff000000000000ff
ff000000000000ff
ff000000000000ff
ff000000000000ff
ff000000000000ff
ff000000000000ff
ff000000000000ff
ff000000000000ff
ff000000000000ff
ff000000000000ff
ff000000000000ff
ff000000000000ff
ff000000000000ff
ff000000000000ff
ff000000000000ff
ff000000000000ff
ff000000000000ff
ff000000000000ff
ff000000000000ff
ff000000000000ff
ff000000000000ff
ff000000000000ff
ff000000000000ff
ff000000000000ff
ff000000000000ff
ff000000000000ff
ff000000000000ff
ff000000000000ff
ffffffffffffffff
ffffffffffffffff
ffffffffffffffff
ffffffffffffffff
ffffffffffffffff
ffffffffffffffff
7ffffffffffffffe
3ffffffffffffffc
000000ffff000000
000000ffff000000
000000ffff000000
000000ffff000000
000000ffff000000
000000ffff000000
000000ffff000000
000000ffff000000
0007ffffffffe000
001ffffffffff800
003ffffffffffc00
007ffffffffffe00
007ffffffffffe00
00ffffffffffff00
00ffffffffffff00
00ffffffffffff00
ENDCHAR
STARTCHAR /home/kraus/git/open-iconic/png/moon-8x.png
ENCODING 223
DWIDTH 64 0
BBX 64 64 0 0
BITMAP
0000080000000000
0000380000000000
0000f80000000000
0001f80000000000
0007f80000000000
000ff00000000000
001ff00000000000
003ff00000000000
007ff00000000000
00fff00000000000
01fff00000000000
03fff00000000000
07fff00000000000
07fff00000000000
0ffff00000000000
0ffff00000000000
1ffff80000000000
1ffff80000000000
3ffff80000000000
3ffff80000000000
3ffffc0000000000
7ffffc0000000000
7ffffc0000000000
7ffffe0000000000
7ffffe0000000000
ffffff0000000000
ffffff0000000000
ffffff8000000000
ffffffc000000000
ffffffc000000000
ffffffe000000000
fffffff000000000
fffffff800000000
fffffffc00000000
fffffffe00000000
ffffffff00000000
7fffffffc0000000
7fffffffe0000000
7ffffffff8000000
7ffffffffe000000
3fffffffffc00000
3ffffffffff8003c
3ffffffffffffff8
1ffffffffffffff8
1ffffffffffffff8
0ffffffffffffff0
0fffffffffffffe0
07ffffffffffffe0
03ffffffffffffc0
03ffffffffffff80
01ffffffffffff80
00ffffffffffff00
007ffffffffffe00
003ffffffffffc00
001ffffffffff800
000ffffffffff000
0003ffffffffc000
0001ffffffff8000
00007ffffffe0000
00001ffffff80000
000003ffffc00000
0000007ffe000000
0000000000000000
0000000000000000
ENDCHAR
STARTCHAR /home/kraus/git/open-iconic/png/move-8x.png
ENCODING 224
DWIDTH 64 0
BBX 64 64 0 0
BITMAP
0000000000000000
0000001800000000
0000003c00000000
0000007e00000000
000000ff00000000
000001ff80000000
000003ffc0000000
000007ffe0000000
00000ffff0000000
00001ffff8000000
00003ffffc000000
00007ffffe000000
000000ff00000000
000000ff00000000
000000ff00000000
000000ff00000000
000000ff00000000
001000ff00080000
003000ff000c0000
007000ff000e0000
00f000ff000f0000
01f000ff000f8000
03f000ff000fc000
07f000ff000fe000
0ffffffffffff000
1ffffffffffff800
3ffffffffffffc00
7ffffffffffffe00
7ffffffffffffe00
3ffffffffffffc00
1ffffffffffff800
0ffffffffffff000
07f000ff000fe000
03f000ff000fc000
01f000ff000f8000
00f000ff000f0000
007000ff000e0000
003000ff000c0000
001000ff00080000
000000ff00000000
000000ff00000000
000000ff00000000
000000ff00000000
000000ff00000000
00007ffffe000000
00003ffffc000000
00001ffff8000000
00000ffff0000000
000007ffe0000000
000003ffc0000000
000001ff80000000
000000ff00000000
0000007e00000000
0000003c00000000
0000001800000000
0000000000000000
0000000000000000
0000000000000000
0000000000000000
0000000000000000
0000000000000000
0000000000000000
0000000000000000
0000000000000000
ENDCHAR
STARTCHAR /home/kraus/git/open-iconic/png/musical-note-8x.png
ENCODING 225
DWIDTH 64 0
BBX 64 64 0 0
BITMAP
000000000000ffff
0000000003ffffff
00000001ffffffff
0000001fffffffff
000001ffffffffff
000007ffffffffff
00003fffffffffff
00007fffffffffff
0000ffffffffffff
0000ffffffffffff
0000ffffffffffff
0000ffffffffffff
0000ffffffffffff
0000ffffffffffff
0000ffffffffffff
0000ffffffffffff
0000ffffffff80ff
0000fffffc0000ff
0000fffe000000ff
0000ffe0000000ff
0000ff00000000ff
0000ff00000000ff
0000ff00000000ff
0000ff00000000ff
0000ff00000000ff
0000ff00000000ff
0000ff00000000ff
0000ff00000000ff
0000ff00000000ff
0000ff00000000ff
0000ff00000000ff
0000ff00000000ff
0000ff0000007eff
0000ff000003ffff
0000ff000007ffff
0000ff00000fffff
0000ff00001fffff
0000ff00003fffff
0000ff00007fffff
0000ff00007fffff
007eff00007fffff
03ffff0000ffffff
07ffff0000ffffff
0fffff0000ffffff
1fffff0000ffffff
3fffff0000ffffff
7fffff0000ffffff
7fffff00007ffffe
7fffff00007ffffe
ffffff00007ffffe
ffffff00003ffffc
ffffff00001ffff8
ffffff00000ffff0
ffffff000007ffe0
ffffff000003ffc0
7ffffe0000007e00
7ffffe0000000000
7ffffe0000000000
3ffffc0000000000
1ffff80000000000
0ffff00000000000
07ffe00000000000
03ffc00000000000
007e000000000000
ENDCHAR
STARTCHAR /home/kraus/git/open-iconic/png/paperclip-8x.png
ENCODING 226
DWIDTH 64 0
BBX 64 64 0 0
BITMAP
000000000ff00000
000000007ffc0000
00000000ffff0000
00000003ffffc000
00000007ffffe000
0000000ffffff000
0000001ffffff800
0000003ffffff800
0000007ff81ffc00
000000ffe007fc00
000001ffc003fe00
000003ff8001fe00
000007ff0001fe00
00000ffe0000ff00
00001ffc0000ff00
00003ff80000ff00
00007ff00000ff00
0000ffe00000ff00
0001ffc00000ff00
0003ff800001fe00
0007ff000001fe00
000ffe000003fe00
001ffc000007fc00
003ff800000ffc00
00fff000001ff800
01ffe080003ff800
03ffc1c0007ff000
03ff83e000ffe000
07ff07f001ffc000
0ffe0ff803ff8000
1ffc1ffc07ff0000
1ff83ffc0ffe0000
3ff07ff81ffc0000
3fe07ff03ff80000
7fc0ffe07ff00000
7fc1ffc0ffe00000
7f81ff81ffc00000
7f81ff03ff800000
ff03fe07ff000000
ff03fc0ffe000000
ff03fc1ffc000000
ff03fe3ff8000000
ff01fffff0400000
ff01ffffe0e00000
ff00ffffc1f00000
ff00ffff83f80000
7f807ffe07fc0000
7f803ffc0ffe0000
7f800ff81ffe0000
7fc003c03ffc0000
3fe000007ff80000
3fe00000fff00000
1ff00000ffe00000
1ffc0003ffc00000
0ffe0007ff800000
07ffc03fff000000
03fffffffe000000
03fffffffc000000
00fffffff0000000
007fffffe0000000
003fffffc0000000
000fffff00000000
0003fffc00000000
00003fc000000000
ENDCHAR
STARTCHAR /home/kraus/git/open-iconic/png/pencil-8x.png
ENCODING 227
DWIDTH 64 0
BBX 64 64 0 0
BITMAP
0000000000000000
0000000000018000
000000000003c000
000000000007e000
00000000000ff000
00000000001ff800
00000000003ffc00
00000000007ffe00
00000000007fff00
00000000003fff80
00000000001fffc0
00000000000fffe0
000000000007fff0
000000000003fff8
000000000001fffc
000000000000fffe
0000000000007ffe
0000000180003ffc
00000003c0001ff8
00000007e0000ff0
0000000ff00007e0
0000001ff80003c0
0000003ffc000180
0000007ffe000000
000000ffff000000
000001ffff800000
000003ffffc00000
000007ffffe00000
00000ffffff00000
00001ffffff80000
00003ffffffc0000
00007ffffffe0000
0000fffffffe0000
0001fffffffc0000
0003fffffff80000
0007fffffff00000
000fffffffe00000
001fffffffc00000
003fffffff800000
007fffffff000000
00fffffffe000000
01fffffffc000000
03fffffff8000000
07fffffff0000000
0fffffffe0000000
1fffffffc0000000
3fffffff80000000
7fffffff00000000
fffffffe00000000
fffffffc00000000
fffffff800000000
fffffff000000000
ffffffe000000000
ffffffc000000000
ffffff8000000000
ffffff0000000000
fffffe0000000000
fffffc0000000000
fffff80000000000
fffff00000000000
ffffe00000000000
ffffc00000000000
ffff800000000000
ffff000000000000
ENDCHAR
STARTCHAR /home/kraus/git/open-iconic/png/people-8x.png
ENCODING 228
DWIDTH 64 0
BBX 64 64 0 0
BITMAP
00000000007e0000
0000000001ff8000
0000000003ffc000
0000000007ffe000
000000000ffff000
000000001ffff800
000000001ffffc00
000000001ffffc00
00007e001ffffe00
0001ff800ffffe00
0003ffc007fffe00
0007ffe007fffe00
000ffff003ffff00
001ffff803ffff00
003ffffc03ffff00
003ffffc01ffff00
007ffffe01ffff00
007ffffe01ffff00
007ffffe01ffff00
00fffffe00ffff00
00ffffff00fffe00
00ffffff00fffe00
00ffffff00fffe00
00ffffff00fffe00
00ffffff00fffc00
00ffffff00fffc00
00ffffff00fff800
00ffffff00fff000
00fffffe00fff000
007ffffe01ffc000
007ffffe01ff8000
007ffffe007e0000
003ffffc00000000
003ffffc00000020
001ffff800000070
000ffff0000000f8
0007ffe0000001fc
0003ffc0000007fe
0001ff8000001ffe
00007e000000fffe
000000000007ffff
000000000007ffff
0e0000007003ffff
1f000000f803ffff
3f800001fc01ffff
7fe00007fe01ffff
7ff8001ffe01ffff
7fff00fffe00ffff
ffffffffff00ffff
ffffffffff00ffff
ffffffffff00ffff
ffffffffff00ffff
ffffffffff00ffff
ffffffffff00ffff
ffffffffff00ffff
ffffffffff00ffff
ffffffffff000000
ffffffffff000000
ffffffffff000000
ffffffffff000000
ffffffffff000000
ffffffffff000000
ffffffffff000000
ffffffffff000000
ENDCHAR
STARTCHAR /home/kraus/git/open-iconic/png/person-8x.png
ENCODING 229
DWIDTH 64 0
BBX 64 64 0 0
BITMAP
00000007e0000000
0000003ffc000000
000000ffff000000
000001ffff800000
000003ffffc00000
000007ffffe00000
00000ffffff00000
00000ffffff00000
00001ffffff80000
00003ffffffc0000
00003ffffffc0000
00003ffffffc0000
00007ffffffe0000
00007ffffffe0000
00007ffffffe0000
0000ffffffff0000
0000ffffffff0000
0000ffffffff0000
0000ffffffff0000
0000ffffffff0000
0000ffffffff0000
0000ffffffff0000
0000ffffffff0000
0000ffffffff0000
0000ffffffff0000
00007ffffffe0000
00007ffffffe0000
00007ffffffe0000
00003ffffffc0000
00003ffffffc0000
00003ffffffc0000
00001ffffff80000
00000ffffff00000
00000ffffff00000
000007ffffe00000
000003ffffc00000
000001ffff800000
000000ffff000000
0000003ffc000000
00000007e0000000
000f00000000f000
007f80000001fe00
01ffc0000003ff80
03ffe0000007ffc0
07fff000001fffe0
0ffffc00003ffff0
1fffff0000fffff8
3ffffff00ffffffc
3ffffffffffffffc
7ffffffffffffffe
7ffffffffffffffe
7ffffffffffffffe
ffffffffffffffff
ffffffffffffffff
ffffffffffffffff
ffffffffffffffff
ffffffffffffffff
ffffffffffffffff
ffffffffffffffff
ffffffffffffffff
ffffffffffffffff
ffffffffffffffff
ffffffffffffffff
ffffffffffffffff
ENDCHAR
ENDFONT
